<?xml version="1.0" encoding="UTF-8" standalone="no"?>
<!-- Created with Inkscape (http://www.inkscape.org/) -->

<svg
   width="210mm"
   height="297mm"
   viewBox="0 0 210 297"
   version="1.1"
   id="svg5"
   inkscape:version="1.1.1 (3bf5ae0d25, 2021-09-20)"
   sodipodi:docname="fb.svg"
   xmlns:inkscape="http://www.inkscape.org/namespaces/inkscape"
   xmlns:sodipodi="http://sodipodi.sourceforge.net/DTD/sodipodi-0.dtd"
   xmlns="http://www.w3.org/2000/svg"
   xmlns:svg="http://www.w3.org/2000/svg">
  <sodipodi:namedview
     id="namedview7"
     pagecolor="#ffffff"
     bordercolor="#111111"
     borderopacity="1"
     inkscape:pageshadow="0"
     inkscape:pageopacity="0"
     inkscape:pagecheckerboard="1"
     inkscape:document-units="mm"
     showgrid="false"
     inkscape:zoom="0.64052329"
     inkscape:cx="397.33138"
     inkscape:cy="436.36196"
     inkscape:window-width="1920"
     inkscape:window-height="1001"
     inkscape:window-x="-9"
     inkscape:window-y="-9"
     inkscape:window-maximized="1"
     inkscape:current-layer="layer1" />
  <defs
     id="defs2" />
  <g
     inkscape:label="Слой 1"
     inkscape:groupmode="layer"
     id="layer1">
    <g
       id="g1559"
       transform="matrix(1.052141,0,0,1.052141,5.79669,24.805418)">
      <path
         style="fill:#fefefe;stroke-width:0.308193"
         d="m 89.351425,188.73997 c -0.169506,-0.0547 -2.180469,-0.26368 -4.468806,-0.46449 -9.42659,-0.8272 -18.756257,-4.03537 -28.139451,-9.67624 -11.249299,-6.7627 -20.412125,-16.78507 -26.3774,-28.85179 -6.431524,-13.00987 -8.782517,-28.19472 -6.665303,-43.05061 0.637776,-4.47509 2.7164,-12.452343 3.995689,-15.334476 0.230007,-0.518187 1.131164,-2.547845 2.00257,-4.510344 0.871406,-1.962502 2.362791,-4.87493 3.314188,-6.472063 1.699982,-2.8538 4.748475,-7.229376 5.45868,-7.834974 0.198786,-0.169507 1.133093,-1.279003 2.076237,-2.465548 4.573304,-5.753553 12.262056,-11.661174 21.607879,-16.602325 1.484478,-0.784846 2.879072,-1.426993 3.099095,-1.426993 0.220022,0 1.606058,-0.486305 3.080079,-1.080679 9.071965,-3.658111 20.050887,-5.26714 30.910913,-4.530185 10.170655,0.690176 18.609815,2.935673 27.984635,7.446172 9.34672,4.496976 19.94469,13.822992 26.28298,23.128533 5.11397,7.508049 9.16537,17.050979 10.70461,25.214322 1.2768,6.77151 1.41124,8.22133 1.41333,15.24162 0.003,8.85713 -0.61911,13.67856 -2.67197,20.72029 -0.97781,3.3541 -3.5042,10.01921 -4.08813,10.78529 -0.12982,0.17032 -0.9704,1.69655 -1.86795,3.39161 -3.22771,6.09571 -6.75771,10.85883 -11.8652,16.01002 -3.37834,3.40725 -9.86716,8.5603 -12.69573,10.08223 -0.81666,0.43941 -2.94104,1.58421 -4.72086,2.54401 -6.49711,3.50369 -15.33721,6.43003 -21.11125,6.98847 -1.69506,0.16394 -4.26077,0.43151 -5.70158,0.59461 -2.408365,0.27262 -10.840603,0.38464 -11.557255,0.15354 z m 9.633213,-50.92851 0.07921,-20.71951 6.077732,-0.0836 6.07773,-0.0836 0.20329,-1.38687 c 0.19213,-1.31087 0.63155,-5.85331 1.08074,-11.17201 l 0.20171,-2.3885 h -6.51457 -6.514578 v -4.946401 c 0,-5.181139 0.249729,-6.376884 1.452528,-6.954938 0.3029,-0.145572 2.97776,-0.335739 5.94412,-0.422588 l 5.39339,-0.157909 0.0835,-6.275923 0.0835,-6.275925 -7.48019,0.152639 c -4.20161,0.08574 -8.020511,0.3075 -8.71296,0.505958 -0.678026,0.194325 -2.393079,0.93884 -3.811231,1.654478 -4.189965,2.114374 -6.358867,4.961681 -7.783387,10.21793 -0.458737,1.692672 -0.579024,3.211385 -0.579024,7.310651 v 5.174138 l -4.083564,0.086 -4.083564,0.086 -0.08253,7.47369 -0.08253,7.47369 h 4.166092 4.166092 v 20.5976 c 0,11.32868 0.09495,20.69255 0.211001,20.8086 0.116053,0.11605 3.409871,0.17383 7.319595,0.12841 l 7.108594,-0.0826 z"
         id="path1575" />
      <path
         style="fill:#fdfdfd;stroke-width:0.308193"
         d="m 89.593832,187.85686 c -0.08865,-0.14337 -0.768475,-0.16961 -1.510716,-0.0583 -0.742237,0.1113 -1.518558,0.0979 -1.725153,-0.0298 -0.206594,-0.12768 -0.935111,-0.26472 -1.618922,-0.30453 -7.128922,-0.41504 -15.691917,-2.77935 -21.429965,-5.91699 -1.101792,-0.60248 -2.558006,-1.3717 -3.236032,-1.7094 -0.678026,-0.33769 -1.718179,-0.97723 -2.311451,-1.42119 -0.593273,-0.44397 -1.750807,-1.14729 -2.572297,-1.56295 -0.821493,-0.41565 -2.069676,-1.24391 -2.773741,-1.84056 -0.704068,-0.59666 -1.863945,-1.47844 -2.577509,-1.95951 -2.420076,-1.63158 -9.401575,-8.79748 -12.009243,-12.32645 -3.803106,-5.14675 -8.614067,-14.08999 -10.714437,-19.91737 -1.110667,-3.0815 -2.514558,-8.89776 -3.158523,-13.08561 -0.732837,-4.76582 -0.723851,-15.64699 0.01694,-20.50748 1.083239,-7.10741 2.651413,-12.259433 5.816092,-19.107997 0.509131,-1.101792 1.133198,-2.488662 1.386817,-3.081935 1.158615,-2.710272 6.610022,-11.122631 7.788948,-12.019545 0.111402,-0.08475 1.005404,-1.124906 1.986671,-2.311451 2.289949,-2.768999 5.354341,-5.760007 7.793637,-7.607001 1.05832,-0.801343 2.23716,-1.755174 2.619643,-2.119625 2.103239,-2.004077 10.685583,-6.953277 14.71823,-8.487598 0.762779,-0.290218 2.080306,-0.837628 2.927838,-1.216467 7.72283,-3.452034 19.729764,-5.247697 30.127124,-4.505576 10.489297,0.748683 17.210647,2.620451 27.813247,7.745459 7.71359,3.728538 16.37893,10.684659 22.08874,17.731775 0.82404,1.017039 1.68037,2.057192 1.90296,2.311451 1.74753,1.996157 5.59705,8.396269 7.97097,13.25232 4.08036,8.346705 5.97818,17.2374 5.83748,27.34677 -0.048,3.45206 0.0462,5.53546 0.2694,5.95242 0.25573,0.47785 0.25021,0.75368 -0.0217,1.08126 -0.20073,0.24187 -0.29957,0.88542 -0.21962,1.43011 0.24828,1.69165 -0.93954,9.47953 -2.08115,13.64494 -0.59883,2.18494 -1.6405,5.26397 -2.31484,6.84229 -0.67432,1.57832 -1.22605,2.9342 -1.22605,3.01305 0,0.0789 -0.43559,0.87758 -0.96798,1.77495 -0.53238,0.89737 -1.512,2.67173 -2.17692,3.94303 -2.7868,5.32822 -8.12122,12.49186 -9.87628,13.26294 -0.46614,0.20479 -0.84753,0.49182 -0.84753,0.63783 0,0.28877 -1.23932,1.75066 -2.46555,2.90833 -2.89449,2.73266 -3.80136,3.48881 -6.44139,5.37085 -1.62718,1.15999 -3.79063,2.55769 -4.80767,3.10598 -1.01704,0.5483 -2.05719,1.17042 -2.31145,1.38248 -0.80458,0.67107 -6.79407,3.56 -9.60371,4.6322 -3.67177,1.4012 -10.13449,2.96987 -12.63587,3.06706 -1.1291,0.0439 -2.21181,0.17796 -2.40601,0.29799 -0.19421,0.12003 -0.70522,0.12986 -1.13556,0.0219 -0.43601,-0.10943 -0.97258,-0.0386 -1.21188,0.16002 -0.2626,0.21793 -0.85185,0.27715 -1.51673,0.15241 -0.59801,-0.11218 -1.249675,-0.10362 -1.448136,0.019 -0.511269,0.31598 -9.515742,0.32386 -9.710748,0.009 z m 13.354328,-1.57894 c 12.83157,-1.75864 27.56133,-8.38592 35.86832,-16.13803 0.93228,-0.87002 1.85793,-1.58428 2.057,-1.58724 0.4694,-0.007 5.65657,-5.61434 6.85267,-7.40775 0.50664,-0.75964 1.35716,-1.85457 1.89006,-2.43317 1.52588,-1.65675 4.53222,-6.35415 6.3289,-9.88886 0.21539,-0.42377 1.29252,-2.98948 2.3936,-5.70158 3.11968,-7.68415 4.84275,-15.34403 5.32088,-23.65398 0.24655,-4.28493 -0.60165,-11.60379 -2.07377,-17.89396 -1.2604,-5.385542 -5.32234,-15.21321 -8.17647,-19.782563 -2.20101,-3.523736 -8.76979,-11.850018 -10.33727,-13.103043 -0.73027,-0.583768 -2.17,-1.826979 -3.1994,-2.762691 -4.60997,-4.190408 -7.84698,-6.447916 -13.42787,-9.364679 -6.99564,-3.656158 -12.41684,-5.499732 -20.5859,-7.000601 -9.746805,-1.790742 -20.084992,-1.254272 -29.605708,1.5363 -1.610311,0.471991 -3.621273,1.023774 -4.468806,1.226184 -2.09218,0.499662 -12.234461,5.550702 -14.316003,7.129631 -0.924041,0.700918 -2.310912,1.634382 -3.081935,2.074364 -0.771026,0.439981 -1.979952,1.261585 -2.686507,1.825785 -0.706552,0.5642 -1.423102,1.025819 -1.592331,1.025819 -0.169232,0 -0.35392,0.132689 -0.410423,0.294864 -0.0565,0.162175 -2.055074,2.277153 -4.44127,4.69995 -3.730101,3.787317 -6.910524,7.512287 -6.910524,8.093734 0,0.09391 -0.58942,1.008576 -1.309822,2.032595 -2.799875,3.979893 -6.373714,10.841321 -7.520577,14.438787 -3.57841,11.224714 -4.825145,19.643234 -4.135456,27.924494 0.360292,4.32612 1.298274,10.10531 2.023374,12.46663 3.354093,10.92276 4.721526,14.01746 9.04772,20.47636 1.465885,2.18852 2.817478,4.23567 3.003541,4.54922 0.739208,1.2457 5.904821,6.88061 8.25962,9.01002 2.718255,2.45806 6.762481,5.57238 9.433927,7.26473 0.930895,0.58972 1.876818,1.2495 2.102046,1.46617 0.490909,0.47226 6.011838,3.1334 9.452686,4.55628 3.540631,1.46414 10.278588,3.47639 13.536159,4.04249 8.134327,1.41359 13.542487,1.56603 20.709539,0.58374 z M 82.318776,160.33319 c -0.115443,-0.11544 -0.209898,-9.40947 -0.209898,-20.6534 v -20.4435 h -3.814683 c -2.8552,0 -3.902876,-0.10627 -4.165331,-0.4225 -0.248758,-0.29974 -0.326888,-3.05346 -0.26888,-9.47695 l 0.08177,-9.05444 4.083563,-0.086 4.083564,-0.086 v -5.181046 c 0,-8.042173 1.001456,-11.116883 4.901106,-15.047589 2.26401,-2.282037 4.194408,-3.445276 7.158801,-4.313815 2.432488,-0.712696 19.690742,-0.983834 20.243302,-0.318034 0.27914,0.336328 0.3548,2.468645 0.29362,8.273978 l -0.0824,7.82088 -5.39339,0.15791 c -2.96636,0.08685 -5.64121,0.277016 -5.94412,0.422588 -1.07016,0.51431 -1.45252,1.858361 -1.45252,5.105777 v 3.097241 h 6.48174 c 5.49002,0 6.509,0.071 6.65992,0.46435 0.22878,0.59618 -1.28563,17.85203 -1.61326,18.38214 -0.0889,0.14382 -2.85685,0.2615 -6.15102,0.2615 h -5.9894 l -0.0792,20.57192 -0.0792,20.57191 -9.267051,0.0815 c -5.096879,0.0448 -9.361506,-0.013 -9.47695,-0.12842 z m 17.048321,-1.33879 c 0.224969,-0.42035 0.319301,-7.06828 0.297801,-20.98728 -0.01729,-11.20463 0.04091,-20.44443 0.129377,-20.53289 0.08846,-0.0885 2.720515,-0.13718 5.849005,-0.10825 3.5365,0.0327 5.76058,-0.0646 5.8796,-0.25715 0.20012,-0.3238 1.40038,-12.68473 1.40353,-14.45439 l 0.002,-1.01809 -6.08682,0.034 c -3.34775,0.0187 -6.26994,0.0261 -6.49376,0.0165 -0.32328,-0.0139 -0.386639,-0.99806 -0.30819,-4.787646 l 0.0987,-4.770141 1.07867,-1.008486 1.07868,-1.008486 5.23929,-0.154097 5.23929,-0.154097 v -6.472063 -6.472063 l -7.55074,0.01948 c -8.800025,0.02271 -10.403035,0.296103 -14.349172,2.447143 -2.62669,1.431808 -3.253919,2.118414 -4.896633,5.360153 -1.527478,3.014351 -2.019546,5.760034 -2.019546,11.268881 0,3.45794 -0.112737,5.086992 -0.369832,5.344082 -0.247612,0.24762 -1.624328,0.36984 -4.165904,0.36984 h -3.796071 l 0.08234,7.78188 0.08234,7.78189 3.544225,0.0554 c 1.949324,0.0305 3.786927,0.0652 4.083563,0.077 0.508144,0.0203 0.539339,1.2308 0.539339,20.92738 0,11.49819 0.09246,20.99825 0.205463,21.11126 0.113003,0.113 3.505957,0.20546 7.539895,0.20546 7.014447,0 7.3488,-0.0269 7.6637,-0.61524 z"
         id="path1573" />
      <path
         style="fill:#fcfcfc;stroke-width:0.308193"
         d="m 108.38034,186.28581 c 0.46502,-0.24258 1.29714,-0.5152 1.84916,-0.60582 2.63373,-0.43234 7.53077,-2.09145 11.54238,-3.91053 0.7111,-0.32245 1.55919,-0.58628 1.88465,-0.58628 0.32545,0 0.92248,-0.25312 1.32673,-0.56249 0.96013,-0.7348 4.04034,-2.24466 4.21761,-2.0674 0.38519,0.3852 -0.39369,1.17244 -1.70396,1.72225 -0.80875,0.33937 -2.53975,1.16861 -3.84667,1.84277 -3.01333,1.55439 -7.16077,2.9558 -11.4925,3.88329 -4.0321,0.86333 -5.03176,0.93855 -3.7774,0.28421 z m -31.973041,-0.47973 c -0.228449,-0.36963 0.680778,-0.36963 1.540967,0 0.519577,0.22327 0.46193,0.26828 -0.367052,0.28653 -0.540892,0.0119 -1.069154,-0.11702 -1.173915,-0.28653 z m -5.70158,-1.39171 c -3.506718,-1.15067 -8.974249,-3.7653 -9.173613,-4.38691 -0.163805,-0.51074 0.829293,-0.49368 1.444509,0.0248 0.267607,0.22553 1.179993,0.66427 2.027525,0.97497 0.847532,0.31071 2.37309,0.94332 3.390128,1.40581 1.017039,0.46249 2.889314,1.15979 4.160612,1.54956 1.271298,0.38978 2.514529,0.89016 2.762736,1.11198 0.831376,0.74297 -1.177709,0.44664 -4.611897,-0.68023 z M 58.37798,178.40944 c -0.610621,-0.514 -0.878083,-0.90182 -0.616387,-0.89376 0.63404,0.0195 2.2411,0.9909 2.392934,1.4464 0.219067,0.6572 -0.666579,0.3817 -1.776547,-0.55264 z m 71.57659,-0.38524 c 0.0699,-0.21188 0.39349,-0.5287 0.71912,-0.70403 1.23054,-0.66258 4.3831,-2.82521 5.83656,-4.00382 2.3768,-1.92736 2.39982,-1.94668 3.57457,-2.99977 1.26119,-1.13057 2.93841,-2.38572 3.18799,-2.38572 0.0916,0 0.16657,0.18701 0.16657,0.41559 0,1.03386 -10.20354,9.13841 -11.50516,9.13841 -0.2414,0 -0.61156,0.20803 -0.82258,0.46229 -0.46384,0.5589 -1.33514,0.61692 -1.15707,0.0771 z m -75.274912,-1.78967 c -2.093219,-1.14966 -3.332835,-2.32037 -2.907405,-2.7458 0.202822,-0.20282 1.083547,0.27026 2.608439,1.40113 3.238657,2.40181 3.379828,3.03676 0.298966,1.34467 z m -5.547483,-4.02428 c -3.940851,-3.4409 -6.163869,-5.66559 -6.163869,-6.16848 0,-0.35105 -0.218358,-0.57646 -0.558429,-0.57646 -0.551883,0 -1.907119,-1.52418 -1.907119,-2.14487 0,-0.59375 0.803153,-0.32705 1.637404,0.54372 0.455479,0.47542 0.828144,0.95088 0.828144,1.05657 0,0.2958 3.995518,4.24291 4.294944,4.24291 0.145258,0 0.671099,0.45073 1.168537,1.00162 0.497437,0.5509 1.158729,1.14797 1.469538,1.32682 0.31081,0.17885 0.76722,0.62959 1.014246,1.00163 0.408846,0.61575 0.397378,0.67563 -0.127789,0.66741 -0.31731,-0.005 -1.062334,-0.43286 -1.655607,-0.95087 z m 94.615395,-4.716 c 0,-0.26838 0.21959,-0.48797 0.48798,-0.48797 0.26838,0 0.43307,0.16469 0.36598,0.36598 -0.19049,0.57146 -0.85396,0.66624 -0.85396,0.12199 z m 1.74644,-1.61801 c -0.37745,-0.37744 -0.2139,-0.68165 1.10435,-2.05415 2.60973,-2.71712 6.98858,-8.56667 7.89232,-10.54308 0.15821,-0.34598 0.5086,-0.81243 0.77865,-1.03655 0.27005,-0.22413 0.42471,-0.51476 0.34369,-0.64585 -0.081,-0.13109 0.0592,-0.40974 0.31159,-0.61921 0.38189,-0.31693 0.4589,-0.27107 0.4589,0.27328 0,0.35977 -0.12135,0.65412 -0.26967,0.65412 -0.14832,0 -0.34707,0.38702 -0.44168,0.86003 -0.0946,0.47302 -0.66668,1.57917 -1.27129,2.45812 -0.60462,0.87895 -1.0993,1.68607 -1.0993,1.79361 0,0.3056 -3.01937,4.38313 -4.88693,6.59959 -2.07026,2.45702 -2.43864,2.74208 -2.92063,2.26009 z M 39.053227,161.89972 c -0.30455,-0.43552 -1.048277,-1.38527 -1.652727,-2.11056 -0.60445,-0.72528 -1.78329,-2.45829 -2.619644,-3.85113 -2.169238,-3.61256 -2.27195,-3.81493 -2.08764,-4.11315 0.241387,-0.39057 1.09181,0.4802 1.78986,1.8327 0.333563,0.64628 0.957654,1.61182 1.386871,2.14564 0.429216,0.53382 1.265797,1.68526 1.859069,2.55874 0.593273,0.87348 1.460067,2.08536 1.92621,2.69307 0.466142,0.6077 0.847532,1.22453 0.847532,1.37073 0,0.56328 -0.921692,0.22879 -1.449531,-0.52604 z m 60.62268,-2.58009 c 0,-0.1595 0.138687,-0.37571 0.308193,-0.48048 0.16951,-0.10476 0.30819,0.0257 0.30819,0.29001 0,0.26426 -0.13868,0.48048 -0.30819,0.48048 -0.169506,0 -0.308193,-0.1305 -0.308193,-0.29001 z m -16.713912,-0.0952 c -0.0393,-0.0424 -0.14332,-9.16105 -0.231145,-20.26372 l -0.159682,-20.18668 -3.769579,-0.0865 c -3.215047,-0.0738 -3.804433,-0.16444 -4.006515,-0.61639 -0.351652,-0.78646 0.0074,-16.79226 0.379451,-16.916 0.200239,-0.0666 0.308193,2.73136 0.308193,7.9877 v 8.09021 l 4.160612,0.15409 c 4.071846,0.15081 4.160144,0.16889 4.138598,0.84753 -0.01211,0.38139 -0.04678,9.77744 -0.07705,20.88011 -0.04989,18.29766 -0.140802,20.75876 -0.742885,20.10963 z m -52.10313,-10.56246 c -0.459077,-0.93604 -0.834686,-1.85684 -0.834686,-2.04622 0,-0.18938 -0.407138,-1.00601 -0.904752,-1.81473 -1.104325,-1.79476 -2.500813,-5.88897 -3.711631,-10.88174 -3.351989,-13.82179 -1.963673,-31.47532 3.372395,-42.882659 0.634327,-1.356051 1.658395,-3.619782 2.275706,-5.030513 0.617312,-1.410734 1.608521,-3.297362 2.202688,-4.192513 0.594167,-0.895151 1.080303,-1.771973 1.080303,-1.948497 0,-0.458056 3.199743,-4.87238 4.889813,-6.745927 0.785485,-0.870758 2.370373,-2.708361 3.521974,-4.083564 1.151602,-1.375202 2.225983,-2.500367 2.387514,-2.500367 0.161532,0 0.969201,-0.658764 1.79482,-1.463919 3.075598,-2.999363 8.652787,-7.117596 11.937048,-8.814394 1.033419,-0.533912 2.728381,-1.421482 3.766581,-1.972378 1.97396,-1.047435 2.964198,-1.268481 2.761278,-0.616386 -0.128203,0.411985 -3.816829,2.388499 -4.457483,2.388499 -0.210844,0 -0.700293,0.288405 -1.087661,0.640901 -0.387371,0.352495 -2.50724,1.823909 -4.710824,3.269809 -2.203583,1.445901 -4.292827,2.891083 -4.642765,3.211518 -0.349938,0.320435 -0.735565,0.582609 -0.856948,0.582609 -0.121384,0 -0.647974,0.48664 -1.1702,1.081424 -0.522227,0.594782 -1.275799,1.163318 -1.674605,1.263412 -0.398806,0.100094 -0.814941,0.480248 -0.924746,0.844786 -0.109805,0.364538 -1.328287,1.789311 -2.707738,3.166163 -1.37945,1.376852 -2.646778,2.711811 -2.816285,2.966575 -2.532919,3.806919 -4.756621,6.916791 -5.291443,7.40014 -0.367698,0.33231 -0.760237,0.969543 -0.872309,1.416076 -0.112073,0.446532 -0.323787,0.956487 -0.470477,1.133239 -0.14669,0.176749 -0.801971,1.356366 -1.45618,2.621368 -0.65421,1.265001 -1.489011,2.854753 -1.855116,3.532778 -0.719332,1.332207 -2.663698,7.432452 -3.89609,12.22358 -2.732288,10.62222 -2.509812,24.39567 0.559229,34.62183 0.254359,0.84753 0.664324,2.2344 0.911035,3.08193 0.876919,3.0125 2.580103,7.45319 3.386093,8.82851 0.805014,1.37365 1.053333,2.42055 0.57414,2.42055 -0.134196,0 -0.6196,-0.76585 -1.078678,-1.70189 z M 156.7015,149.6704 c 0.005,-0.21188 0.21343,-0.65445 0.46229,-0.98349 0.24887,-0.32903 0.45249,-0.80532 0.45249,-1.05842 0,-0.2531 0.26058,-1.02404 0.57907,-1.71321 1.70517,-3.68977 3.72562,-9.62353 4.46687,-13.11847 0.37687,-1.77692 0.61379,-2.46555 0.84826,-2.46555 0.37123,0 0.34247,0.41829 -0.2119,3.08193 -1.26609,6.08337 -2.81539,10.74205 -4.6122,13.86871 -0.24353,0.42377 -0.65513,1.22122 -0.91467,1.77211 -0.46909,0.99568 -1.08894,1.35269 -1.07021,0.61639 z m 6.77046,-20.09144 c 0,-0.26426 0.13868,-0.48048 0.30819,-0.48048 0.16951,0 0.30819,0.13051 0.30819,0.29001 0,0.1595 -0.13868,0.37572 -0.30819,0.48048 -0.16951,0.10476 -0.30819,-0.0257 -0.30819,-0.29001 z m 0.18423,-2.55633 c -0.10133,-0.10133 -0.18423,-0.44866 -0.18423,-0.77185 0,-0.72424 1.02512,-0.62257 1.16731,0.11577 0.0968,0.50243 -0.64303,0.99613 -0.98308,0.65608 z m 0.43215,-2.41114 c 0,-0.26426 0.14095,-0.39337 0.31322,-0.2869 0.17228,0.10647 0.23344,0.32269 0.13591,0.48048 -0.26419,0.42748 -0.44913,0.34777 -0.44913,-0.19358 z m 0.0462,-2.89424 c 0.0678,-0.20341 0.22383,-0.35943 0.34672,-0.34672 0.36851,0.0381 0.29714,0.46084 -0.10016,0.59328 -0.20341,0.0678 -0.31436,-0.0431 -0.24656,-0.24656 z m -64.458873,-3.63017 c 2.1e-4,-0.68441 0.02241,-0.68722 6.087033,-0.77048 l 6.08682,-0.0836 0.20816,-2.77375 c 0.53214,-7.09064 1.15398,-12.58038 1.45963,-12.88603 0.76116,-0.76116 0.87534,0.37726 0.47328,4.71891 -0.9688,10.46182 -1.10512,11.57478 -1.45998,11.91949 -0.25336,0.24612 -2.37357,0.39431 -6.61402,0.46229 l -6.241132,0.10005 z m 64.008143,-8.60382 c -0.45336,-0.45337 -0.21494,-1.38772 0.32746,-1.28326 0.29663,0.0571 0.53934,0.36779 0.53934,0.69035 0,0.61316 -0.50269,0.95701 -0.8668,0.59291 z m -0.31461,-3.08836 c -0.35462,-0.35462 -0.22444,-0.71912 0.25682,-0.71912 0.25426,0 0.46229,0.20803 0.46229,0.46229 0,0.48127 -0.3645,0.61145 -0.71911,0.25683 z m -0.36937,-2.79943 c -0.10551,-0.63564 -0.31982,-1.55781 -0.47626,-2.04924 -0.15643,-0.49144 -0.28442,-1.22143 -0.28442,-1.622199 0,-0.400772 -0.13395,-0.969497 -0.29767,-1.263834 -0.16373,-0.294337 -1.08067,-2.546119 -2.03766,-5.003961 -0.95698,-2.457843 -2.34858,-5.754053 -3.09245,-7.324909 -0.74386,-1.570856 -1.35247,-2.903737 -1.35247,-2.961958 0,-0.453423 -5.11674,-7.632297 -7.78189,-10.918119 -0.97466,-1.201648 -1.77211,-2.261561 -1.77211,-2.355363 0,-0.824979 1.88289,0.824123 3.61976,3.170313 0.45926,0.620369 1.35306,1.730992 1.98622,2.468052 1.21886,1.418867 3.74288,5.583513 4.09087,6.74997 0.11378,0.38139 0.31724,0.693435 0.45213,0.693435 0.82617,0 5.88281,11.801296 6.53674,15.255577 0.16044,0.847532 0.41227,2.095716 0.55962,2.773746 0.64661,2.97545 0.70695,3.54422 0.37598,3.54422 -0.18401,0 -0.42088,-0.52008 -0.52639,-1.15573 z m -62.83401,-2.42756 c -0.10581,-0.27574 -0.0437,-0.68049 0.138,-0.89944 0.20469,-0.24664 0.30624,-1.884667 0.26693,-4.305718 -0.0497,-3.059248 0.0297,-3.965226 0.3658,-4.172918 0.72781,-0.449811 1.03189,0.227271 0.4802,1.06925 -0.72109,1.100537 -0.73283,6.818256 -0.0156,7.610766 0.27086,0.29931 0.40136,0.69161 0.29,0.8718 -0.31065,0.50265 -1.30941,0.38889 -1.52531,-0.17374 z m -17.879169,-0.0767 c -0.103322,-0.16718 -0.04691,-0.39108 0.125364,-0.49754 0.190756,-0.1179 0.31322,-2.095193 0.31322,-5.057192 0,-5.240959 0.507777,-8.188549 1.870919,-10.860534 0.820291,-1.607904 1.853368,-3.039284 2.193555,-3.039284 0.329154,0 0.324365,0.843442 -0.0055,0.975947 -0.418604,0.168129 -1.804871,3.344907 -2.398365,5.496116 -0.392475,1.422581 -0.601578,3.610268 -0.721382,7.54723 -0.147086,4.833607 -0.234129,5.556477 -0.679305,5.641597 -0.280832,0.0537 -0.59514,-0.0392 -0.698465,-0.20634 z m 19.616289,-9.955583 c 0.20159,-0.604762 1.04403,-0.981319 1.66051,-0.742213 0.53681,0.208203 0.52235,0.258223 -0.18925,0.654513 -0.95209,0.530216 -1.63228,0.570762 -1.47126,0.0877 z m 10.95946,-7.495441 0.0883,-6.934621 h -7.74865 c -7.979803,0 -9.845314,0.212268 -12.694815,1.444478 -0.637375,0.27562 -1.253214,0.406784 -1.368524,0.291471 -0.676047,-0.676047 2.826867,-2.15308 6.295841,-2.654699 2.823838,-0.408328 15.365238,-0.404433 16.130288,0.005 0.56197,0.300756 0.59613,0.712201 0.59613,7.180908 0,6.805657 -0.11125,7.601015 -1.06327,7.601804 -0.21904,1.82e-4 -0.29507,-2.2404 -0.2353,-6.934353 z M 89.197328,79.315568 c 0,-0.496833 0.820279,-0.967845 1.135887,-0.652236 0.219505,0.219501 -0.476947,1.124197 -0.865428,1.124197 -0.148753,0 -0.270459,-0.212382 -0.270459,-0.471961 z M 143.47979,67.811241 c -0.45281,-0.484729 -1.13254,-0.979479 -1.51052,-1.099446 -0.37798,-0.119967 -0.68724,-0.349913 -0.68724,-0.510992 0,-0.32564 -2.09223,-2.439195 -2.41496,-2.439575 -0.11258,-1.33e-4 -0.75944,-0.500213 -1.43746,-1.11129 -2.5811,-2.326239 -11.0579,-7.478072 -15.22918,-9.255635 -6.6741,-2.844125 -15.38902,-4.824542 -23.757297,-5.398715 -4.267719,-0.292822 -5.927436,-0.269031 -10.324482,0.14799 -2.881609,0.273296 -6.279442,0.725786 -7.55074,1.005536 -2.336002,0.514037 -11.243395,3.07408 -11.719295,3.368201 -0.427837,0.264419 -0.630863,-0.374816 -0.21981,-0.692089 1.344661,-1.037881 8.108358,-3.094621 13.325975,-4.052233 8.150772,-1.495945 16.658931,-1.499356 24.813069,-0.0099 5.5413,1.012156 8.97266,2.120183 16.48486,5.323166 6.57747,2.804444 11.05961,5.595036 17.06567,10.625144 2.64859,2.218213 4.66197,4.199217 4.66197,4.587013 0,0.651454 -0.62715,0.447863 -1.50056,-0.487127 z M 66.290952,53.388296 c -0.277762,-0.277763 0.385575,-1.029986 0.908277,-1.029986 0.522934,0 0.546471,0.371193 0.05472,0.862942 -0.417966,0.417966 -0.668601,0.461441 -0.963,0.167044 z"
         id="path1571" />
      <path
         style="fill:#fbfcfc;stroke-width:0.308193"
         d="m 117.24294,183.98309 c 0.42376,-0.34587 0.97851,-0.63568 1.23277,-0.64404 0.25426,-0.008 1.42379,-0.42526 2.59894,-0.92645 2.06532,-0.88084 2.58788,-0.96794 2.21818,-0.36975 -0.16996,0.275 -4.48293,1.96441 -6.04989,2.36978 l -0.77049,0.19932 z m -49.773252,-0.98502 c -1.356052,-0.50801 -2.668626,-1.12418 -2.916833,-1.36927 -0.763676,-0.75409 0.119296,-0.52298 2.833861,0.74175 1.401685,0.65305 2.75655,1.26619 3.01081,1.36254 0.410923,0.15571 0.410923,0.17592 0,0.18189 -0.25426,0.004 -1.571787,-0.40891 -2.927838,-0.91691 z m -5.393386,-2.75766 c 0,-0.17951 0.138687,-0.24067 0.308193,-0.13591 0.169507,0.10477 0.308194,0.25164 0.308194,0.32639 0,0.0747 -0.138687,0.1359 -0.308194,0.1359 -0.169506,0 -0.308193,-0.14687 -0.308193,-0.32638 z m 65.472968,-0.76209 c 0.32904,-0.24887 0.81444,-0.44808 1.07868,-0.44269 0.38409,0.008 0.36046,0.10054 -0.11781,0.46229 -0.32903,0.24887 -0.81444,0.44808 -1.07868,0.44269 -0.38409,-0.008 -0.36046,-0.10054 0.11781,-0.46229 z m 4.79515,-2.57657 c 0,-0.15432 0.4854,-0.56698 1.07867,-0.91702 1.40095,-0.82658 1.39776,-0.40656 -0.004,0.50133 -0.59117,0.38295 -1.07485,0.57001 -1.07485,0.41569 z M 53.364328,175.1623 c -0.632619,-0.42988 -1.150218,-0.92234 -1.150218,-1.09436 0,-0.25947 1.438034,0.63939 2.604235,1.6278 0.692425,0.58687 -0.389445,0.18995 -1.454017,-0.53344 z m 82.665922,-1.04424 c 0.1883,-0.35184 0.44249,-0.63972 0.56486,-0.63972 0.12237,0 0.98329,-0.62409 1.91318,-1.38687 1.64949,-1.35307 2.15854,-1.62592 2.1562,-1.15572 -0.002,0.28361 -3.27143,2.92957 -4.25984,3.44688 -0.67061,0.35099 -0.69472,0.33395 -0.3744,-0.26457 z m -86.259821,-1.69204 c -0.487394,-0.58728 -0.341545,-0.87669 0.255769,-0.50753 0.227632,0.14069 0.357234,0.42573 0.288001,0.63343 -0.08953,0.2686 -0.246527,0.23225 -0.54377,-0.1259 z m -2.41884,-1.89299 c -0.376729,-0.26387 -0.684961,-0.61059 -0.684961,-0.77048 0,-0.49368 0.987956,-0.32071 1.420141,0.24862 0.797472,1.05054 0.411137,1.32477 -0.73518,0.52186 z m 93.930441,-0.69435 c 0,-0.1655 0.21962,-0.38518 0.48804,-0.48818 0.30015,-0.11518 0.44105,-0.0463 0.36598,0.17891 -0.15357,0.4607 -0.85402,0.71435 -0.85402,0.30927 z m -97.303421,-2.60125 c -0.739106,-0.95566 -0.729526,-1.24426 0.01868,-0.56267 0.451099,0.41094 0.82018,0.79233 0.82018,0.84753 0,0.25474 -0.571671,0.0606 -0.838858,-0.28486 z M 145.59674,165.3478 c 0,-0.23414 0.52007,-0.81782 1.15572,-1.29706 0.63565,-0.47924 1.20232,-0.98221 1.25927,-1.1177 0.18083,-0.43022 3.49051,-4.63859 4.29491,-5.46112 l 0.77271,-0.79012 -0.71965,1.23277 c -0.74845,1.28213 -1.85692,2.77921 -4.42392,5.97491 -1.45275,1.80856 -2.33904,2.36114 -2.33904,1.45832 z M 41.290717,164.47216 c -0.717543,-1.02444 -0.584589,-1.23423 0.444815,-0.70191 0.955209,0.49396 1.264098,1.38687 0.479766,1.38687 -0.244648,0 -0.660709,-0.30823 -0.924581,-0.68496 z m -2.341411,-3.03669 c -0.313234,-0.58528 -0.287933,-0.61058 0.29735,-0.29735 0.657652,0.35197 0.871424,0.93707 0.342365,0.93707 -0.163543,0 -0.451415,-0.28787 -0.639715,-0.63972 z m -1.630811,-2.12871 c -0.986675,-1.17259 -1.931854,-2.89736 -1.499468,-2.73623 0.49932,0.18608 2.56842,3.06707 2.452497,3.41484 -0.05962,0.17885 -0.48848,-0.12652 -0.953029,-0.67861 z m 116.605645,-4.48157 c 0.21442,-0.25835 0.45332,-0.40627 0.53089,-0.3287 0.21373,0.21374 -0.22053,0.79844 -0.59299,0.79844 -0.20437,0 -0.18099,-0.17684 0.0621,-0.46974 z M 33.285775,153.17894 c -0.13276,-0.21481 -0.158152,-0.4738 -0.05643,-0.57553 0.275821,-0.27582 0.576558,0.12985 0.427583,0.57677 -0.104392,0.31318 -0.176985,0.31294 -0.371158,-0.001 z m 124.858855,-6.51823 c 0.17262,-0.6601 0.64071,-1.08622 0.904,-0.82294 0.21581,0.21581 -0.4629,1.44413 -0.79795,1.44413 -0.14767,0 -0.1954,-0.27953 -0.10605,-0.62119 z m 1.01096,-2.00946 c -0.002,-0.42504 1.89407,-5.17087 2.20623,-5.52107 0.46098,-0.51716 0.28836,0.38009 -0.51612,2.68268 -0.68891,1.97183 -1.68561,3.64568 -1.69011,2.83839 z M 28.570806,143.42866 c -0.549664,-1.0447 -2.251202,-6.40227 -2.446758,-7.70402 -0.300388,-1.99957 0.357752,-0.90634 1.113222,1.84917 0.371785,1.35605 0.955219,3.19137 1.29652,4.0785 0.630926,1.63993 0.658378,2.95732 0.03702,1.77635 z m -3.16995,-10.09251 c -2.32e-4,-0.0424 -0.208073,-1.25589 -0.461869,-2.6967 -0.253796,-1.4408 -0.461637,-2.88546 -0.461869,-3.21035 -8.63e-4,-1.19151 0.404229,-0.13664 0.785778,2.04626 0.215607,1.23352 0.488668,2.62416 0.606802,3.0903 0.137866,0.54401 0.09245,0.84753 -0.126817,0.84753 -0.187882,0 -0.341793,-0.0347 -0.342025,-0.077 z m 138.284944,-6.5921 c -0.24623,-0.24623 0.0321,-0.7275 0.42073,-0.7275 0.15951,0 0.29001,0.20803 0.29001,0.46229 0,0.47659 -0.36366,0.61229 -0.71074,0.26521 z M 24.173223,125.01492 c 0.0038,-0.56074 0.06189,-0.60497 0.303474,-0.23114 0.386142,0.59751 0.386142,0.92458 0,0.92458 -0.169507,0 -0.30607,-0.31205 -0.303474,-0.69344 z m 58.377897,-6.38424 c -0.163583,-0.16358 -1.878935,-0.33694 -3.811897,-0.38524 -5.173138,-0.12927 -4.68827,-0.70421 0.593883,-0.70421 3.318787,0 4.346696,0.095 4.468605,0.41305 0.318358,0.83055 -0.599828,1.32716 -1.250591,0.6764 z m 17.231138,-0.17816 c -0.100375,-0.26157 -0.09675,-0.56133 0.008,-0.66613 0.104801,-0.10481 2.765282,-0.15807 5.912182,-0.11837 4.12998,0.0521 5.84718,-0.032 6.17294,-0.30236 0.54124,-0.44919 0.89196,-0.19066 0.63826,0.47047 -0.15537,0.4049 -1.02865,0.47558 -5.87556,0.47558 -3.46293,0 -5.76768,0.12073 -5.88354,0.3082 -0.28232,0.4568 -0.764665,0.37377 -0.972326,-0.16739 z m 12.552802,-3.22274 c 0.006,-2.40447 1.04541,-12.88272 1.30305,-13.14036 0.43579,-0.43578 0.43962,0.13447 0.0293,4.35684 -0.23064,2.37309 -0.50981,5.49355 -0.6204,6.93436 -0.23876,3.1109 -0.71852,4.35708 -0.7119,1.84916 z m -88.47475,-1.06049 c 0,-0.26426 0.138687,-0.48048 0.308193,-0.48048 0.169507,0 0.308194,0.1305 0.308194,0.29001 0,0.1595 -0.138687,0.37571 -0.308194,0.48047 -0.169506,0.10477 -0.308193,-0.0257 -0.308193,-0.29 z m 0.312913,-3.94766 c -0.0026,-0.46614 0.133967,-0.84753 0.303474,-0.84753 0.389682,0 0.389682,0.62979 0,1.23278 -0.232805,0.36023 -0.299797,0.27519 -0.303474,-0.38525 z m 139.504197,-1.05299 c -0.35462,-0.35462 -0.22444,-0.71912 0.25683,-0.71912 0.25426,0 0.46229,0.20803 0.46229,0.46229 0,0.48127 -0.3645,0.61145 -0.71912,0.25683 z M 24.481416,107.44266 c -0.01021,-2.51208 2.931586,-13.777761 3.725979,-14.268726 0.39655,-0.245081 0.346572,0.0857 -0.352267,2.331462 -0.955221,3.069663 -2.761463,10.503494 -2.766764,11.386974 -0.0026,0.43267 -0.139159,0.9947 -0.303474,1.24896 -0.222093,0.34366 -0.299966,0.16438 -0.303474,-0.69867 z m 75.866494,-6.46683 c 0.0542,-0.38139 0.30651,-0.69343 0.56077,-0.69343 0.25426,0 0.50661,0.31204 0.56077,0.69343 0.0758,0.5337 -0.0534,0.69344 -0.56077,0.69344 -0.50739,0 -0.63657,-0.15974 -0.56077,-0.69344 z m 60.75354,-5.16224 c -0.17733,-0.593273 -0.88597,-2.396204 -1.57475,-4.006515 -0.68879,-1.610311 -1.33189,-3.343899 -1.42912,-3.852419 -0.0972,-0.508519 -0.0885,-0.71655 0.0194,-0.46229 0.10788,0.25426 0.37052,0.670321 0.58362,0.92458 0.5833,0.695929 2.96922,7.401319 2.8378,7.97532 -0.0687,0.300205 -0.24333,0.06897 -0.43691,-0.578676 z M 83.365984,90.086329 c 0.01479,-0.35903 0.08782,-0.432057 0.186198,-0.186201 0.08903,0.222475 0.07808,0.488292 -0.02432,0.590705 -0.102413,0.102409 -0.175251,-0.07962 -0.16187,-0.404504 z m 29.799516,-6.98572 -0.0832,-6.549111 -7.55074,-0.154097 c -4.1529,-0.08475 -7.296694,-0.258112 -6.986192,-0.385242 0.990093,-0.405379 14.519132,-0.279772 14.937582,0.138687 0.46835,0.46835 0.53377,13.498874 0.0678,13.498874 -0.1852,0 -0.33424,-2.533667 -0.38524,-6.549111 z M 31.595696,85.41206 c 0.715381,-1.675534 1.40409,-2.536608 1.047627,-1.309822 -0.228967,0.788001 -1.341951,2.773741 -1.55465,2.773741 -0.0649,0 0.163256,-0.658763 0.507023,-1.463919 z m 125.301464,0.333875 c -0.113,-0.113002 -0.20546,-0.34877 -0.20546,-0.523929 0,-0.193114 0.14355,-0.174918 0.3647,0.04623 0.20058,0.200585 0.29304,0.436353 0.20546,0.523929 -0.0876,0.08758 -0.25169,0.06678 -0.3647,-0.04623 z M 33.095082,82.611922 c 0.203041,-0.395905 0.453689,-0.635307 0.556996,-0.532 0.103307,0.103306 -0.06282,0.42723 -0.369165,0.719832 -0.532482,0.508587 -0.540749,0.500321 -0.187831,-0.187832 z m 1.552,-2.814719 c 0,-0.484221 2.332997,-3.737989 3.874071,-5.403059 1.518813,-1.641019 1.308283,-1.138028 -0.773974,1.84916 -0.708939,1.017039 -1.571494,2.299894 -1.916788,2.85079 -0.608672,0.971102 -1.183309,1.312544 -1.183309,0.703109 z M 153.0649,78.939997 c -0.92868,-1.341221 -1.12903,-1.736547 -0.76655,-1.512521 0.34279,0.211852 1.68639,2.360053 1.47611,2.360053 -0.0675,0 -0.3868,-0.381389 -0.70956,-0.847532 z M 95.900537,76.501484 c 0.211883,-0.0855 0.5586,-0.0855 0.770483,0 0.211883,0.0855 0.03852,0.15545 -0.385242,0.15545 -0.423766,0 -0.597124,-0.06995 -0.385241,-0.15545 z m 54.935483,-0.566373 c -0.21781,-0.262452 -0.32668,-0.546529 -0.24193,-0.631282 0.0848,-0.08475 0.33231,0.06064 0.55013,0.323088 0.21781,0.262452 0.32668,0.546529 0.24193,0.631282 -0.0847,0.08475 -0.33231,-0.06064 -0.55013,-0.323088 z m -2.26008,-2.825107 c -0.113,-0.113004 -0.20546,-0.348772 -0.20546,-0.523929 0,-0.193115 0.14354,-0.174919 0.36469,0.04623 0.20059,0.200583 0.29304,0.436351 0.20547,0.523929 -0.0876,0.08758 -0.2517,0.06677 -0.3647,-0.04623 z M 41.119145,71.593698 c 0,-0.541498 0.860877,-1.526601 1.113405,-1.274073 0.131572,0.131572 -0.06512,0.543563 -0.437092,0.915535 -0.371972,0.371973 -0.676313,0.533315 -0.676313,0.358538 z m 2.118212,-2.824085 c 0.447866,-0.830823 1.860464,-2.05678 2.097167,-1.820077 0.116212,0.116212 -0.257165,0.694622 -0.829726,1.285355 -1.115485,1.150889 -1.742104,1.415253 -1.267441,0.534722 z M 143.74757,67.613887 c -0.21401,-0.257878 -0.24739,-0.46229 -0.0755,-0.46229 0.16951,0 0.48084,0.208031 0.69186,0.46229 0.21402,0.257878 0.24739,0.46229 0.0755,0.46229 -0.16951,0 -0.48085,-0.20803 -0.69187,-0.46229 z m -2.26008,-1.284139 c -0.36191,-0.361913 -0.21962,-1.335505 0.19519,-1.335505 0.51539,0 1.14031,0.624921 1.14031,1.140315 0,0.414808 -0.97359,0.557102 -1.3355,0.19519 z M 46.974821,65.357307 c 0,-0.303715 1.01942,-1.287645 1.33409,-1.287645 0.467273,0 0.157039,0.578152 -0.563606,1.050337 -0.423766,0.277662 -0.770484,0.384451 -0.770484,0.237308 z m 91.042059,-2.674139 c -0.49251,-0.423559 -0.75678,-0.769588 -0.58727,-0.768953 0.43161,0.0016 2.23354,1.51439 1.82005,1.527977 -0.18552,0.0061 -0.74027,-0.335465 -1.23278,-0.759024 z M 51.781101,61.254696 c 0.800478,-0.896607 6.259059,-4.455178 7.213266,-4.702488 0.701356,-0.181776 0.718485,-0.164576 0.190932,0.191704 -0.318755,0.215269 -1.414411,0.995865 -2.43479,1.734658 -2.296596,1.662824 -5.050564,3.433738 -5.339844,3.433738 -0.119166,0 0.04753,-0.295925 0.370436,-0.657612 z m 84.453139,0.101747 c -0.22394,-0.36234 -5.64887,-4.065032 -5.96696,-4.072645 -0.20379,-0.0049 -1.08049,-0.547295 -3.35643,-2.07665 -0.31691,-0.212956 0.46079,0.116706 1.72824,0.732584 2.34582,1.13988 7.49683,4.450762 7.87408,5.061175 0.11422,0.184813 0.13833,0.405366 0.0536,0.49012 -0.0848,0.08475 -0.23438,0.02419 -0.33251,-0.134584 z m -74.774325,-6.06238 c 0,-0.170247 1.500122,-0.969143 2.617552,-1.39399 1.350578,-0.513488 0.832347,-0.03109 -0.82607,0.768959 -1.701853,0.821001 -1.791482,0.852272 -1.791482,0.625031 z m 63.641955,-0.778398 c -0.10476,-0.169507 -0.0518,-0.308194 0.11772,-0.308194 0.16951,0 0.3939,0.138687 0.49867,0.308194 0.10476,0.169506 0.0518,0.308193 -0.11772,0.308193 -0.16951,0 -0.39391,-0.138687 -0.49867,-0.308193 z M 72.522286,50.481138 c 0.744851,-0.330472 2.68647,-0.935426 4.314708,-1.344342 4.249465,-1.06721 4.963691,-1.186832 4.963691,-0.831339 0,0.170957 -0.797451,0.472449 -1.772113,0.669982 -0.974662,0.197533 -3.142347,0.762114 -4.817076,1.254624 -3.473141,1.021392 -4.679231,1.133997 -2.68921,0.251075 z m 43.746744,0.492343 c -0.21657,-0.21657 -7.03103,-1.872456 -10.01157,-2.432769 -4.69667,-0.88293 -11.767106,-1.236737 -16.723791,-0.836862 -2.473324,0.199532 -4.947686,0.442382 -5.498582,0.539665 -1.129886,0.199527 -1.406638,-0.344912 -0.308193,-0.606291 0.381389,-0.09075 2.779243,-0.327247 5.328564,-0.525543 8.227946,-0.640001 18.032852,0.407877 25.025872,2.674588 2.20758,0.715563 3.44553,1.339267 2.65822,1.339267 -0.17516,0 -0.38689,-0.06842 -0.47052,-0.152055 z"
         id="path1569" />
      <path
         style="fill:#fafafc;stroke-width:0.308193"
         d="m 47.360063,170.48263 c -0.462683,-0.16524 -0.519045,-1.0108 -0.06738,-1.0108 0.317907,0 0.785,0.86367 0.56774,1.04977 -0.06332,0.0542 -0.288481,0.0367 -0.500364,-0.039 z m 98.406127,-4.99247 c -0.19163,-0.31007 0.6261,-1.25762 1.08533,-1.25762 0.36821,0 0.36094,0.20904 -0.0328,0.94484 -0.34324,0.64134 -0.77088,0.76843 -1.05248,0.31278 z M 41.757397,164.72118 c -0.487393,-0.58728 -0.341543,-0.87669 0.255769,-0.50753 0.227635,0.14069 0.357236,0.42573 0.288004,0.63343 -0.08953,0.2686 -0.246529,0.23225 -0.543773,-0.1259 z M 163.78015,126.32474 c 0,-0.1695 0.13869,-0.30819 0.30819,-0.30819 0.16951,0 0.3082,0.13869 0.3082,0.30819 0,0.16951 -0.13869,0.3082 -0.3082,0.3082 -0.1695,0 -0.30819,-0.13869 -0.30819,-0.3082 z m -81.022746,-7.67845 c -0.516175,-0.32684 -0.205535,-1.36763 0.353266,-1.1836 0.428645,0.14117 0.72795,1.46814 0.329465,1.46069 -0.138918,-0.002 -0.446147,-0.12729 -0.682731,-0.27709 z m 16.977173,-0.56572 c 0.05713,-0.29664 0.308103,-0.53934 0.557713,-0.53934 0.24962,0 0.50059,0.2427 0.55772,0.53934 0.0729,0.37841 -0.0935,0.53934 -0.55772,0.53934 -0.464182,0 -0.630588,-0.16093 -0.557713,-0.53934 z m 64.045573,-9.32285 c 0,-0.16951 0.13869,-0.3082 0.30819,-0.3082 0.16951,0 0.3082,0.13869 0.3082,0.3082 0,0.1695 -0.13869,0.30819 -0.3082,0.30819 -0.1695,0 -0.30819,-0.13869 -0.30819,-0.30819 z m -63.27597,-7.28749 c -0.42341,-0.42342 -0.20379,-1.07738 0.32745,-0.97507 0.29664,0.0571 0.53934,0.29844 0.53934,0.53626 0,0.48659 -0.54374,0.76185 -0.86679,0.43881 z m 41.14768,-35.304852 c -0.54334,-0.543344 -0.45203,-0.862942 0.24655,-0.862942 0.41093,0 0.61639,0.205463 0.61639,0.616387 0,0.698585 -0.3196,0.789898 -0.86294,0.246555 z"
         id="path1567" />
      <path
         style="fill:#fafafa;stroke-width:0.308193"
         d="m 47.30488,170.26866 c -0.229842,-0.27694 -0.326477,-0.59495 -0.214743,-0.70668 0.28783,-0.28783 0.903504,0.39762 0.755623,0.84126 -0.085,0.25501 -0.252048,0.21344 -0.54088,-0.13458 z m 98.60005,-5.0738 c 0,-0.39411 0.90621,-1.08343 1.13004,-0.85959 0.22384,0.22384 -0.46548,1.13004 -0.85958,1.13004 -0.14876,0 -0.27046,-0.1217 -0.27046,-0.27045 z M 41.757397,164.72118 c -0.487393,-0.58728 -0.341543,-0.87669 0.255769,-0.50753 0.227635,0.14069 0.357236,0.42573 0.288004,0.63343 -0.08953,0.2686 -0.246529,0.23225 -0.543773,-0.1259 z m 41.044916,-45.99719 c -0.618405,-0.24953 -0.44333,-1.02866 0.231146,-1.02866 0.410923,0 0.616387,0.20546 0.616387,0.61638 0,0.62289 -0.147619,0.6947 -0.847533,0.41228 z m 17.087434,-0.30117 c -0.287619,-0.28762 0.05995,-0.72749 0.574833,-0.72749 0.24426,0 0.4441,0.20803 0.4441,0.46229 0,0.46421 -0.65059,0.63354 -1.018933,0.2652 z m 0.569803,-17.34864 c -0.0975,-0.1578 -0.0364,-0.37402 0.13591,-0.48048 0.36779,-0.22731 0.92961,0.0612 0.92961,0.47737 0,0.37501 -0.83417,0.37744 -1.06552,0.003 z m 41.12449,-35.008708 c -0.21442,-0.258356 -0.30672,-0.552863 -0.20513,-0.654461 0.31561,-0.315608 1.13589,0.155404 1.13589,0.652236 0,0.603633 -0.43078,0.604663 -0.93076,0.0022 z"
         id="path1565" />
      <path
         style="fill:#f8f8fa;stroke-width:0.308193"
         d="m 145.96272,165.13786 c 0.0742,-0.22248 0.31686,-0.46518 0.53933,-0.53934 0.23115,-0.0771 0.34672,0.0385 0.26967,0.26967 -0.0742,0.22248 -0.31686,0.46518 -0.53934,0.53934 -0.23114,0.077 -0.34671,-0.0385 -0.26966,-0.26967 z M 82.630912,118.42282 c -0.287619,-0.28762 0.05995,-0.72749 0.574833,-0.72749 0.244256,0 0.444101,0.20803 0.444101,0.46229 0,0.46421 -0.650594,0.63354 -1.018934,0.2652 z m 17.197745,-0.11328 c -0.105498,-0.17071 0.03098,-0.39587 0.303303,-0.50037 0.59008,-0.22643 0.91894,0.0231 0.6353,0.48204 -0.25592,0.41408 -0.68879,0.42254 -0.938603,0.0183 z m 0.677473,-17.14555 c -0.24622,-0.24623 0.0321,-0.7275 0.42074,-0.7275 0.1595,0 0.29,0.20803 0.29,0.46229 0,0.4766 -0.36365,0.61229 -0.71074,0.26521 z m 41.08409,-35.424946 c 0,-0.268386 0.16469,-0.433077 0.36598,-0.36598 0.57146,0.190486 0.66624,0.853953 0.12199,0.853953 -0.26838,0 -0.48797,-0.219588 -0.48797,-0.487973 z"
         id="path1563" />
      <path
         style="fill:#f6f8fa;stroke-width:0.308193"
         d="m 82.869796,118.29624 c -0.292849,-0.47385 0.108283,-0.77957 0.503847,-0.38401 0.221338,0.22134 0.226654,0.39373 0.01615,0.52382 -0.172564,0.10665 -0.406566,0.0437 -0.520006,-0.13981 z M 99.9841,118.17581 c 0,-0.26427 0.13869,-0.48048 0.30819,-0.48048 0.16951,0 0.3082,0.1305 0.3082,0.29 0,0.1595 -0.13869,0.37572 -0.3082,0.48048 -0.1695,0.10476 -0.30819,-0.0257 -0.30819,-0.29 z m 0.61639,-17.12293 c 0,-0.16951 0.13868,-0.30819 0.30819,-0.30819 0.16951,0 0.30819,0.13868 0.30819,0.30819 0,0.16951 -0.13868,0.30819 -0.30819,0.30819 -0.16951,0 -0.30819,-0.13868 -0.30819,-0.30819 z"
         id="path1561" />
    </g>
  </g>
</svg>
