<?xml version="1.0" encoding="UTF-8" standalone="no"?>
<!-- Created with Inkscape (http://www.inkscape.org/) -->

<svg
   width="210mm"
   height="297mm"
   viewBox="0 0 210 297"
   version="1.1"
   id="svg5"
   inkscape:version="1.1.1 (3bf5ae0d25, 2021-09-20)"
   sodipodi:docname="in.svg"
   xmlns:inkscape="http://www.inkscape.org/namespaces/inkscape"
   xmlns:sodipodi="http://sodipodi.sourceforge.net/DTD/sodipodi-0.dtd"
   xmlns="http://www.w3.org/2000/svg"
   xmlns:svg="http://www.w3.org/2000/svg">
  <sodipodi:namedview
     id="namedview7"
     pagecolor="#ffffff"
     bordercolor="#111111"
     borderopacity="1"
     inkscape:pageshadow="0"
     inkscape:pageopacity="0"
     inkscape:pagecheckerboard="1"
     inkscape:document-units="mm"
     showgrid="false"
     inkscape:zoom="0.64052329"
     inkscape:cx="397.33138"
     inkscape:cy="561.25984"
     inkscape:window-width="1920"
     inkscape:window-height="1001"
     inkscape:window-x="-9"
     inkscape:window-y="-9"
     inkscape:window-maximized="1"
     inkscape:current-layer="layer1" />
  <defs
     id="defs2" />
  <g
     inkscape:label="Слой 1"
     inkscape:groupmode="layer"
     id="layer1">
    <g
       id="g2244"
       transform="translate(0.50052214,-0.1477015)">
      <path
         style="fill:#fefefe;stroke-width:0.339029"
         d="m 94.829135,227.14589 c -0.279699,-0.0548 -1.652765,-0.28242 -3.051259,-0.50583 -9.669307,-1.54466 -19.825545,-5.16618 -28.139388,-10.03397 -2.570709,-1.50516 -7.999545,-5.31329 -9.861279,-6.91733 -2.134587,-1.83912 -10.817023,-10.58353 -10.818456,-10.89567 -5.76e-4,-0.12221 -0.558756,-0.88502 -1.240434,-1.69515 -0.681677,-0.81012 -2.235496,-2.99857 -3.45293,-4.86323 -5.505486,-8.43236 -9.809508,-19.36542 -11.211112,-28.47842 -0.401506,-2.61052 -0.886167,-5.28037 -1.077025,-5.933 -0.212125,-0.72535 -0.29875,-4.54715 -0.22285,-9.83183 0.11378,-7.92219 0.212858,-9.12727 1.18464,-14.40873 0.890928,-4.84202 2.528044,-10.73901 3.764836,-13.56115 0.163436,-0.37293 0.646913,-1.59343 1.074392,-2.71223 0.977576,-2.5585 4.929512,-10.2837 5.72335,-11.18794 0.327398,-0.37294 0.898535,-1.21203 1.269192,-1.86466 2.610306,-4.596068 10.812475,-13.433281 16.456032,-17.730126 5.983879,-4.555957 7.355624,-5.447983 11.971446,-7.784879 8.995301,-4.554134 15.800924,-6.760776 25.427158,-8.244453 4.387798,-0.676285 19.633062,-0.649455 23.901532,0.04206 3.92341,0.635619 9.90372,2.001176 12.88309,2.941753 3.15413,0.995751 10.21866,4.032489 13.39164,5.756491 1.49172,0.810513 3.1292,1.684938 3.63883,1.943167 0.50964,0.258228 1.20815,0.731804 1.55226,1.05239 0.34411,0.320586 1.23587,0.968094 1.98168,1.438907 2.86257,1.807057 8.22949,6.387742 11.64332,9.937604 3.69065,3.837705 7.08702,8.177686 10.06028,12.855306 5.16895,8.13192 10.07937,21.70732 10.78996,29.82999 0.1305,1.49173 0.37952,2.88636 0.55338,3.09919 0.5064,0.61989 0.12211,17.67668 -0.49771,22.091 -1.01213,7.2084 -3.58535,15.23938 -7.35403,22.9519 -5.86777,12.00823 -14.39269,21.74647 -26.33695,30.08535 -4.68603,3.27155 -14.47129,7.96173 -19.31519,9.25797 -12.50796,3.34716 -13.98523,3.55306 -25.14453,3.50449 -4.969435,-0.0216 -9.264176,-0.0842 -9.543875,-0.13897 z m -12.287762,-68.05124 0.08678,-27.03754 h -8.138718 -8.138721 v 26.71546 c 0,20.54859 0.09534,26.81081 0.413012,27.12848 0.305824,0.30582 2.395455,0.38941 8.051933,0.32208 l 7.638922,-0.0909 z m 29.239197,9.40805 0.16952,-17.6295 0.79656,-1.61761 c 2.13464,-4.33495 5.92422,-6.31173 11.30453,-5.89683 4.61731,0.35606 6.72728,1.92453 8.49068,6.31162 0.73847,1.8372 0.76009,2.28238 0.93105,19.17135 l 0.17502,17.29046 h 8.13669 8.13669 V 168.5027 c 0,-17.32113 -0.0138,-17.68584 -0.79085,-20.85027 -1.08948,-4.43695 -1.27294,-4.87862 -3.33201,-8.02135 -3.33396,-5.08861 -8.06207,-7.96792 -14.38042,-8.75734 -2.70107,-0.33748 -8.233,0.81474 -10.54248,2.19583 -1.46677,0.87714 -5.31621,4.40014 -5.52432,5.05585 -0.27455,0.86503 -1.66951,1.51553 -2.69696,1.25765 -0.86951,-0.21823 -0.8737,-0.23636 -0.8737,-3.77865 v -3.55937 l -8.22144,0.0908 -8.221452,0.0908 -0.08762,26.61376 c -0.04819,14.63756 -0.01376,26.80723 0.07648,27.0437 0.127536,0.33415 1.959786,0.40968 8.224312,0.33903 l 8.06021,-0.0909 z M 78.731876,121.1156 c 2.750252,-1.40282 4.77244,-4.13231 5.139517,-6.93717 0.336164,-2.56864 -2.109132,-6.36676 -5.146125,-7.99314 -2.08323,-1.11561 -5.826246,-1.01501 -8.347905,0.22436 -1.998053,0.98203 -3.923044,3.25677 -4.740534,5.60182 -1.25242,3.59269 1.896072,8.41491 6.475185,9.91737 1.545364,0.50704 4.820128,0.10474 6.619862,-0.81324 z"
         id="path2262" />
      <path
         style="fill:#fcfcfc;stroke-width:0.339029"
         d="m 96.450018,227.13692 c -0.115575,-0.11558 -2.320171,-0.57456 -4.899098,-1.01995 -4.38411,-0.75715 -6.638112,-1.28726 -9.096335,-2.13934 -0.559398,-0.1939 -2.501578,-0.81968 -4.315959,-1.39062 -10.935945,-3.44128 -23.624885,-11.89466 -31.952683,-21.28691 -1.775515,-2.00246 -3.230846,-3.79342 -3.234067,-3.97991 -0.0032,-0.1865 -0.405324,-0.71828 -0.893562,-1.18174 -1.476997,-1.40205 -5.355331,-7.4414 -7.411301,-11.54089 -3.37537,-6.7303 -6.392105,-15.37247 -6.742537,-19.31564 -0.07457,-0.83909 -0.170232,-1.52563 -0.212579,-1.52563 -0.04235,0 -0.13301,-0.30512 -0.201475,-0.67805 -0.780467,-4.25131 -1.181914,-6.04637 -1.474448,-6.59298 -0.567804,-1.06095 -0.458895,-15.46221 0.123935,-16.38815 0.259954,-0.41299 0.580325,-1.66626 0.711937,-2.78506 0.131611,-1.11879 0.331247,-2.18405 0.443636,-2.36724 0.225389,-0.36737 0.266469,-0.59164 0.560007,-3.05722 0.278434,-2.33872 1.730287,-7.69895 2.702246,-9.97666 0.443429,-1.03914 1.149331,-2.80472 1.568672,-3.92352 0.419341,-1.11879 1.68316,-3.78864 2.808486,-5.933 7.06623,-13.465 17.704553,-24.372304 31.310628,-32.102291 2.086498,-1.185398 4.374942,-2.364956 5.085431,-2.62124 0.71049,-0.256285 2.283458,-0.914951 3.495485,-1.463704 2.736936,-1.239164 6.129864,-2.342819 8.136691,-2.646712 0.839096,-0.127064 1.678192,-0.345059 1.864658,-0.484434 0.444514,-0.332255 5.760713,-1.579242 8.984263,-2.107382 4.023186,-0.659151 17.720781,-0.571455 21.955341,0.140565 3.65135,0.613957 7.24274,1.441721 8.38773,1.933254 0.37294,0.160095 1.97485,0.594929 3.55981,0.966297 3.4882,0.817314 10.5984,3.821593 15.43267,6.520779 10.84972,6.057873 20.85178,15.62885 28.16275,26.948948 3.25176,5.03494 6.96913,13.53127 8.97421,20.51124 0.83664,2.91246 1.61929,8.01725 1.30672,8.52301 -0.13655,0.22094 -0.0333,0.61671 0.2295,0.87948 0.26278,0.26278 0.47778,0.89541 0.47778,1.40585 0,0.51044 0.22399,1.22422 0.49776,1.58617 0.73414,0.97062 0.75324,15.98408 0.0216,16.95144 -0.27376,0.36195 -0.50261,1.13525 -0.50854,1.71843 -0.006,0.58318 -0.23642,1.24759 -0.5122,1.47647 -0.33442,0.27755 -0.40409,0.60188 -0.20919,0.97384 0.54251,1.03532 -0.92839,8.34187 -2.50103,12.42371 -0.43105,1.11879 -1.20461,3.17839 -1.71902,4.57689 -1.22935,3.34212 -3.90916,8.69387 -5.94173,11.866 -7.59735,11.85678 -17.48564,21.19853 -29.30252,27.68295 -2.56038,1.40498 -9.42504,4.43829 -11.44017,5.05511 -0.98008,0.29999 -2.92618,0.90102 -4.32467,1.33562 -7.24655,2.25198 -12.26227,2.97235 -21.71466,3.11872 -4.39119,0.068 -8.078554,0.0291 -8.194132,-0.0865 z m 15.095302,-2.18894 c 0.78202,-0.18109 2.71864,-0.55579 4.3036,-0.83267 5.94257,-1.03812 9.74342,-1.93949 12.37455,-2.93461 1.49173,-0.5642 3.85645,-1.46245 5.25494,-1.99613 3.36421,-1.28381 10.16008,-4.81997 12.08092,-6.28617 0.8427,-0.64325 1.74175,-1.16954 1.9979,-1.16954 0.25615,0 0.58773,-0.19154 0.73685,-0.42564 0.14911,-0.23411 1.4844,-1.32895 2.96731,-2.43299 3.27645,-2.43936 10.20477,-9.26223 12.93354,-12.73669 1.09834,-1.39849 2.08502,-2.619 2.19262,-2.71223 0.1076,-0.0932 0.28039,-0.39836 0.384,-0.67806 0.1036,-0.2797 0.87378,-1.42392 1.71152,-2.54271 0.83773,-1.1188 1.63712,-2.41558 1.77642,-2.88175 0.13929,-0.46616 0.44742,-1.07641 0.68472,-1.35611 0.50597,-0.59637 3.21766,-5.8877 3.21766,-6.27864 0,-0.27316 1.46014,-3.5895 2.04788,-4.65125 0.28698,-0.51842 1.32241,-4.09832 2.91836,-10.0899 0.75608,-2.83848 1.79058,-8.91066 2.19485,-12.88309 0.66116,-6.49654 -0.45551,-13.67433 -4.22899,-27.18326 -0.48886,-1.75009 -2.03813,-5.47185 -4.13793,-9.94039 -1.2135,-2.58242 -3.47676,-6.57317 -4.67283,-8.23946 -0.58929,-0.82096 -1.45284,-2.07265 -1.919,-2.78153 -2.79418,-4.248999 -11.67033,-13.204185 -16.61241,-16.76033 -3.77951,-2.719598 -6.48909,-4.346769 -11.16675,-6.705933 -2.87857,-1.45179 -5.70098,-2.778646 -6.27204,-2.948567 -0.57105,-0.169922 -2.79737,-0.916496 -4.94737,-1.659054 -4.52507,-1.562851 -10.40593,-2.762016 -18.80584,-3.834696 -2.81092,-0.358959 -9.409462,-0.13396 -11.187949,0.381489 -0.97284,0.281953 -5.704851,1.124633 -9.66232,1.720675 -1.025562,0.154461 -3.619132,0.905094 -5.763489,1.668073 -2.144357,0.762979 -4.367294,1.510898 -4.939863,1.662043 -1.385533,0.365747 -12.350605,5.827015 -12.350605,6.151345 0,0.139677 -0.572111,0.538585 -1.271358,0.886463 -2.227585,1.10823 -8.12708,5.807103 -11.987404,9.547816 -3.641214,3.528392 -7.159456,7.647936 -9.462577,11.079836 -0.62568,0.93233 -1.388413,1.92399 -1.694962,2.20369 -0.30655,0.2797 -0.737587,1.0326 -0.95786,1.67313 -0.220274,0.64052 -0.605776,1.40333 -0.856672,1.69514 -1.000623,1.16378 -6.315929,12.63232 -6.315929,13.62753 0,0.26564 -0.370121,1.62298 -0.822492,3.0163 -1.248147,3.84434 -2.295279,8.34907 -2.598473,11.17854 -0.149857,1.3985 -0.463549,3.61066 -0.697094,4.91592 -0.534068,2.98485 -0.534159,7.52176 -2.03e-4,10.17086 0.225505,1.1188 0.536264,3.33096 0.690575,4.91592 0.29627,3.04306 1.573866,8.65157 2.734424,12.00384 0.381295,1.10137 0.693263,2.22002 0.693263,2.48589 0,0.44868 0.983128,2.83303 2.928178,7.10163 0.440626,0.96699 0.801139,1.84891 0.801139,1.95981 0,0.1109 0.632785,1.30304 1.406189,2.6492 0.773404,1.34616 1.638248,2.90525 1.921876,3.46464 1.63613,3.22693 8.220823,11.3573 12.66084,15.63282 2.911751,2.80387 10.906346,9.09079 12.150483,9.5551 0.279699,0.10438 0.587825,0.30562 0.684726,0.4472 0.436483,0.63773 10.763238,5.4843 14.721223,6.90897 4.887252,1.75917 12.459609,3.4607 20.361586,4.57531 2.413188,0.34039 9.782628,0.12944 11.800268,-0.33778 z M 64.356134,187.87504 c -0.278831,-0.33597 -0.358977,-8.25927 -0.295786,-29.24123 l 0.08668,-28.78039 h 10.340378 10.340377 l 0.08668,28.78039 c 0.06319,20.98196 -0.01695,28.90526 -0.295786,29.24123 -0.306146,0.36888 -2.327741,0.46084 -10.131274,0.46084 -7.803534,0 -9.825129,-0.092 -10.131275,-0.46084 z m 18.228468,-1.0172 c 0.278702,-0.33582 0.359001,-7.90595 0.295786,-27.88512 l -0.08677,-27.42416 -8.112803,-0.091 c -6.264211,-0.0703 -8.174997,0.007 -8.385768,0.33903 -0.457628,0.72099 -0.351024,53.64666 0.110096,54.65871 l 0.393446,0.86352 h 7.70173 c 6.078983,0 7.782335,-0.0971 8.084287,-0.46095 z m 10.549389,-27.85285 v -29.33088 l 10.425139,0.0896 10.42513,0.0897 0.16951,2.47707 0.16952,2.47707 1.25001,-1.49901 c 0.81723,-0.98004 2.03524,-1.87773 3.51806,-2.59288 4.0719,-1.96385 5.26155,-2.2047 10.82725,-2.19206 4.39511,0.01 5.38458,0.11602 7.28912,0.78119 6.47569,2.26168 10.54588,6.09392 12.82655,12.07671 2.34603,6.15426 2.25545,5.07313 2.25796,26.95167 l 0.002,19.83318 h -10.50989 -10.50989 l -0.17603,-17.29046 -0.17604,-17.29047 -0.89444,-2.31797 c -1.29418,-3.35386 -2.61596,-4.57869 -5.68536,-5.26834 -2.15157,-0.48342 -6.23042,0.88089 -7.32978,2.45169 -1.50112,2.14485 -2.17712,3.36972 -2.49853,4.52711 -0.22752,0.81933 -0.35768,7.31658 -0.35888,17.91493 -0.001,12.47976 -0.10341,16.73088 -0.40873,17.03619 -0.29822,0.29823 -3.104,0.40684 -10.50989,0.40684 H 93.134093 v -29.33089 z m 18.777109,27.47816 c 0.48543,-0.74088 0.54774,-2.74987 0.54942,-17.71426 10e-4,-11.07734 0.12819,-17.33349 0.36936,-18.20208 0.24827,-0.8942 1.09991,-2.06764 2.62558,-3.6177 2.75778,-2.80187 4.8309,-3.58869 8.50328,-3.22729 4.09627,0.40311 6.52842,2.34158 8.21456,6.54713 0.77645,1.93659 0.78831,2.17208 0.97835,19.42035 0.10581,9.60299 0.22261,17.49812 0.25957,17.54473 0.037,0.0466 3.73248,0.0848 8.21228,0.0848 h 8.14508 l 0.3542,-0.93161 c 0.2368,-0.62284 0.30616,-6.83121 0.20927,-18.73134 -0.13397,-16.45381 -0.198,-18.03676 -0.84676,-20.93453 -1.76336,-7.87614 -7.16846,-13.87076 -14.06019,-15.59369 -3.2229,-0.80572 -8.31841,-0.71349 -11.63829,0.21067 -3.13718,0.8733 -6.67737,3.26525 -8.4365,5.70018 -1.04374,1.4447 -1.93212,2.0132 -2.54962,1.63157 -0.19013,-0.11751 -0.34206,-1.60291 -0.34206,-3.34437 0,-1.9847 -0.14911,-3.28206 -0.40683,-3.53979 -0.29401,-0.294 -2.68157,-0.40683 -8.60896,-0.40683 -7.16652,0 -8.228114,0.0677 -8.407918,0.53627 -0.375098,0.97748 -0.234398,54.03847 0.145169,54.7477 0.3316,0.6196 0.787625,0.65577 8.267209,0.65577 h 7.91626 z M 69.66012,124.08513 c -1.658728,-0.60928 -3.655035,-2.23508 -4.937927,-4.02147 -2.870482,-3.99708 -1.812708,-12.88621 1.768676,-14.8633 0.433462,-0.23929 1.456488,-0.8103 2.273395,-1.26891 1.286038,-0.72198 2.014994,-0.8517 5.433963,-0.967 3.729513,-0.12578 4.064467,-0.0812 6.034875,0.80306 2.506165,1.1247 4.797742,3.50907 5.58057,5.80654 0.325616,0.95563 0.539744,2.71745 0.539744,4.44093 0,2.38925 -0.142579,3.1424 -0.871077,4.60125 -1.201694,2.40646 -2.670665,3.85923 -5.061927,5.0061 -1.874683,0.89912 -2.326568,0.97376 -5.763489,0.95199 -2.2624,-0.0143 -4.227879,-0.20675 -4.996803,-0.48919 z m 9.4861,-2.52689 c 2.266414,-0.98221 3.971213,-2.86774 4.645345,-5.13779 0.673576,-2.26816 0.664412,-3.36413 -0.04699,-5.62096 -0.846162,-2.68433 -3.348289,-4.96761 -6.060855,-5.53073 -2.449096,-0.50844 -5.755278,-0.24442 -7.69735,0.61466 -2.80269,1.23978 -4.991768,4.74685 -4.991768,7.99719 0,3.44333 2.722191,7.0999 6.092137,8.18324 2.15269,0.69203 5.82802,0.46146 8.059481,-0.50561 z"
         id="path2260" />
      <path
         style="fill:#fafcfc;stroke-width:0.339029"
         d="m 96.501638,226.85282 c -0.640177,-0.20691 -1.16396,-0.5748 -1.16396,-0.81753 0,-0.35151 1.862787,-0.44132 9.153772,-0.44132 7.01673,0 9.15378,0.0973 9.15378,0.41693 0,0.22931 -0.45769,0.55905 -1.01708,0.73275 -1.5207,0.47219 -14.726753,0.56159 -16.126512,0.10917 z m -6.418906,-1.21522 c -3.515701,-0.6611 -5.895239,-1.23522 -6.95009,-1.67687 -0.372931,-0.15613 -2.111749,-0.69289 -3.864039,-1.19278 -3.467695,-0.98925 -9.341026,-3.50508 -12.676815,-5.43009 -8.787378,-5.07099 -17.426081,-12.26427 -22.207912,-18.49209 -0.787445,-1.02556 -1.620339,-2.08886 -1.850876,-2.3629 -4.120645,-4.89807 -7.929486,-11.40619 -10.525206,-17.98429 -1.450092,-3.67484 -3.672753,-10.60539 -3.565759,-11.1185 0.02678,-0.12843 -0.06907,-0.6527 -0.213003,-1.16507 -0.14393,-0.51236 -0.158696,-1.1989 -0.03281,-1.52563 0.216003,-0.56064 0.248353,-0.55936 0.575115,0.0228 0.190431,0.33925 0.390808,1.10207 0.445283,1.69514 0.09107,0.99151 2.184953,7.63734 2.903352,9.21502 0.169814,0.37293 0.904298,2.05112 1.632186,3.72932 2.689687,6.20124 6.034538,12.26779 7.978622,14.47081 0.276959,0.31384 0.780748,0.99563 1.119531,1.51508 0.338783,0.51945 1.187203,1.55945 1.885377,2.31111 0.698174,0.75167 1.3586,1.59551 1.467612,1.87521 0.109013,0.2797 0.995514,1.19507 1.970002,2.03417 0.974488,0.8391 2.526225,2.39245 3.448305,3.45189 0.922079,1.05945 1.839699,1.93669 2.039155,1.94942 0.199456,0.0127 0.685878,0.36642 1.080939,0.78596 0.395061,0.41955 1.121356,1.06794 1.613989,1.44088 0.492632,0.37293 1.074151,0.83608 1.292262,1.02923 0.218111,0.19314 0.876417,0.65083 1.462899,1.01708 0.586483,0.36626 1.987136,1.31282 3.112559,2.10349 3.416352,2.40016 14.248067,7.56904 18.875064,9.00717 2.897977,0.90072 8.488711,2.29175 10.001349,2.48842 0.466164,0.0606 1.228979,0.17585 1.695144,0.25609 0.466164,0.0802 0.961994,0.15859 1.101843,0.17413 0.441653,0.0491 0.274746,1.04688 -0.169514,1.01341 -0.233083,-0.0176 -1.873134,-0.30447 -3.64456,-0.63757 z m 24.749098,0.18789 c 0,-0.29451 0.11442,-0.54819 0.25427,-0.56373 0.13985,-0.0155 0.63568,-0.0939 1.10185,-0.17413 0.46616,-0.0802 1.22898,-0.20716 1.69514,-0.28206 0.46617,-0.0749 1.1527,-0.21058 1.52563,-0.30152 0.37293,-0.0909 2.12741,-0.49475 3.89883,-0.89737 1.77143,-0.40261 3.5259,-0.86551 3.89883,-1.02866 0.37293,-0.16316 1.05947,-0.3993 1.52563,-0.52476 4.19529,-1.1291 17.62242,-7.91338 20.0027,-10.1067 0.2797,-0.25773 0.98707,-0.71225 1.57194,-1.01003 0.58487,-0.29779 1.88165,-1.30802 2.88174,-2.24496 1.0001,-0.93694 1.90463,-1.70478 2.01008,-1.70632 0.2724,-0.004 7.17345,-7.01925 8.51858,-8.65958 0.61684,-0.75221 1.54107,-1.8186 2.05386,-2.36973 0.51278,-0.55114 0.93232,-1.11805 0.93232,-1.25981 0,-0.14175 0.23681,-0.52472 0.52623,-0.85103 0.61863,-0.69747 3.13164,-4.55448 3.92055,-6.01731 1.22046,-2.26303 3.145,-6.23818 4.10369,-8.47617 0.55913,-1.30526 1.28684,-2.98346 1.61714,-3.72932 0.33028,-0.74586 0.70556,-1.73752 0.83394,-2.20369 0.12837,-0.46616 0.59351,-2.06807 1.03363,-3.5598 1.39188,-4.7176 1.67069,-5.75099 1.6847,-6.24426 0.008,-0.26442 0.20268,-0.54377 0.43369,-0.62078 0.5746,-0.19153 0.3343,2.14467 -0.61045,5.93487 -1.17068,4.69657 -3.82561,11.56953 -6.29234,16.28934 -1.95044,3.73191 -3.69504,6.46048 -6.22054,9.72896 -0.86447,1.11879 -1.81923,2.41558 -2.12168,2.88174 -0.30246,0.46617 -1.19171,1.53411 -1.97612,2.3732 -0.7844,0.8391 -1.81056,2.02709 -2.28035,2.63999 -0.81549,1.0639 -6.66893,6.31299 -7.82932,7.02096 -0.30439,0.18572 -1.23996,0.87478 -2.07906,1.53126 -2.91476,2.28038 -3.93635,2.97773 -7.29855,4.98206 -4.88176,2.9102 -11.35897,5.73189 -16.09444,7.01129 -1.02556,0.27708 -2.93259,0.8022 -4.23786,1.16694 -1.30526,0.36475 -3.44114,0.83578 -4.7464,1.04675 -1.30526,0.21097 -2.79275,0.46825 -3.30553,0.57172 -0.70297,0.14184 -0.93233,0.0564 -0.93233,-0.34736 z M 65.150675,187.23403 c -0.277248,-0.72672 -0.0017,-56.53311 0.279248,-56.53307 0.146192,2e-5 0.299705,12.47206 0.341137,27.71563 0.04143,15.24358 0.206598,28.05887 0.367036,28.47842 0.229631,0.60049 0.17281,0.76281 -0.267019,0.76281 -0.307299,0 -0.631482,-0.1907 -0.720402,-0.42379 z m 17.659832,0.11209 c -0.105953,-0.17143 0.06893,-0.57327 0.388643,-0.89297 0.389917,-0.38992 0.624694,-0.45104 0.713153,-0.18567 0.310944,0.93284 -0.625386,1.84949 -1.101796,1.07864 z m 11.001542,-0.53587 c 0,-0.99962 0.513584,-1.11032 0.993228,-0.21409 0.366684,0.68515 0.174756,1.06166 -0.541191,1.06166 -0.256153,0 -0.452037,-0.36728 -0.452037,-0.84757 z m 18.117931,0.47601 c -0.36362,-0.58835 0.77263,-1.55424 1.25773,-1.06915 0.30049,0.3005 0.29115,0.51988 -0.0391,0.9178 -0.51142,0.61623 -0.90139,0.66466 -1.21863,0.15135 z m 19.96715,-0.15977 c -0.24468,-0.63762 0.35528,-1.33295 0.87369,-1.01256 0.55882,0.34538 0.4419,1.54389 -0.15062,1.54389 -0.28555,0 -0.61093,-0.2391 -0.72307,-0.53133 z m 18.70224,-17.69146 c 0,-19.19899 -0.10769,-20.88698 -1.61645,-25.3372 -2.12358,-6.26368 -7.92019,-11.978 -13.30082,-13.11199 -1.93291,-0.40736 -2.59828,-0.84853 -1.91586,-1.27029 0.95725,-0.59161 9.20498,2.74382 9.20498,3.72255 0,0.17278 0.2003,0.31415 0.44511,0.31415 0.53862,0 2.26712,1.74606 2.26712,2.29015 0,0.21361 0.19889,0.51039 0.44197,0.6595 0.96413,0.59143 2.61862,3.45458 3.38919,5.8651 1.53786,4.81077 1.66879,5.3283 1.7669,6.98436 0.0709,1.19635 0.21665,33.48389 0.17013,37.68267 -0.003,0.23309 -0.1954,0.42379 -0.42849,0.42379 -0.33377,0 -0.42378,-3.87058 -0.42378,-18.22279 z M 27.701438,163.44552 c 0,-0.29524 0.241558,-0.5368 0.536796,-0.5368 0.5987,0 0.494436,0.72985 -0.134199,0.93939 -0.221428,0.0738 -0.402597,-0.10735 -0.402597,-0.40259 z m -0.339028,-1.7234 c 0,-0.31078 0.164005,-0.51038 0.364455,-0.44356 0.200451,0.0668 0.364456,0.26642 0.364456,0.44356 0,0.17714 -0.164005,0.37675 -0.364456,0.44356 -0.20045,0.0668 -0.364455,-0.13278 -0.364455,-0.44356 z m 153.58003,-0.02 c 0,-0.2907 0.15257,-0.43426 0.33903,-0.31902 0.18647,0.11524 0.33903,0.35309 0.33903,0.52855 0,0.17546 -0.15256,0.31902 -0.33903,0.31902 -0.18646,0 -0.33903,-0.23785 -0.33903,-0.52855 z M 27.2494,160.3095 c -0.124311,-0.12431 -0.226019,-0.59471 -0.226019,-1.04534 0,-1.11476 0.816622,-0.80245 0.954848,0.36518 0.101752,0.85951 -0.235109,1.17388 -0.728829,0.68016 z m 153.86256,-0.45204 c -0.13533,-0.21896 -0.0935,-0.55067 0.093,-0.73713 0.22602,-0.22602 0.42105,-0.20633 0.58507,0.0591 0.13533,0.21896 0.0935,0.55067 -0.093,0.73713 -0.22602,0.22602 -0.42104,0.20633 -0.58507,-0.0591 z M 26.591204,157.22999 c -0.289953,-0.65078 -0.415395,-3.36022 -0.415395,-8.97215 0,-7.1627 0.06385,-8.10368 0.585228,-8.62506 0.321876,-0.32187 0.630977,-0.51802 0.686891,-0.43589 0.05591,0.0821 0.02141,3.94015 -0.07669,8.57336 -0.09809,4.63322 -0.06393,8.49444 0.07592,8.58049 0.385258,0.23705 0.304298,1.81158 -0.09315,1.81158 -0.191081,0 -0.534347,-0.41955 -0.762814,-0.93233 z m 154.859786,-8.56048 c 0,-6.9556 0.0989,-9.15377 0.41185,-9.15377 1.0043,0 1.24849,1.55206 1.30684,8.3062 0.0595,6.88624 -0.35231,10.00135 -1.32216,10.00135 -0.2929,0 -0.39653,-2.39222 -0.39653,-9.15378 z m -49.67147,6.09551 c -0.20165,-0.37678 -0.27667,-0.83063 -0.1667,-1.00855 0.28971,-0.46876 -1.77664,-5.4537 -2.64901,-6.39058 -1.10578,-1.18754 -3.55163,-2.52527 -4.17778,-2.28499 -0.56777,0.21787 -1.47848,-0.32484 -1.47848,-0.88105 0,-0.47291 3.01825,0.0494 4.44949,0.77003 2.36171,1.1891 4.12396,3.99832 4.68773,7.47276 0.19276,1.18794 0.35162,2.35058 0.35303,2.58366 0.004,0.65755 -0.61098,0.49976 -1.01828,-0.26128 z m -19.01939,-1.91415 c -0.2329,-1.75338 0.63138,-3.50275 2.86378,-5.79653 2.27989,-2.34258 6.66656,-4.07693 6.66656,-2.63575 0,0.3008 -0.56611,0.63596 -1.44088,0.85303 -2.27893,0.56553 -4.33455,1.77742 -4.90094,2.88935 -0.28494,0.5594 -0.79292,1.32221 -1.12885,1.69515 -0.33592,0.37293 -0.74463,1.20165 -0.90824,1.84159 -0.26951,1.05413 -1.05949,1.8453 -1.15143,1.15316 z m 0.24019,-14.26257 c -0.11146,-0.11146 -0.20266,-0.39798 -0.20266,-0.63672 0,-0.68176 5.21314,-5.65485 6.66264,-6.35585 0.7175,-0.34698 1.5916,-0.78037 1.94246,-0.96307 1.2473,-0.6495 4.10273,-1.24552 4.43056,-0.92481 0.47195,0.46171 -0.0417,0.78303 -2.35625,1.47396 -3.26501,0.97466 -6.4941,3.22811 -8.47572,5.91485 -1.03652,1.40534 -1.63855,1.85412 -2.00103,1.49164 z m -86.083688,-0.55688 c -0.180147,-0.46945 0.346495,-1.22791 0.852612,-1.22791 0.149173,0 0.271223,0.38141 0.271223,0.84757 0,0.90709 -0.815761,1.18317 -1.123835,0.38034 z m 154.198738,0.13373 c -0.25005,-0.40458 0.0673,-1.02261 0.52514,-1.02261 0.41253,0 0.4152,0.91762 0.003,1.17212 -0.17358,0.10728 -0.41143,0.04 -0.52855,-0.14951 z M 27.36241,135.64516 c 0,-0.29524 0.241558,-0.5368 0.536795,-0.5368 0.5987,0 0.494436,0.72985 -0.134199,0.9394 -0.221428,0.0738 -0.402596,-0.10736 -0.402596,-0.4026 z m 153.58003,-0.19777 c 0,-0.18646 0.15257,-0.33903 0.33903,-0.33903 0.18647,0 0.33903,0.15257 0.33903,0.33903 0,0.18647 -0.15256,0.33903 -0.33903,0.33903 -0.18646,0 -0.33903,-0.15256 -0.33903,-0.33903 z M 27.701438,133.89351 c 0,-0.5987 0.729848,-0.49443 0.939392,0.1342 0.07381,0.22143 -0.107358,0.4026 -0.402596,0.4026 -0.295238,0 -0.536796,-0.24156 -0.536796,-0.5368 z m 152.812322,0.33414 c -0.11146,-0.11147 -0.11982,-0.41854 -0.0186,-0.68238 0.10124,-0.26384 0.01,-0.68995 -0.20365,-0.9469 -0.21325,-0.25695 -0.45993,-1.03111 -0.54818,-1.72035 -0.41925,-3.27466 -3.00082,-10.14369 -6.56474,-17.4675 -2.95344,-6.06927 -6.84601,-11.98341 -9.44189,-14.345442 -0.41955,-0.381753 -0.76281,-0.797603 -0.76281,-0.92411 0,-0.126507 -1.77184,-1.967891 -3.93742,-4.091963 -2.16558,-2.124073 -4.28082,-4.205217 -4.70053,-4.624765 -0.4197,-0.419548 -0.92873,-0.762815 -1.13116,-0.762815 -0.20243,0 -0.49007,-0.217853 -0.63918,-0.484118 -1.02069,-1.822587 -11.50498,-7.968417 -18.57867,-10.890716 -6.19185,-2.557989 -13.36093,-4.605774 -17.76091,-5.073243 -1.18141,-0.125518 -2.02451,-0.664133 -1.64057,-1.048074 0.27162,-0.271621 6.12864,0.702867 8.48772,1.412181 0.96799,0.291051 2.37023,0.678383 3.1161,0.860738 2.4876,0.608192 7.73065,2.369906 9.46973,3.181919 0.94502,0.441247 2.55731,1.187311 3.58287,1.657918 1.02557,0.470607 2.57624,1.28306 3.44595,1.805449 0.86971,0.52239 2.42278,1.440893 3.45127,2.041119 1.02848,0.600226 2.39664,1.553744 3.04035,2.11893 0.64371,0.565185 1.34094,1.02761 1.54941,1.02761 0.20847,0 0.38007,0.114422 0.38135,0.254271 0.001,0.13985 0.56903,0.635679 1.26167,1.101844 0.69265,0.466164 1.52022,1.076416 1.83905,1.356115 0.31883,0.279698 1.31346,1.118795 2.21029,1.864658 3.04864,2.535456 8.00213,7.797679 9.67787,10.281064 0.33657,0.49879 1.07523,1.51714 1.64146,2.263 4.29304,5.65494 7.98336,12.5364 10.45413,19.49415 2.60714,7.3418 3.83066,13.85301 2.31906,12.34141 z M 28.272137,132.85382 c -0.357715,-0.35771 -0.273788,-2.08678 0.112889,-2.32576 0.189507,-0.11712 0.274168,-0.32685 0.188134,-0.46605 -0.253818,-0.41069 1.033407,-5.02453 2.519335,-9.03013 2.417859,-6.51781 5.014765,-11.36017 9.723586,-18.13125 0.324185,-0.46616 0.976819,-1.32138 1.450297,-1.90048 0.473478,-0.5791 1.165995,-1.47985 1.538927,-2.001665 2.050266,-2.868787 9.784664,-10.656703 10.610536,-10.683955 0.131111,-0.0043 0.848636,-0.538413 1.5945,-1.186859 2.043784,-1.776846 2.15053,-1.856533 2.486894,-1.856533 0.171505,0 0.506635,-0.234731 0.744735,-0.521624 0.445165,-0.536391 5.902223,-4.224779 6.25066,-4.224779 0.107014,0 0.763408,-0.375534 1.458657,-0.834521 2.388763,-1.577004 11.952704,-5.442182 14.994755,-6.059991 0.466164,-0.09467 1.762949,-0.418079 2.881744,-0.718679 5.275403,-1.417405 9.66232,-2.150158 9.66232,-1.613911 0,0.5049 -0.944782,1.175116 -1.325145,0.940039 -0.185767,-0.114811 -1.603657,0.0929 -3.150865,0.46158 -1.547209,0.36868 -3.347079,0.742484 -3.999709,0.830676 -1.276332,0.172474 -1.485526,0.240898 -7.628147,2.495047 -4.616067,1.693951 -13.306903,5.85647 -15.086781,7.225888 -0.65263,0.502126 -1.796852,1.231655 -2.542716,1.621174 -0.745863,0.389519 -1.843835,1.134495 -2.439939,1.655502 -0.5961,0.521007 -1.816604,1.54996 -2.712229,2.286563 -0.895624,0.736602 -2.786143,2.491076 -4.201155,3.89883 -1.415011,1.407755 -3.169485,3.139862 -3.898831,3.849127 -1.902864,1.850475 -2.720139,2.794461 -2.959582,3.418437 -0.115433,0.300814 -0.35216,0.546934 -0.526059,0.546934 -0.1739,0 -0.623827,0.52142 -0.999839,1.15871 -0.376011,0.6373 -0.93301,1.43825 -1.237776,1.7799 -1.380643,1.54776 -3.607267,5.28359 -5.927081,9.94448 -2.852172,5.73049 -6.296301,14.93951 -6.654993,17.79432 -0.177629,1.41375 -0.532026,2.04408 -0.927122,1.64898 z m 55.097825,-1.20355 c -0.553705,-0.5537 -0.511319,-0.94928 0.101709,-0.94928 0.282523,0 0.508543,0.30136 0.508543,0.67806 0,0.79028 -0.06313,0.81834 -0.610252,0.27122 z m 10.442087,-0.25121 c 0,-0.8166 0.614693,-1.23607 1.100063,-0.7507 0.257882,0.25788 0.237317,0.51427 -0.07105,0.88583 -0.592528,0.71396 -1.02901,0.65664 -1.02901,-0.13513 z m 18.424541,-0.20415 c -0.11041,-0.28774 -0.1122,-0.61171 -0.004,-0.71994 0.3421,-0.34209 1.24311,0.18261 1.24311,0.72392 0,0.67672 -0.97912,0.67358 -1.23912,-0.004 z m 14.12222,-1.22911 c 0,-0.50899 0.77343,-0.66601 3.30947,-0.67186 3.49511,-0.008 3.47112,-0.0114 3.47101,0.47472 -7e-5,0.31026 -0.90827,0.42583 -3.39029,0.43141 -1.8646,0.004 -3.39019,-0.10124 -3.39019,-0.23427 z m -54.342233,-6.39973 c -1.629955,-0.14912 -2.569546,-0.42626 -3.220773,-0.94999 -0.505699,-0.4067 -1.224582,-0.90448 -1.597514,-1.10619 -0.896012,-0.48462 -2.739997,-3.2919 -3.030195,-4.61317 -0.406177,-1.84931 0.404556,-1.533 1.542374,0.60176 1.322877,2.48197 2.779107,3.75164 5.44744,4.74952 5.143612,1.92359 11.35008,-0.88899 12.914701,-5.85254 0.693683,-2.20061 0.728501,-3.41125 0.144345,-5.01911 -1.195256,-3.28989 -3.260009,-5.42687 -6.041561,-6.2529 -5.091581,-1.51203 -10.115811,0.40022 -12.365996,4.70657 -0.541372,1.03606 -1.175013,1.88411 -1.408095,1.88455 -0.640083,0.001 -0.518972,-0.64443 0.54128,-2.88557 0.962268,-2.03403 2.844393,-3.89419 3.940158,-3.89419 0.298701,0 0.902054,-0.23521 1.340788,-0.52268 0.589747,-0.38641 1.718838,-0.52266 4.331289,-0.52266 2.97714,0 3.799617,0.12324 5.222853,0.78264 2.237966,1.03686 4.688199,3.61956 5.213341,5.49518 0.762028,2.7217 0.449162,7.53906 -0.543111,8.36258 -0.257228,0.21347 -0.470253,0.56016 -0.473393,0.77041 -0.01034,0.69325 -2.507182,2.83433 -4.188324,3.59155 -1.794903,0.80847 -4.108184,1.00921 -7.769607,0.67424 z m -8.246027,-8.94429 c -0.283221,-0.73807 -0.01434,-1.98866 0.461238,-2.14528 0.292626,-0.0964 0.423786,0.28889 0.423786,1.2448 0,1.34923 -0.512659,1.87085 -0.885024,0.90048 z M 95.320177,71.681668 c -0.366222,-0.592558 0.785991,-1.324642 2.116472,-1.344747 11.025281,-0.166602 16.161411,0.07013 16.590671,0.764675 0.28317,0.45818 -0.58643,0.990118 -1.22966,0.752185 -0.64716,-0.239389 -16.111424,-0.184662 -16.747089,0.05927 -0.261137,0.100208 -0.589815,-0.0039 -0.730394,-0.231379 z"
         id="path2258" />
      <path
         style="fill:#fafbfc;stroke-width:0.339029"
         d="m 96.564905,226.78457 c -2.340225,-0.98399 -1.163557,-1.15553 7.926545,-1.15553 8.92283,0 10.24379,0.17689 8.05194,1.07824 -1.41325,0.58116 -14.628097,0.64508 -15.978485,0.0773 z m 18.478805,-0.71763 c -0.1064,-0.1064 -0.1123,-0.32473 -0.0131,-0.48519 0.23801,-0.38511 1.15737,-0.37636 1.15737,0.011 0,0.37421 -0.87966,0.73874 -1.14423,0.47417 z m -23.679846,-0.28686 c -0.111167,-0.11117 -0.864445,-0.2776 -1.673954,-0.36985 -1.926318,-0.21951 -6.082275,-1.37427 -6.51948,-1.81148 -0.460126,-0.46012 -0.131563,-0.43814 2.674568,0.17893 1.305193,0.28702 3.256687,0.71347 4.336653,0.94766 1.079969,0.2342 1.968648,0.56767 1.974842,0.74104 0.01373,0.38385 -0.513734,0.59259 -0.792629,0.3137 z m 1.431098,-0.15104 c 0,-0.18646 0.21984,-0.33903 0.488534,-0.33903 0.268694,0 0.582824,0.15257 0.698067,0.33903 0.115243,0.18647 -0.104597,0.33903 -0.488534,0.33903 -0.383936,0 -0.698067,-0.15256 -0.698067,-0.33903 z m 23.900048,-0.002 c -0.11605,-0.18779 -0.0106,-0.39675 0.23426,-0.46438 1.1833,-0.32674 6.70477,-1.55359 7.90391,-1.75622 1.21557,-0.2054 1.30341,-0.17523 0.84757,0.29108 -0.2797,0.28612 -2.28138,0.91413 -4.44819,1.39558 -4.54211,1.00922 -4.26403,0.9765 -4.53755,0.53394 z m 10.89418,-2.69407 c 0.45557,-0.416 7.56613,-3.38949 8.51818,-3.56213 0.46448,-0.0842 1.09278,-0.37189 1.39622,-0.63926 0.66959,-0.59001 5.98739,-3.27303 6.48716,-3.27303 0.3141,0 1.16636,-0.60013 4.79464,-3.3762 0.49404,-0.378 1.18057,-0.78784 1.52563,-0.91076 0.34506,-0.12291 0.91665,-0.46728 1.27021,-0.76525 0.35397,-0.29832 0.58249,-0.36038 0.50854,-0.1381 -0.1984,0.59639 -4.23096,3.74858 -5.85109,4.5737 -0.77154,0.39294 -1.86049,1.06073 -2.41989,1.48398 -1.47339,1.11478 -5.6523,3.19738 -6.41969,3.19932 -0.36092,0.001 -0.97117,0.28496 -1.35612,0.63123 -0.38495,0.34626 -1.84413,1.03109 -3.24262,1.52184 -2.8086,0.98556 -5.67127,1.67477 -5.21117,1.25464 z m -48.863922,-0.51882 c -2.710182,-0.73289 -5.498067,-1.85465 -5.943628,-2.39151 -0.226285,-0.27266 -0.680207,-0.49575 -1.008716,-0.49575 -0.635771,0 -5.488354,-2.37155 -6.584057,-3.21776 -0.35932,-0.2775 -0.550353,-0.6075 -0.424515,-0.73334 0.251905,-0.2519 5.834,2.36766 6.71497,3.1512 0.303441,0.26988 0.945483,0.5621 1.426762,0.64937 1.101836,0.1998 8.71251,3.52997 8.022871,3.51053 -0.279698,-0.008 -1.271358,-0.22061 -2.203687,-0.47274 z m -17.860747,-8.80953 c -1.242002,-0.83319 -2.355457,-1.67229 -2.474348,-1.86466 -0.503525,-0.81472 0.857692,-0.24032 2.892038,1.22037 2.761454,1.98276 2.952307,2.15919 2.335705,2.15919 -0.272366,0 -1.511394,-0.68171 -2.753395,-1.5149 z m -5.603788,-4.1787 c -0.333579,-0.3345 -2.102641,-1.88961 -3.931249,-3.4558 -1.828608,-1.56619 -3.863061,-3.58096 -4.521006,-4.47726 -0.657945,-0.8963 -1.308733,-1.62963 -1.446196,-1.62963 -0.355416,0 -2.123214,-2.76755 -1.906334,-2.98443 0.216559,-0.21656 2.517874,2.33258 2.541248,2.81491 0.009,0.18647 0.562282,0.71082 1.229437,1.16523 0.667154,0.45441 2.382444,2.06509 3.811757,3.5793 1.429312,1.5142 3.247142,3.26568 4.039622,3.89218 1.395283,1.10305 1.788386,1.70367 1.115052,1.70367 -0.179204,0 -0.598752,-0.27368 -0.932331,-0.60817 z m 97.203297,0.35074 c 0,-0.38501 2.5486,-2.4548 3.02267,-2.4548 0.19261,0 0.568,-0.41955 0.8342,-0.93233 0.55315,-1.06551 4.74494,-5.19725 5.8902,-5.8058 0.41955,-0.22293 0.76282,-0.599 0.76282,-0.8357 0,-0.44084 2.12776,-2.93606 2.50368,-2.93606 0.61089,0 0.0258,1.12945 -1.40184,2.706 -5.80881,6.41477 -11.61173,11.54151 -11.61173,10.25869 z M 41.244297,194.52315 c -3.245478,-4.48276 -4.868478,-7.14455 -7.286849,-11.95076 -2.307208,-4.58529 -6.140373,-16.32732 -4.915498,-15.05752 0.164344,0.17037 0.903324,2.14052 1.642178,4.37811 0.738853,2.23759 1.536216,4.52604 1.771916,5.08544 0.84124,1.99654 4.06849,8.82392 4.407051,9.32329 0.189629,0.27969 0.583038,1.02934 0.874243,1.66587 0.59846,1.30815 3.112194,5.11253 4.379806,6.62857 0.462324,0.55292 0.840589,1.12504 0.840589,1.27135 0,0.64449 -0.633239,0.14766 -1.713436,-1.34435 z m 124.780883,1.30763 c 0,-0.16651 0.22884,-0.39057 0.50854,-0.4979 0.2797,-0.10733 0.50854,-0.35894 0.50854,-0.55912 0,-0.20019 0.15322,-0.54825 0.34048,-0.77346 0.98084,-1.17964 2.78293,-3.98334 3.42292,-5.32539 0.40014,-0.8391 0.9087,-1.75448 1.13013,-2.03418 0.22144,-0.27969 1.10538,-2.03417 1.96431,-3.89883 0.85893,-1.86465 1.98527,-4.30566 2.50297,-5.42446 1.10598,-2.39009 1.50791,-1.78907 0.62654,0.93688 -0.66811,2.06642 -4.07312,8.73606 -5.83919,11.43767 -2.29975,3.518 -2.62481,3.97367 -3.71401,5.20632 -1.10967,1.2558 -1.45123,1.47527 -1.45123,0.93247 z M 65.220623,187.09277 c -0.124311,-0.12431 -0.22602,-12.86331 -0.22602,-28.3089 0,-22.24029 0.08817,-28.08288 0.423786,-28.08288 0.335645,0 0.423786,5.8878 0.423786,28.3089 0,15.5699 -0.08899,28.3089 -0.197766,28.3089 -0.108774,0 -0.299477,-0.10171 -0.423786,-0.22602 z m 17.793359,-0.0961 c 0.145684,-0.43705 0.610696,-0.51556 0.652631,-0.11018 0.014,0.13519 -0.157649,0.30682 -0.381408,0.38141 -0.223759,0.0746 -0.345809,-0.0475 -0.271223,-0.27123 z m 10.857966,-0.20437 c 0.153333,-0.73641 0.755024,-0.78147 0.892646,-0.0668 0.07147,0.3711 -0.09482,0.5933 -0.444002,0.5933 -0.325715,0 -0.512602,-0.2193 -0.448644,-0.52645 z m 18.325352,0.12386 c 0.20954,-0.62864 0.93939,-0.7329 0.93939,-0.1342 0,0.29523 -0.24156,0.53679 -0.5368,0.53679 -0.29524,0 -0.4764,-0.18117 -0.40259,-0.40259 z m 19.925,-0.27547 c 0,-0.80832 0.52061,-0.89931 0.8113,-0.14178 0.29078,0.75775 0.26785,0.81984 -0.30276,0.81984 -0.28252,0 -0.50854,-0.30136 -0.50854,-0.67806 z m 18.58181,-16.01897 c 0.10466,-16.68484 -0.0804,-20.8413 -1.14223,-25.64952 -0.17051,-0.77214 -0.13808,-1.08233 0.0979,-0.93648 0.19407,0.11995 0.43417,0.6395 0.53355,1.15456 0.0994,0.51506 0.37137,1.54673 0.60441,2.29259 0.63792,2.04169 0.87103,39.83583 0.2457,39.83602 -0.3615,1.1e-4 -0.42461,-3.10493 -0.33934,-16.69717 z m 27.30318,2.79685 c 0.083,-0.65263 0.41204,-2.02569 0.73114,-3.05126 0.3191,-1.02556 0.8141,-2.74189 1.1,-3.81407 0.51669,-1.93767 1.35493,-2.79882 0.99003,-1.01709 -0.10502,0.51279 -0.34183,1.69515 -0.52626,2.62748 -0.51522,2.60462 -1.31676,5.02628 -1.90961,5.76938 -0.51112,0.64065 -0.52918,0.61654 -0.3853,-0.51444 z M 28.379496,166.1295 c 0,-0.2797 0.152563,-0.50855 0.339029,-0.50855 0.186465,0 0.339028,0.22885 0.339028,0.50855 0,0.27969 -0.152563,0.50854 -0.339028,0.50854 -0.186466,0 -0.339029,-0.22885 -0.339029,-0.50854 z m -1.239124,-6.45617 c -0.110417,-0.28774 -0.115779,-0.60815 -0.01192,-0.71201 0.296891,-0.29689 0.912011,0.20669 0.912011,0.74664 0,0.65054 -0.646716,0.62566 -0.900095,-0.0346 z m -0.579475,-2.96322 c -0.78677,-2.06013 -0.816067,-15.02728 -0.03735,-16.53315 0.701662,-1.35686 1.306983,-1.29859 1.055297,0.10159 -0.26804,1.49117 -0.342619,16.17545 -0.08347,16.4346 0.313802,0.3138 0.245716,1.44917 -0.0869,1.44917 -0.161133,0 -0.54254,-0.65349 -0.847572,-1.45221 z m 155.071283,-7.74839 c -0.0162,-4.6874 -0.10429,-8.64349 -0.19565,-8.79132 -0.38707,-0.62629 0.48579,-0.57966 1.0617,0.0567 0.57221,0.63229 0.62845,1.34918 0.61973,7.89944 -0.009,6.95946 -0.31142,9.3577 -1.17895,9.3577 -0.15251,0 -0.29059,-3.83514 -0.30683,-8.52254 z m -49.64387,5.95015 c -0.11277,-0.29388 -0.20504,-0.8397 -0.20504,-1.21293 0,-1.16106 -2.03,-5.84504 -2.81423,-6.49348 -0.41006,-0.33907 -1.42383,-1.06375 -2.25282,-1.61039 -1.25759,-0.82927 -1.37754,-0.9939 -0.72422,-0.9939 2.86508,0 5.94987,4.16611 6.5787,8.88475 0.20757,1.55757 -0.17368,2.49103 -0.58239,1.42595 z m -18.96414,-3.27585 c 0.34024,-1.78901 1.1922,-3.13953 2.99426,-4.74649 1.95618,-1.74439 3.32138,-2.51431 4.75185,-2.67984 1.62628,-0.18819 1.49312,0.52578 -0.17496,0.93813 -3.40386,0.84143 -4.83621,2.189 -6.71255,6.31523 -0.71053,1.56251 -1.1393,1.64888 -0.8586,0.17297 z m 10.62241,-6.97834 c 0,-0.4777 0.38188,-0.69684 0.88072,-0.50542 0.70753,0.27151 0.5747,0.78794 -0.20266,0.78794 -0.37293,0 -0.67806,-0.12714 -0.67806,-0.28252 z m 23.8954,-4.17114 c -2.05126,-3.55627 -4.02912,-5.6616 -7.21041,-7.67507 -2.93214,-1.85579 -2.50847,-2.43537 0.52075,-0.7124 3.35169,1.9064 7.46566,6.67816 8.25061,9.56982 0.19492,0.71807 0.28586,1.37412 0.20209,1.45789 -0.0838,0.0838 -0.87714,-1.10433 -1.76304,-2.64024 z M 27.07961,137.7736 c 0.06231,-0.44032 0.265848,-0.76244 0.452314,-0.71582 0.500468,0.12512 0.412089,1.1905 -0.113286,1.36562 -0.310097,0.10337 -0.416694,-0.10094 -0.339028,-0.6498 z m 85.88078,0.37505 c -0.39691,-0.64222 5.15879,-5.70577 7.41479,-6.75797 2.04017,-0.95153 4.34803,-1.70112 5.24907,-1.70488 0.91528,-0.004 0.13335,0.85079 -0.98843,1.08031 -2.60857,0.53373 -3.21162,0.75934 -4.52814,1.69405 -0.75736,0.5377 -1.92546,1.34049 -2.59577,1.78397 -0.67032,0.44348 -1.77614,1.58217 -2.45739,2.53042 -1.24283,1.72993 -1.69204,2.02468 -2.09413,1.3741 z m -85.59798,-2.36223 c 0,-0.18646 0.152563,-0.33903 0.339028,-0.33903 0.186466,0 0.339029,0.15257 0.339029,0.33903 0,0.18647 -0.152563,0.33903 -0.339029,0.33903 -0.186465,0 -0.339028,-0.15256 -0.339028,-0.33903 z m 152.76134,-4.23786 c -0.13702,-0.5594 -0.68398,-2.46643 -1.21548,-4.23786 -1.24694,-4.15591 -1.46841,-5.19485 -1.05262,-4.93788 0.84657,0.52321 2.98041,8.23178 2.65733,9.59967 -0.0981,0.4153 -0.2148,0.28819 -0.38923,-0.42393 z m -86.13877,0.17505 c -0.25005,-0.40459 0.06732,-1.02262 0.525136,-1.02262 0.41253,0 0.415205,0.91762 0.0034,1.17212 -0.173583,0.10728 -0.411432,0.04 -0.528553,-0.1495 z m 18.47365,-0.51408 c -0.34566,-0.4165 -0.3225,-0.50854 0.128,-0.50854 0.30253,0 0.55006,0.22884 0.55006,0.50854 0,0.2797 -0.0576,0.50855 -0.12801,0.50855 -0.0704,0 -0.31792,-0.22885 -0.55005,-0.50855 z m -84.079134,-0.16951 c 0,-0.18647 0.152563,-0.33903 0.339029,-0.33903 0.186465,0 0.339028,0.15256 0.339028,0.33903 0,0.18647 -0.152563,0.33903 -0.339028,0.33903 -0.186466,0 -0.339029,-0.15256 -0.339029,-0.33903 z m 105.692224,-0.57273 c -0.32632,-0.0853 -0.59331,-0.3134 -0.59331,-0.50695 0,-0.4112 2.36414,-0.058 2.8648,0.428 0.33192,0.32221 -1.14431,0.37351 -2.27149,0.0789 z m -7.5999,-0.61387 c 0.0646,-0.19373 1.46913,-0.33903 3.27728,-0.33903 1.80815,0 3.2127,0.1453 3.27728,0.33903 0.0703,0.21095 -1.16777,0.33903 -3.27728,0.33903 -2.10951,0 -3.3476,-0.12808 -3.27728,-0.33903 z m -97.753295,0.0422 c 0,-1.14371 1.290456,-5.61849 2.364531,-8.19923 0.750632,-1.80359 1.364785,-3.4664 1.364785,-3.69515 0,-1.51475 7.38246,-14.02808 9.70437,-16.44899 1.112289,-1.15971 1.082493,-0.14594 -0.035,1.19066 -1.58716,1.89836 -4.21268,6.06996 -5.540426,8.80299 -3.262445,6.7154 -4.531643,9.65726 -5.484977,12.71357 -0.610711,1.9579 -1.241973,3.70474 -1.402807,3.88188 -0.160833,0.17715 -0.292424,0.58769 -0.292424,0.91232 0,0.32464 -0.152563,0.68454 -0.339029,0.79978 -0.186465,0.11524 -0.339028,0.13422 -0.339028,0.0422 z m 41.332896,-6.77837 c -1.273253,-0.45516 -3.700676,-2.22076 -3.700693,-2.69173 -6e-6,-0.15078 -0.438845,-0.83732 -0.975202,-1.52563 -1.040351,-1.33509 -1.514716,-2.66496 -1.052491,-2.95063 0.155024,-0.0958 0.766238,0.70499 1.358257,1.77956 1.846188,3.35102 4.843474,5.13219 8.682429,5.15966 4.58653,0.0328 8.604784,-2.54896 9.7794,-6.28337 1.10878,-3.5251 0.282889,-6.75857 -2.442526,-9.56282 -1.507397,-1.55099 -1.695324,-2.10518 -0.49627,-1.46347 1.177009,0.62992 3.320434,3.33697 3.7333,4.71499 0.219287,0.73191 0.398704,2.39802 0.398704,3.70246 0,1.949 -0.166171,2.67485 -0.932329,4.07249 -1.390197,2.53603 -2.568729,3.74251 -4.562524,4.67072 -1.538224,0.71611 -2.278059,0.83366 -5.184553,0.82374 -1.866821,-0.006 -3.936358,-0.20677 -4.605502,-0.44597 z m 106.737549,-2.24806 c -1.57585,-3.58847 -2.4813,-5.53668 -3.755,-8.07946 -2.22901,-4.44994 -2.26863,-4.52243 -3.65737,-6.69193 -1.33365,-2.08342 -1.60299,-2.7357 -0.96747,-2.34292 1.36105,0.84118 7.39944,11.7782 8.64438,15.65712 0.67299,2.09687 0.48093,3.15476 -0.26454,1.45719 z M 63.977517,113.0715 c 0,-0.18647 0.161567,-0.33903 0.359038,-0.33903 0.197471,0 0.264748,0.15256 0.149505,0.33903 -0.115243,0.18646 -0.27681,0.33902 -0.359038,0.33902 -0.08223,0 -0.149505,-0.15256 -0.149505,-0.33902 z m 0.339029,-2.04545 c 0,-1.16239 1.623124,-3.96936 2.792044,-4.82845 0.608733,-0.44739 1.935702,-1.15965 2.948818,-1.58281 1.60585,-0.67073 2.290027,-0.75279 5.336025,-0.64004 2.844081,0.10528 3.605031,0.24573 4.090972,0.75505 0.575325,0.60301 0.560085,0.61789 -0.420108,0.41036 -2.574934,-0.54521 -5.119575,-0.61472 -7.31797,-0.19991 -2.15866,0.40731 -2.484474,0.58574 -4.004798,2.19326 -0.910227,0.96243 -1.980036,2.38708 -2.377347,3.16587 -0.804702,1.57735 -1.047636,1.74585 -1.047636,0.72667 z m 102.725714,-8.48446 c 0,-0.19747 0.15257,-0.26474 0.33903,-0.1495 0.18647,0.11524 0.33903,0.27681 0.33903,0.35904 0,0.0822 -0.15256,0.1495 -0.33903,0.1495 -0.18646,0 -0.33903,-0.16156 -0.33903,-0.35904 z m -0.86151,-1.01963 c -0.36489,-0.5904 0.0507,-0.71543 0.51568,-0.15515 0.26741,0.32221 0.29313,0.51674 0.0683,0.51674 -0.19829,0 -0.46109,-0.16272 -0.584,-0.36159 z M 43.296762,100.07114 c 0,-0.666113 6.362475,-7.62776 8.916161,-9.755821 3.738013,-3.114995 4.681222,-3.853201 5.093664,-3.986577 0.219392,-0.07095 0.665883,-0.361579 0.992198,-0.645845 0.326315,-0.284268 0.5933,-0.374547 0.5933,-0.200622 0,0.331149 -0.433814,0.738295 -3.220773,3.02277 -1.901527,1.558686 -9.284427,8.895855 -10.848921,10.781721 -1.078453,1.299984 -1.525629,1.529894 -1.525629,0.784374 z M 164.07576,99.188007 c -0.60601,-0.729961 -1.10184,-1.453895 -1.10184,-1.608741 0,-0.154847 -0.80319,-0.908839 -1.78487,-1.675538 -0.98168,-0.7667 -2.62173,-2.402938 -3.64456,-3.636084 -1.02283,-1.233146 -2.02288,-2.243889 -2.22234,-2.246094 -0.19945,-0.0022 -0.67499,-0.347276 -1.05674,-0.766825 -0.63981,-0.703152 -1.9861,-1.845981 -3.66604,-3.112003 -0.60469,-0.455703 -0.61386,-0.512158 -0.0848,-0.521773 0.32632,-0.0059 0.5933,0.14178 0.5933,0.328246 0,0.186466 0.15256,0.339029 0.33903,0.339029 0.18647,0 0.61899,0.266985 0.96116,0.5933 0.34218,0.326315 0.98023,0.822145 1.4179,1.101844 2.67121,1.707069 11.50295,10.729703 11.80025,12.055302 0.19093,0.85132 -0.41224,0.52039 -1.55049,-0.850663 z M 60.2482,84.223857 c 1.616137,-1.388854 8.806313,-5.666412 10.794639,-6.421917 0.887896,-0.337374 2.598266,-1.062625 3.800821,-1.61167 3.31603,-1.513984 7.907426,-2.717785 6.915916,-1.813259 -0.177143,0.161602 -2.229114,1.024816 -4.559937,1.918252 -2.330823,0.893436 -5.479017,2.264479 -6.995988,3.046761 -1.516967,0.782283 -3.042596,1.520565 -3.390287,1.640627 -0.712595,0.24607 -2.218116,1.1523 -5.012364,3.017129 -2.276846,1.519524 -3.218343,1.655387 -1.5528,0.224077 z m 86.57138,-0.597498 c -1.11113,-0.718163 -2.42854,-1.519118 -2.92756,-1.779901 -4.04782,-2.11533 -7.56133,-3.735967 -11.70007,-5.396752 -2.66545,-1.069586 -4.94119,-2.03961 -5.05718,-2.155609 -0.80459,-0.80459 3.86925,0.463973 7.0217,1.905813 1.21203,0.554346 2.9665,1.307784 3.89883,1.674306 3.04666,1.197718 11.01844,6.190976 11.01844,6.901585 0,0.279414 -0.20581,0.174466 -2.25416,-1.149442 z M 85.532712,73.073137 c 0.424165,-0.424165 5.29349,-1.623444 7.163244,-1.764254 1.612095,-0.121407 2.18065,0.512344 0.607549,0.677218 -0.559397,0.05863 -2.220407,0.401897 -3.691135,0.762815 -2.951391,0.724275 -4.611659,0.856221 -4.079658,0.324221 z m 33.367468,-0.396913 c -1.58496,-0.361127 -3.24708,-0.734709 -3.6936,-0.830183 -0.52528,-0.112313 -0.69561,-0.289834 -0.48254,-0.502907 0.21308,-0.213074 1.57671,-0.07598 3.86312,0.388375 4.91388,0.997984 5.05942,1.037511 5.05942,1.374117 0,0.444009 -1.51435,0.307007 -4.7464,-0.429402 z M 95.168164,71.436626 c 0,-0.841974 2.027893,-1.082753 9.119136,-1.082753 6.95319,0 9.52745,0.27629 9.52745,1.022566 0,0.152998 -4.19549,0.295698 -9.3233,0.317111 -5.127805,0.02141 -9.323286,-0.0942 -9.323286,-0.256924 z"
         id="path2256" />
      <path
         style="fill:#fafafa;stroke-width:0.339029"
         d="m 96.217939,226.516 c -0.315246,-0.37985 -0.177936,-0.50204 0.721301,-0.64191 1.756864,-0.27325 15.09904,-0.10035 15.39894,0.19955 0.68549,0.68548 -1.27597,0.90151 -8.229,0.90633 -5.979641,0.004 -7.580884,-0.09 -7.891241,-0.46397 z m -9.186466,-1.90405 c -0.421107,-0.27214 -0.391965,-0.32864 0.169515,-0.32864 0.372931,0 0.906902,0.14789 1.1866,0.32864 0.421108,0.27215 0.391965,0.32865 -0.169514,0.32865 -0.372932,0 -0.906902,-0.14789 -1.186601,-0.32865 z m 33.733367,0 c 0.37293,-0.16025 0.98318,-0.29975 1.35611,-0.31 0.55965,-0.0154 0.58925,0.0387 0.16952,0.31 -0.2797,0.18076 -0.88996,0.32027 -1.35612,0.31001 -0.77623,-0.0171 -0.7905,-0.0432 -0.16951,-0.31001 z m 2.47914,-0.57062 c 0.24474,-0.0979 0.53715,-0.0859 0.64981,0.0268 0.11266,0.11266 -0.0876,0.19279 -0.44498,0.17807 -0.39495,-0.0163 -0.47528,-0.0966 -0.20483,-0.20483 z m -48.332785,-3.05058 c -1.165412,-0.46502 -2.11893,-0.9847 -2.11893,-1.15486 0,-0.17015 0.125525,-0.30937 0.278949,-0.30937 0.409879,0 4.467454,1.99913 4.467454,2.20107 0,0.26909 -0.358222,0.16863 -2.627473,-0.73684 z m 56.689035,0.59183 c 0.20959,-0.33912 3.79398,-2.05606 4.29235,-2.05606 0.87861,0 0.0525,0.69594 -1.75845,1.48132 -2.17004,0.94112 -2.85657,1.09684 -2.5339,0.57474 z m -62.936851,-3.42167 c -1.96436,-1.01419 -3.010877,-1.95294 -1.720595,-1.54342 0.86091,0.27324 4.493366,2.23439 4.493366,2.42595 0,0.35262 -0.991988,0.0369 -2.772771,-0.88253 z m 69.069851,0.72225 c 0.57613,-0.5444 5.95523,-3.15979 6.13304,-2.98197 0.17733,0.17733 -3.02887,2.12458 -4.72507,2.86973 -1.12596,0.49463 -1.87593,0.55441 -1.40797,0.11224 z m -72.569113,-2.74692 c -0.115242,-0.18647 -0.05697,-0.33903 0.129499,-0.33903 0.186466,0 0.433316,0.15256 0.548559,0.33903 0.115243,0.18646 0.05697,0.33902 -0.129499,0.33902 -0.186466,0 -0.433316,-0.15256 -0.548559,-0.33902 z m 81.508543,-2.16981 c 0.65184,-0.78582 1.72302,-1.34663 1.72302,-0.90209 0,0.18824 -0.49583,0.59859 -1.10184,0.91189 -1.0382,0.53674 -1.07408,0.53617 -0.62118,-0.01 z m 2.57059,-1.89854 c 0.11525,-0.18646 0.3621,-0.33903 0.54856,-0.33903 0.18647,0 0.24474,0.15257 0.1295,0.33903 -0.11524,0.18647 -0.36209,0.33903 -0.54856,0.33903 -0.18646,0 -0.24474,-0.15256 -0.1295,-0.33903 z m 3.72932,-2.71223 c 0.11524,-0.18646 0.36209,-0.33903 0.54856,-0.33903 0.18646,0 0.24474,0.15257 0.1295,0.33903 -0.11525,0.18647 -0.3621,0.33903 -0.54856,0.33903 -0.18647,0 -0.24474,-0.15256 -0.1295,-0.33903 z m 1.69514,-1.35611 c 0.11525,-0.18647 0.3621,-0.33903 0.54856,-0.33903 0.18647,0 0.24474,0.15256 0.1295,0.33903 -0.11524,0.18646 -0.36209,0.33902 -0.54856,0.33902 -0.18646,0 -0.24474,-0.15256 -0.1295,-0.33902 z M 49.447515,204.12274 c -1.418166,-1.38639 -2.462695,-2.63649 -2.321175,-2.77801 0.264814,-0.26482 4.437786,3.64558 5.021362,4.7054 0.616278,1.11921 -0.124978,0.5901 -2.700187,-1.92739 z m 107.379775,1.92739 c 0.47322,-0.88078 5.12376,-5.28898 5.34565,-5.06709 0.28297,0.28297 -1.65987,2.57408 -3.5781,4.21952 -1.8179,1.55936 -2.26524,1.77387 -1.76755,0.84757 z M 44.822391,199.1848 c -0.115242,-0.18647 0.02832,-0.33903 0.319021,-0.33903 0.290703,0 0.528551,0.15256 0.528551,0.33903 0,0.18646 -0.143559,0.33903 -0.31902,0.33903 -0.175461,0 -0.413309,-0.15257 -0.528552,-0.33903 z m 118.554119,-0.0212 c 0.0816,-0.24474 0.34857,-0.51172 0.5933,-0.5933 0.25428,-0.0848 0.38141,0.0424 0.29665,0.29665 -0.0816,0.24473 -0.34856,0.51172 -0.5933,0.5933 -0.25427,0.0848 -0.3814,-0.0424 -0.29665,-0.29665 z m 5.37168,-6.60983 c -0.006,-0.19744 0.21321,-0.65513 0.48698,-1.01709 0.27376,-0.36195 0.50261,-0.49655 0.50854,-0.29911 0.006,0.19745 -0.21321,0.65513 -0.48698,1.01709 -0.27376,0.36195 -0.50261,0.49655 -0.50854,0.29911 z m 2.60031,-4.54582 c 0.2134,-0.81604 1.11822,-1.66357 1.11822,-1.04742 0,0.58945 -0.65438,1.71437 -0.99727,1.71437 -0.16245,0 -0.21688,-0.30013 -0.12095,-0.66695 z m -134.267266,0.1019 c -0.12431,-0.12431 -0.22138,-0.46758 -0.215709,-0.76282 0.0085,-0.44084 0.07462,-0.42619 0.370105,0.0819 0.365057,0.62777 0.259224,1.0945 -0.154396,0.68088 z m 95.210576,-1.1301 c -0.11524,-0.18646 -0.048,-0.33903 0.14951,-0.33903 0.19747,0 0.35904,0.15257 0.35904,0.33903 0,0.18647 -0.0673,0.33903 -0.14951,0.33903 -0.0822,0 -0.24379,-0.15256 -0.35904,-0.33903 z m 40.51394,-0.9983 c 0,-0.29395 1.28286,-3.2479 3.12702,-7.20037 0.86638,-1.85686 1.4728,-1.86946 0.74003,-0.0154 -0.61485,1.55571 -3.59163,7.53598 -3.75116,7.53598 -0.0637,0 -0.11589,-0.14412 -0.11589,-0.32025 z M 34.93046,184.19821 c -1.438537,-2.60923 -2.282259,-4.65142 -2.027124,-4.90655 0.3078,-0.3078 0.29947,-0.32207 1.889423,3.23508 1.582278,3.53997 1.655083,4.42371 0.137701,1.67147 z m -4.52685,-11.13742 c -0.20512,-0.38327 -0.313562,-0.875 -0.240982,-1.09274 0.07258,-0.21774 0.303382,0.0958 0.512894,0.69685 0.430468,1.23484 0.288051,1.44219 -0.271912,0.39589 z m 147.8266,0.0259 c 0,-0.4714 0.50367,-2.20584 1.07314,-3.69549 0.61115,-1.59865 0.70599,-0.35083 0.11871,1.56177 -0.60552,1.97197 -1.19185,3.02165 -1.19185,2.13372 z m 3.68578,-17.01506 c -0.17193,-1.78494 -0.10735,-15.87784 0.0728,-15.87784 0.86066,0 0.99696,1.27209 0.90971,8.49036 -0.0686,5.67827 -0.19673,7.59249 -0.51515,7.69847 -0.23308,0.0776 -0.44337,-0.0624 -0.46732,-0.31099 z M 26.220826,155.61466 c -0.117992,-0.30748 -0.214532,-3.60541 -0.214532,-7.32874 0,-5.40505 0.104268,-6.97131 0.51725,-7.76993 0.284487,-0.55014 0.551472,-1.00027 0.5933,-1.0003 0.04183,-2e-5 0.0576,3.59603 0.03505,7.99123 -0.03804,7.41337 -0.305103,9.73898 -0.931068,8.10774 z m 105.928244,-1.37942 c 0.0163,-0.39495 0.0966,-0.47529 0.20482,-0.20483 0.0979,0.24473 0.0859,0.53715 -0.0267,0.6498 -0.11265,0.11266 -0.19278,-0.0876 -0.17806,-0.44497 z m -0.47881,-1.7234 c -0.12431,-0.12431 -0.22602,-0.54805 -0.22602,-0.94165 0,-0.3936 -0.20829,-1.01656 -0.46287,-1.38437 -0.25459,-0.3678 -0.57999,-1.05014 -0.72312,-1.51631 -0.25605,-0.83394 -0.24905,-0.83758 0.43579,-0.22624 0.38281,0.34173 0.87797,1.37977 1.10034,2.30675 0.39041,1.62739 0.3477,2.23364 -0.12412,1.76182 z m 19.09862,-0.79107 c 0,-0.63285 0.0904,-0.72326 0.40684,-0.40683 0.31642,0.31642 0.31642,0.49724 0,0.81367 -0.31643,0.31642 -0.40684,0.22602 -0.40684,-0.40684 z m -36.95413,-1.95873 c 0,-0.44548 1.03581,-1.77058 1.38404,-1.77058 0.18068,0 0.0918,0.45769 -0.19744,1.01708 -0.4831,0.93421 -1.1866,1.38094 -1.1866,0.7535 z m 36.64187,-0.95126 c 0.0163,-0.39495 0.0966,-0.47529 0.20483,-0.20483 0.0979,0.24473 0.0859,0.53714 -0.0267,0.6498 -0.11266,0.11266 -0.19279,-0.0876 -0.17807,-0.44497 z m -22.38144,-2.52122 c -0.64096,-0.54795 -1.08997,-1.07168 -0.99781,-1.16384 0.23495,-0.23495 2.67173,1.46228 2.67173,1.86087 0,0.53874 -0.44533,0.3533 -1.67392,-0.69703 z m -8.49694,-1.34936 c 0,-0.18647 0.21636,-0.33903 0.48081,-0.33903 0.26445,0 0.76028,-0.0868 1.10184,-0.19293 0.34157,-0.10611 0.23962,0.041 -0.22654,0.32701 -1.00095,0.61404 -1.35611,0.66772 -1.35611,0.20495 z m 28.26989,-4.36132 c -0.35148,-0.62729 -0.97772,-1.65709 -1.39165,-2.28844 -0.41393,-0.63135 -0.64277,-1.1479 -0.50854,-1.14789 0.29703,1e-5 1.84049,1.90855 2.41425,2.98528 0.6757,1.26805 0.18496,1.69863 -0.51406,0.45105 z m -34.71144,-2.69919 c 0,-0.40078 1.65791,-1.90449 1.86807,-1.69432 0.22908,0.22908 -1.14428,1.97425 -1.55365,1.97425 -0.17293,0 -0.31442,-0.12597 -0.31442,-0.27993 z m 30.53245,-2.65357 c -0.38908,-0.49463 -0.64206,-0.96468 -0.56219,-1.04455 0.26283,-0.26283 1.53669,0.58988 1.9026,1.27359 0.55699,1.04075 -0.48113,0.86336 -1.34041,-0.22904 z m -26.38124,-1.55863 c 0.13768,-0.41866 2.53652,-1.93304 3.07912,-1.94384 0.15413,-0.003 -0.4193,0.5284 -1.27429,1.18103 -1.67357,1.27746 -2.02259,1.42497 -1.80483,0.76281 z m 23.31012,-0.95289 -1.1866,-1.01941 1.44256,0.72462 c 1.52095,0.76398 2.11776,1.3386 1.37444,1.32332 -0.24409,-0.005 -0.97777,-0.46786 -1.6304,-1.02853 z m -18.64658,-1.66521 c 0,-0.45957 0.60248,-0.74495 0.8222,-0.38946 0.10504,0.16997 -0.037,0.39652 -0.31561,0.50344 -0.27862,0.10692 -0.50659,0.0556 -0.50659,-0.11398 z m 2.98769,-0.91902 c 0.24473,-0.0979 0.53715,-0.0859 0.6498,0.0267 0.11266,0.11265 -0.0876,0.19278 -0.44497,0.17806 -0.39495,-0.0163 -0.47529,-0.0966 -0.20483,-0.20483 z m 2.26725,-0.44647 c 0.11525,-0.18646 0.27681,-0.33902 0.35904,-0.33902 0.0822,0 0.14951,0.15256 0.14951,0.33902 0,0.18647 -0.16157,0.33903 -0.35904,0.33903 -0.19747,0 -0.26475,-0.15256 -0.14951,-0.33903 z m 52.06769,-2.23193 c 0.0163,-0.39496 0.0966,-0.47529 0.20482,-0.20483 0.0979,0.24473 0.0859,0.53714 -0.0267,0.6498 -0.11265,0.11266 -0.19278,-0.0876 -0.17806,-0.44497 z M 29.735611,126.01498 c 0,-0.71618 1.118015,-3.45068 1.410831,-3.45068 0.346077,0 0.175477,0.76418 -0.586572,2.62747 -0.42558,1.04059 -0.824259,1.43876 -0.824259,0.82321 z m 148.958849,-0.26614 c -0.12637,-0.353 -0.29153,-0.75625 -0.36702,-0.8961 -0.0755,-0.13984 0.007,-0.25427 0.18225,-0.25427 0.33817,0 0.81458,1.39216 0.56263,1.64411 -0.0814,0.0814 -0.25149,-0.14073 -0.37786,-0.49374 z M 76.86061,123.29662 c 0,-0.15662 0.648393,-0.49831 1.440872,-0.75931 0.79248,-0.261 2.241828,-1.12627 3.220774,-1.92282 1.945079,-1.58268 2.267488,-1.5304 0.833793,0.13519 -0.532478,0.61861 -1.833721,1.43796 -3.095932,1.94942 -2.463061,0.99804 -2.399507,0.98222 -2.399507,0.59752 z m -6.945604,-0.56533 c -0.743396,-0.26472 -1.52303,-0.71571 -1.732519,-1.00221 -0.209489,-0.28649 -0.549406,-0.52089 -0.755373,-0.52089 -0.205963,0 -0.537781,-0.30513 -0.737367,-0.67806 -0.493351,-0.92184 -0.133961,-0.85167 1.137658,0.22212 0.586317,0.4951 1.828844,1.25642 2.761173,1.69183 1.865106,0.87103 1.455911,1.0455 -0.673572,0.28721 z M 174.72517,115.7235 c -1.06468,-2.27071 -1.89129,-4.26203 -1.83691,-4.42516 0.12885,-0.38655 3.49945,6.40576 3.78203,7.6214 0.1192,0.51278 0.16586,0.93233 0.10369,0.93233 -0.0622,0 -0.98413,-1.85785 -2.04881,-4.12857 z m -109.565836,2.64322 c -0.31213,-0.47637 -0.501475,-1.06171 -0.420769,-1.30077 0.08297,-0.24577 0.402349,0.0579 0.73493,0.6987 0.711286,1.37053 0.479902,1.81397 -0.314161,0.60207 z M 32.78687,118.09096 c 0,-1.11041 2.914709,-6.96417 3.283816,-6.59506 0.165772,0.16577 -2.13666,5.4197 -2.840694,6.48219 -0.364764,0.55048 -0.443122,0.57044 -0.443122,0.11287 z m 51.299637,-0.48488 c 0.09841,-0.34966 0.277603,-0.97902 0.398196,-1.39857 0.120592,-0.41955 0.361543,-0.76281 0.535445,-0.76281 0.420406,0 0.404681,0.58334 -0.02285,0.84757 -0.186466,0.11524 -0.339029,0.49665 -0.339029,0.84757 0,0.35092 -0.168907,0.74243 -0.375349,0.87002 -0.242161,0.14966 -0.311859,0.006 -0.196416,-0.40378 z m 0.25421,-6.82303 c -0.189032,-0.69925 -0.59188,-1.62449 -0.895222,-2.0561 -0.30334,-0.4316 -0.477088,-0.85917 -0.386107,-0.95016 0.268165,-0.26816 1.579179,2.06017 1.810078,3.21466 0.298305,1.49152 -0.113032,1.3294 -0.528749,-0.2084 z m -19.942615,0 c 1.460323,-3.0543 2.266126,-4.2711 3.189074,-4.81565 1.573155,-0.92819 1.67764,-0.42286 0.177984,0.86079 -0.711252,0.60881 -1.663475,1.80492 -2.116048,2.65803 -0.452573,0.8531 -0.946548,1.5511 -1.097721,1.5511 -0.151173,0 -0.220155,-0.11442 -0.153289,-0.25427 z m -27.532105,-1.14509 c -0.0059,-0.30348 0.218063,-0.74171 0.497761,-0.97384 0.6518,-0.54094 0.658659,0.011 0.01078,0.86753 -0.418172,0.55288 -0.499484,0.56987 -0.508543,0.10631 z m 134.595563,-0.27349 c -0.4423,-0.82645 -0.44723,-1.1389 -0.0138,-0.87099 0.54448,0.3365 1.09311,1.52676 0.70374,1.52676 -0.18647,0 -0.49696,-0.2951 -0.68999,-0.65577 z M 44.652877,98.524131 c 0,-0.157782 0.228844,-0.4768 0.508543,-0.70893 0.41399,-0.343581 0.508543,-0.326526 0.508543,0.09173 0,0.282581 -0.228844,0.601599 -0.508543,0.70893 -0.279699,0.10733 -0.508543,0.06605 -0.508543,-0.09173 z M 163.48246,98.15423 c -0.11524,-0.186466 -0.057,-0.339029 0.1295,-0.339029 0.18647,0 0.43332,0.152563 0.54856,0.339029 0.11524,0.186466 0.057,0.339029 -0.1295,0.339029 -0.18647,0 -0.43332,-0.152563 -0.54856,-0.339029 z M 46.687049,96.28162 c 0,-0.846784 5.247424,-5.876069 5.679804,-5.443689 0.11876,0.118761 -0.843626,1.290332 -2.138637,2.60349 -2.2039,2.234784 -3.541167,3.307342 -3.541167,2.840199 z M 159.21378,93.777677 c -1.51155,-1.534056 -2.66531,-2.872159 -2.56391,-2.97356 0.27762,-0.277613 3.05989,2.104544 4.47487,3.831339 2.12072,2.58806 0.97964,2.075862 -1.91096,-0.857779 z M 53.637139,89.339483 c 0.115243,-0.186466 0.362095,-0.339029 0.54856,-0.339029 0.186466,0 0.24474,0.152563 0.129498,0.339029 -0.115243,0.186465 -0.362094,0.339028 -0.54856,0.339028 -0.186466,0 -0.24474,-0.152563 -0.129498,-0.339028 z m 101.030571,0 c -0.11524,-0.186466 -0.057,-0.339029 0.1295,-0.339029 0.18647,0 0.43332,0.152563 0.54856,0.339029 0.11524,0.186465 0.057,0.339028 -0.1295,0.339028 -0.18646,0 -0.43331,-0.152563 -0.54856,-0.339028 z M 61.906614,83.217209 c 0.445965,-0.371391 0.892517,-0.593583 0.992337,-0.493761 0.216182,0.216179 -0.97822,1.170225 -1.46415,1.169513 -0.186466,-2.73e-4 0.02587,-0.304362 0.471813,-0.675752 z m 3.257503,-2.014416 c 0.115243,-0.186466 0.362093,-0.339029 0.548559,-0.339029 0.186466,0 0.244742,0.152563 0.129499,0.339029 -0.115243,0.186465 -0.362093,0.339028 -0.548559,0.339028 -0.186466,0 -0.244741,-0.152563 -0.129499,-0.339028 z m 77.976613,0 c -0.11524,-0.186466 -0.057,-0.339029 0.1295,-0.339029 0.18647,0 0.43332,0.152563 0.54856,0.339029 0.11524,0.186465 0.057,0.339028 -0.1295,0.339028 -0.18646,0 -0.43331,-0.152563 -0.54856,-0.339028 z M 67.19829,79.978366 c 1.242639,-0.961779 3.94621,-2.206651 4.519511,-2.08103 0.342657,0.07508 -0.40044,0.617816 -1.883576,1.375701 -2.521882,1.288689 -3.848173,1.64358 -2.635935,0.705329 z m 72.3221,-0.480213 c -2.07076,-1.069123 -2.99232,-1.942443 -1.5923,-1.508954 1.05978,0.32814 3.0069,1.332706 3.85653,1.989671 1.15067,0.889743 -0.14094,0.615521 -2.26423,-0.480717 z M 72.792265,77.509749 c 0,-0.326089 0.824518,-0.721082 1.468601,-0.703548 0.21783,0.0059 0.09991,0.234775 -0.262042,0.508543 -0.74708,0.565063 -1.206559,0.639324 -1.206559,0.195005 z m 62.042265,-0.375301 c -0.43826,-0.283225 -0.42931,-0.329364 0.0648,-0.333838 0.31531,-0.0028 0.66758,0.147372 0.78282,0.333838 0.26518,0.429073 -0.18363,0.429073 -0.84757,0 z M 74.826437,76.609329 c 0,-0.317113 2.843597,-1.495248 3.559803,-1.474868 0.419771,0.01194 0.03234,0.330302 -1.017087,0.835764 -1.648286,0.793901 -2.542716,1.018713 -2.542716,0.639104 z m 56.787323,-0.708165 c -1.55421,-0.770871 -1.59649,-0.821629 -0.50855,-0.610486 1.20026,0.23294 3.05126,1.048218 3.05126,1.343933 0,0.338653 -0.91096,0.07588 -2.54271,-0.733447 z m -44.751801,-3.17409 c 0.115242,-0.186466 0.620077,-0.328306 1.121853,-0.3152 0.814625,0.02128 0.83971,0.05503 0.234262,0.3152 -0.941897,0.404747 -1.606264,0.404747 -1.356115,0 z m 33.669791,-0.231595 c 0.24474,-0.09794 0.53715,-0.08589 0.64981,0.02677 0.11266,0.112656 -0.0876,0.192785 -0.44498,0.178065 -0.39495,-0.01627 -0.47528,-0.0966 -0.20483,-0.20483 z M 89.680135,72.15645 c 0.244735,-0.09794 0.537147,-0.08589 0.649807,0.02677 0.112656,0.112657 -0.08759,0.192786 -0.444976,0.178065 -0.394951,-0.01627 -0.475284,-0.0966 -0.204831,-0.20483 z m 29.495505,0 c 0.24473,-0.09794 0.53715,-0.08589 0.6498,0.02677 0.11266,0.112657 -0.0876,0.192786 -0.44497,0.178065 -0.39495,-0.01627 -0.47528,-0.0966 -0.20483,-0.20483 z M 91.036251,71.817421 c 0.244734,-0.09794 0.537147,-0.08589 0.649806,0.02677 0.112656,0.112657 -0.08759,0.192786 -0.444975,0.178065 -0.394952,-0.01627 -0.475285,-0.0966 -0.204831,-0.20483 z m 6.005036,-0.446462 c -1.664424,-0.167278 -1.67428,-0.175107 -0.746863,-0.593301 1.218944,-0.549651 15.333716,-0.60568 15.669606,-0.0622 0.12291,0.198872 0.14764,0.437417 0.055,0.530101 -0.23023,0.230222 -12.880844,0.336139 -14.977703,0.125401 z"
         id="path2254" />
      <path
         style="fill:#f8fafc;stroke-width:0.339029"
         d="m 96.334806,226.48739 c -0.615412,-0.46547 -0.570135,-0.50041 0.698016,-0.53873 4.753828,-0.14365 14.384458,-0.0356 14.709058,0.16501 1.08894,0.67301 -0.59075,0.87149 -7.37515,0.87149 -5.958679,0 -7.500124,-0.0955 -8.031924,-0.49777 z m -9.303333,-1.87544 c -0.421107,-0.27214 -0.391965,-0.32864 0.169515,-0.32864 0.372931,0 0.906902,0.14789 1.1866,0.32864 0.421108,0.27215 0.391965,0.32865 -0.169514,0.32865 -0.372932,0 -0.906902,-0.14789 -1.186601,-0.32865 z m 33.733367,0 c 0.37293,-0.16025 0.98318,-0.29975 1.35611,-0.31 0.55965,-0.0154 0.58925,0.0387 0.16952,0.31 -0.2797,0.18076 -0.88996,0.32027 -1.35612,0.31001 -0.77623,-0.0171 -0.7905,-0.0432 -0.16951,-0.31001 z m -45.853645,-3.6212 c -1.165412,-0.46502 -2.11893,-0.9847 -2.11893,-1.15486 0,-0.17015 0.125525,-0.30937 0.278949,-0.30937 0.409879,0 4.467454,1.99913 4.467454,2.20107 0,0.26909 -0.358222,0.16863 -2.627473,-0.73684 z m 56.689035,0.59183 c 0.20959,-0.33912 3.79398,-2.05606 4.29235,-2.05606 0.87861,0 0.0525,0.69594 -1.75845,1.48132 -2.17004,0.94112 -2.85657,1.09684 -2.5339,0.57474 z m -62.936851,-3.42167 c -1.96436,-1.01419 -3.010877,-1.95294 -1.720595,-1.54342 0.86091,0.27324 4.493366,2.23439 4.493366,2.42595 0,0.35262 -0.991988,0.0369 -2.772771,-0.88253 z m 69.069851,0.72225 c 0.57613,-0.5444 5.95523,-3.15979 6.13304,-2.98197 0.17733,0.17733 -3.02887,2.12458 -4.72507,2.86973 -1.12596,0.49463 -1.87593,0.55441 -1.40797,0.11224 z m -72.569113,-2.74692 c -0.115242,-0.18647 -0.05697,-0.33903 0.129499,-0.33903 0.186466,0 0.433316,0.15256 0.548559,0.33903 0.115243,0.18646 0.05697,0.33902 -0.129499,0.33902 -0.186466,0 -0.433316,-0.15256 -0.548559,-0.33902 z m 81.508543,-2.16981 c 0.65184,-0.78582 1.72302,-1.34663 1.72302,-0.90209 0,0.18824 -0.49583,0.59859 -1.10184,0.91189 -1.0382,0.53674 -1.07408,0.53617 -0.62118,-0.01 z m 2.57059,-1.89854 c 0.11525,-0.18646 0.3621,-0.33903 0.54856,-0.33903 0.18647,0 0.24474,0.15257 0.1295,0.33903 -0.11524,0.18647 -0.36209,0.33903 -0.54856,0.33903 -0.18646,0 -0.24474,-0.15256 -0.1295,-0.33903 z m 3.72932,-2.71223 c 0.11524,-0.18646 0.36209,-0.33903 0.54856,-0.33903 0.18646,0 0.24474,0.15257 0.1295,0.33903 -0.11525,0.18647 -0.3621,0.33903 -0.54856,0.33903 -0.18647,0 -0.24474,-0.15256 -0.1295,-0.33903 z m 1.69514,-1.35611 c 0.11525,-0.18647 0.3621,-0.33903 0.54856,-0.33903 0.18647,0 0.24474,0.15256 0.1295,0.33903 -0.11524,0.18646 -0.36209,0.33902 -0.54856,0.33902 -0.18646,0 -0.24474,-0.15256 -0.1295,-0.33902 z M 49.447515,204.12274 c -1.418166,-1.38639 -2.462695,-2.63649 -2.321175,-2.77801 0.264814,-0.26482 4.437786,3.64558 5.021362,4.7054 0.616278,1.11921 -0.124978,0.5901 -2.700187,-1.92739 z m 107.379775,1.92739 c 0.47322,-0.88078 5.12376,-5.28898 5.34565,-5.06709 0.28297,0.28297 -1.65987,2.57408 -3.5781,4.21952 -1.8179,1.55936 -2.26524,1.77387 -1.76755,0.84757 z M 44.822391,199.1848 c -0.115242,-0.18647 0.02832,-0.33903 0.319021,-0.33903 0.290703,0 0.528551,0.15256 0.528551,0.33903 0,0.18646 -0.143559,0.33903 -0.31902,0.33903 -0.175461,0 -0.413309,-0.15257 -0.528552,-0.33903 z m 118.554119,-0.0212 c 0.0816,-0.24474 0.34857,-0.51172 0.5933,-0.5933 0.25428,-0.0848 0.38141,0.0424 0.29665,0.29665 -0.0816,0.24473 -0.34856,0.51172 -0.5933,0.5933 -0.25427,0.0848 -0.3814,-0.0424 -0.29665,-0.29665 z m 5.37168,-6.60983 c -0.006,-0.19744 0.21321,-0.65513 0.48698,-1.01709 0.27376,-0.36195 0.50261,-0.49655 0.50854,-0.29911 0.006,0.19745 -0.21321,0.65513 -0.48698,1.01709 -0.27376,0.36195 -0.50261,0.49655 -0.50854,0.29911 z m 2.60031,-4.54582 c 0.2134,-0.81604 1.11822,-1.66357 1.11822,-1.04742 0,0.58945 -0.65438,1.71437 -0.99727,1.71437 -0.16245,0 -0.21688,-0.30013 -0.12095,-0.66695 z m -134.267266,0.1019 c -0.12431,-0.12431 -0.22138,-0.46758 -0.215709,-0.76282 0.0085,-0.44084 0.07462,-0.42619 0.370105,0.0819 0.365057,0.62777 0.259224,1.0945 -0.154396,0.68088 z m 95.210576,-1.1301 c -0.11524,-0.18646 -0.048,-0.33903 0.14951,-0.33903 0.19747,0 0.35904,0.15257 0.35904,0.33903 0,0.18647 -0.0673,0.33903 -0.14951,0.33903 -0.0822,0 -0.24379,-0.15256 -0.35904,-0.33903 z m 40.51394,-0.9983 c 0,-0.29395 1.28286,-3.2479 3.12702,-7.20037 0.86638,-1.85686 1.4728,-1.86946 0.74003,-0.0154 -0.61485,1.55571 -3.59163,7.53598 -3.75116,7.53598 -0.0637,0 -0.11589,-0.14412 -0.11589,-0.32025 z M 34.93046,184.19821 c -1.438537,-2.60923 -2.282259,-4.65142 -2.027124,-4.90655 0.3078,-0.3078 0.29947,-0.32207 1.889423,3.23508 1.582278,3.53997 1.655083,4.42371 0.137701,1.67147 z m -4.52685,-11.13742 c -0.20512,-0.38327 -0.313562,-0.875 -0.240982,-1.09274 0.07258,-0.21774 0.303382,0.0958 0.512894,0.69685 0.430468,1.23484 0.288051,1.44219 -0.271912,0.39589 z m 147.93004,-0.32023 c 0.70391,-3.16648 1.05034,-4.04467 1.44131,-3.6537 0.23525,0.23526 -0.84491,3.70108 -1.29721,4.16224 -0.21831,0.22258 -0.2678,0.0479 -0.1441,-0.50854 z m 3.59369,-17.17746 c -0.1516,-2.92795 -0.0905,-15.36926 0.0754,-15.36928 0.84294,-10e-5 0.98277,1.29871 0.89581,8.32099 -0.0686,5.54242 -0.19734,7.42299 -0.51528,7.5288 -0.23308,0.0776 -0.43826,-0.13866 -0.45597,-0.48051 z M 26.305492,155.5349 c -0.02191,-0.13985 -0.07092,-3.30553 -0.108923,-7.03485 -0.05107,-5.01204 0.04893,-7.06796 0.38341,-7.88242 0.248876,-0.60601 0.488595,-1.10187 0.532709,-1.1019 0.06526,-5e-5 0.003,14.38253 -0.06862,15.84965 -0.02199,0.45053 -0.671214,0.59953 -0.738575,0.16952 z m 105.843578,-1.29961 c 0.0163,-0.39495 0.0966,-0.47529 0.20482,-0.20483 0.0979,0.24473 0.0859,0.53715 -0.0267,0.6498 -0.11265,0.11266 -0.19278,-0.0876 -0.17806,-0.44497 z m -0.47881,-1.7234 c -0.12431,-0.12431 -0.22602,-0.54805 -0.22602,-0.94165 0,-0.3936 -0.20829,-1.01656 -0.46287,-1.38437 -0.25459,-0.3678 -0.57999,-1.05014 -0.72312,-1.51631 -0.25677,-0.83628 -0.25089,-0.83922 0.442,-0.22062 0.38623,0.34483 0.86736,1.39689 1.06917,2.33792 0.36369,1.6958 0.33694,2.16113 -0.0992,1.72503 z m 19.09862,-0.98059 c 0,-0.2907 0.15256,-0.43426 0.33903,-0.31902 0.18647,0.11524 0.33903,0.35309 0.33903,0.52855 0,0.17546 -0.15256,0.31902 -0.33903,0.31902 -0.18647,0 -0.33903,-0.23785 -0.33903,-0.52855 z m -36.95413,-1.76921 c 0,-0.44548 1.03581,-1.77058 1.38404,-1.77058 0.18068,0 0.0918,0.45769 -0.19744,1.01708 -0.4831,0.93421 -1.1866,1.38094 -1.1866,0.7535 z m 36.64187,-0.95126 c 0.0163,-0.39495 0.0966,-0.47529 0.20483,-0.20483 0.0979,0.24473 0.0859,0.53714 -0.0267,0.6498 -0.11266,0.11266 -0.19279,-0.0876 -0.17807,-0.44497 z m -22.38144,-2.52122 c -0.64096,-0.54795 -1.08997,-1.07168 -0.99781,-1.16384 0.23495,-0.23495 2.67173,1.46228 2.67173,1.86087 0,0.53874 -0.44533,0.3533 -1.67392,-0.69703 z m -8.31137,-1.32338 c -0.0977,-0.15811 0.2401,-0.36773 0.7507,-0.46582 1.21064,-0.23257 1.30347,-0.1017 0.26387,0.37198 -0.4603,0.20972 -0.91685,0.25195 -1.01457,0.0938 z m 28.08432,-4.3873 c -0.35148,-0.62729 -0.97772,-1.65709 -1.39165,-2.28844 -0.41393,-0.63135 -0.64277,-1.1479 -0.50854,-1.14789 0.29703,1e-5 1.84049,1.90855 2.41425,2.98528 0.6757,1.26805 0.18496,1.69863 -0.51406,0.45105 z m -34.71144,-2.69919 c 0,-0.40078 1.65791,-1.90449 1.86807,-1.69432 0.22908,0.22908 -1.14428,1.97425 -1.55365,1.97425 -0.17293,0 -0.31442,-0.12597 -0.31442,-0.27993 z m 30.53245,-2.65357 c -0.38908,-0.49463 -0.64206,-0.96468 -0.56219,-1.04455 0.26283,-0.26283 1.53669,0.58988 1.9026,1.27359 0.55699,1.04075 -0.48113,0.86336 -1.34041,-0.22904 z m -26.38124,-1.55863 c 0.13768,-0.41866 2.53652,-1.93304 3.07912,-1.94384 0.15413,-0.003 -0.4193,0.5284 -1.27429,1.18103 -1.67357,1.27746 -2.02259,1.42497 -1.80483,0.76281 z m 23.31012,-0.95289 -1.1866,-1.01941 1.44256,0.72462 c 1.52095,0.76398 2.11776,1.3386 1.37444,1.32332 -0.24409,-0.005 -0.97777,-0.46786 -1.6304,-1.02853 z m -18.64658,-1.66521 c 0,-0.45957 0.60248,-0.74495 0.8222,-0.38946 0.10504,0.16997 -0.037,0.39652 -0.31561,0.50344 -0.27862,0.10692 -0.50659,0.0556 -0.50659,-0.11398 z m 2.98769,-0.91902 c 0.24473,-0.0979 0.53715,-0.0859 0.6498,0.0267 0.11266,0.11265 -0.0876,0.19278 -0.44497,0.17806 -0.39495,-0.0163 -0.47529,-0.0966 -0.20483,-0.20483 z m 2.26725,-0.44647 c 0.11525,-0.18646 0.27681,-0.33902 0.35904,-0.33902 0.0822,0 0.14951,0.15256 0.14951,0.33902 0,0.18647 -0.16157,0.33903 -0.35904,0.33903 -0.19747,0 -0.26475,-0.15256 -0.14951,-0.33903 z m 52.06769,-2.23193 c 0.0163,-0.39496 0.0966,-0.47529 0.20482,-0.20483 0.0979,0.24473 0.0859,0.53714 -0.0267,0.6498 -0.11265,0.11266 -0.19278,-0.0876 -0.17806,-0.44497 z M 29.735611,126.01498 c 0,-0.71618 1.118015,-3.45068 1.410831,-3.45068 0.346077,0 0.175477,0.76418 -0.586572,2.62747 -0.42558,1.04059 -0.824259,1.43876 -0.824259,0.82321 z m 148.958849,-0.26614 c -0.12637,-0.353 -0.29153,-0.75625 -0.36702,-0.8961 -0.0755,-0.13984 0.007,-0.25427 0.18225,-0.25427 0.33817,0 0.81458,1.39216 0.56263,1.64411 -0.0814,0.0814 -0.25149,-0.14073 -0.37786,-0.49374 z M 77.045621,123.26743 c -0.08939,-0.14464 0.480797,-0.47486 1.267097,-0.73383 0.786302,-0.25896 2.230592,-1.12256 3.209538,-1.91911 1.945079,-1.58268 2.267488,-1.5304 0.833793,0.13519 -0.93022,1.08069 -5.004688,3.01245 -5.310428,2.51775 z m -7.130615,-0.53614 c -0.743396,-0.26472 -1.52303,-0.71571 -1.732519,-1.00221 -0.209489,-0.28649 -0.549406,-0.52089 -0.755373,-0.52089 -0.205963,0 -0.537781,-0.30513 -0.737367,-0.67806 -0.493351,-0.92184 -0.133961,-0.85167 1.137658,0.22212 0.586317,0.4951 1.828844,1.25642 2.761173,1.69183 1.865106,0.87103 1.455911,1.0455 -0.673572,0.28721 z M 174.72517,115.7235 c -1.06468,-2.27071 -1.89129,-4.26203 -1.83691,-4.42516 0.12885,-0.38655 3.49945,6.40576 3.78203,7.6214 0.1192,0.51278 0.16586,0.93233 0.10369,0.93233 -0.0622,0 -0.98413,-1.85785 -2.04881,-4.12857 z m -109.565836,2.64322 c -0.31213,-0.47637 -0.501475,-1.06171 -0.420769,-1.30077 0.08297,-0.24577 0.402349,0.0579 0.73493,0.6987 0.711286,1.37053 0.479902,1.81397 -0.314161,0.60207 z M 32.78687,118.09096 c 0,-1.11041 2.914709,-6.96417 3.283816,-6.59506 0.165772,0.16577 -2.13666,5.4197 -2.840694,6.48219 -0.364764,0.55048 -0.443122,0.57044 -0.443122,0.11287 z m 51.299637,-0.48488 c 0.09841,-0.34966 0.278305,-0.98123 0.399759,-1.40349 0.121453,-0.42226 0.375694,-0.67202 0.564984,-0.55504 0.229326,0.14174 0.221183,0.33568 -0.02441,0.58128 -0.202712,0.20271 -0.368568,0.63417 -0.368568,0.95881 0,0.32463 -0.168908,0.69463 -0.375349,0.82222 -0.242162,0.14966 -0.311859,0.006 -0.196416,-0.40378 z m 0.25421,-6.82303 c -0.189032,-0.69925 -0.59188,-1.62449 -0.895222,-2.0561 -0.30334,-0.4316 -0.477088,-0.85917 -0.386107,-0.95016 0.268165,-0.26816 1.579179,2.06017 1.810078,3.21466 0.298305,1.49152 -0.113032,1.3294 -0.528749,-0.2084 z m -19.942615,0 c 1.460323,-3.0543 2.266126,-4.2711 3.189074,-4.81565 1.573155,-0.92819 1.67764,-0.42286 0.177984,0.86079 -0.711252,0.60881 -1.663475,1.80492 -2.116048,2.65803 -0.452573,0.8531 -0.946548,1.5511 -1.097721,1.5511 -0.151173,0 -0.220155,-0.11442 -0.153289,-0.25427 z m -27.532105,-1.14509 c -0.0059,-0.30348 0.218063,-0.74171 0.497761,-0.97384 0.6518,-0.54094 0.658659,0.011 0.01078,0.86753 -0.418172,0.55288 -0.499484,0.56987 -0.508543,0.10631 z m 134.595563,-0.27349 c -0.4423,-0.82645 -0.44723,-1.1389 -0.0138,-0.87099 0.54448,0.3365 1.09311,1.52676 0.70374,1.52676 -0.18647,0 -0.49696,-0.2951 -0.68999,-0.65577 z M 44.652877,98.524131 c 0,-0.157782 0.228844,-0.4768 0.508543,-0.70893 0.41399,-0.343581 0.508543,-0.326526 0.508543,0.09173 0,0.282581 -0.228844,0.601599 -0.508543,0.70893 -0.279699,0.10733 -0.508543,0.06605 -0.508543,-0.09173 z M 163.48246,98.15423 c -0.11524,-0.186466 -0.057,-0.339029 0.1295,-0.339029 0.18647,0 0.43332,0.152563 0.54856,0.339029 0.11524,0.186466 0.057,0.339029 -0.1295,0.339029 -0.18647,0 -0.43332,-0.152563 -0.54856,-0.339029 z M 46.687049,96.28162 c 0,-0.846784 5.247424,-5.876069 5.679804,-5.443689 0.11876,0.118761 -0.843626,1.290332 -2.138637,2.60349 -2.2039,2.234784 -3.541167,3.307342 -3.541167,2.840199 z M 159.21378,93.777677 c -1.51155,-1.534056 -2.66531,-2.872159 -2.56391,-2.97356 0.27762,-0.277613 3.05989,2.104544 4.47487,3.831339 2.12072,2.58806 0.97964,2.075862 -1.91096,-0.857779 z M 53.637139,89.339483 c 0.115243,-0.186466 0.362095,-0.339029 0.54856,-0.339029 0.186466,0 0.24474,0.152563 0.129498,0.339029 -0.115243,0.186465 -0.362094,0.339028 -0.54856,0.339028 -0.186466,0 -0.24474,-0.152563 -0.129498,-0.339028 z m 101.030571,0 c -0.11524,-0.186466 -0.057,-0.339029 0.1295,-0.339029 0.18647,0 0.43332,0.152563 0.54856,0.339029 0.11524,0.186465 0.057,0.339028 -0.1295,0.339028 -0.18646,0 -0.43331,-0.152563 -0.54856,-0.339028 z M 61.906614,83.217209 c 0.445965,-0.371391 0.892517,-0.593583 0.992337,-0.493761 0.216182,0.216179 -0.97822,1.170225 -1.46415,1.169513 -0.186466,-2.73e-4 0.02587,-0.304362 0.471813,-0.675752 z m 3.257503,-2.014416 c 0.115243,-0.186466 0.362093,-0.339029 0.548559,-0.339029 0.186466,0 0.244742,0.152563 0.129499,0.339029 -0.115243,0.186465 -0.362093,0.339028 -0.548559,0.339028 -0.186466,0 -0.244741,-0.152563 -0.129499,-0.339028 z m 77.976613,0 c -0.11524,-0.186466 -0.057,-0.339029 0.1295,-0.339029 0.18647,0 0.43332,0.152563 0.54856,0.339029 0.11524,0.186465 0.057,0.339028 -0.1295,0.339028 -0.18646,0 -0.43331,-0.152563 -0.54856,-0.339028 z M 67.19829,79.978366 c 1.242639,-0.961779 3.94621,-2.206651 4.519511,-2.08103 0.342657,0.07508 -0.40044,0.617816 -1.883576,1.375701 -2.521882,1.288689 -3.848173,1.64358 -2.635935,0.705329 z m 72.3221,-0.480213 c -2.07076,-1.069123 -2.99232,-1.942443 -1.5923,-1.508954 1.05978,0.32814 3.0069,1.332706 3.85653,1.989671 1.15067,0.889743 -0.14094,0.615521 -2.26423,-0.480717 z M 72.792265,77.509749 c 0,-0.326089 0.824518,-0.721082 1.468601,-0.703548 0.21783,0.0059 0.09991,0.234775 -0.262042,0.508543 -0.74708,0.565063 -1.206559,0.639324 -1.206559,0.195005 z m 62.042265,-0.375301 c -0.43826,-0.283225 -0.42931,-0.329364 0.0648,-0.333838 0.31531,-0.0028 0.66758,0.147372 0.78282,0.333838 0.26518,0.429073 -0.18363,0.429073 -0.84757,0 z M 74.826437,76.609329 c 0,-0.317113 2.843597,-1.495248 3.559803,-1.474868 0.419771,0.01194 0.03234,0.330302 -1.017087,0.835764 -1.648286,0.793901 -2.542716,1.018713 -2.542716,0.639104 z m 56.787323,-0.708165 c -1.55421,-0.770871 -1.59649,-0.821629 -0.50855,-0.610486 1.20026,0.23294 3.05126,1.048218 3.05126,1.343933 0,0.338653 -0.91096,0.07588 -2.54271,-0.733447 z m -44.751801,-3.17409 c 0.115242,-0.186466 0.620077,-0.328306 1.121853,-0.3152 0.814625,0.02128 0.83971,0.05503 0.234262,0.3152 -0.941897,0.404747 -1.606264,0.404747 -1.356115,0 z m 33.669791,-0.231595 c 0.24474,-0.09794 0.53715,-0.08589 0.64981,0.02677 0.11266,0.112656 -0.0876,0.192785 -0.44498,0.178065 -0.39495,-0.01627 -0.47528,-0.0966 -0.20483,-0.20483 z M 89.680135,72.15645 c 0.244735,-0.09794 0.537147,-0.08589 0.649807,0.02677 0.112656,0.112657 -0.08759,0.192786 -0.444976,0.178065 -0.394951,-0.01627 -0.475284,-0.0966 -0.204831,-0.20483 z m 6.629094,-1.269819 c 1.369192,-0.604945 15.182921,-0.550592 15.386601,0.06054 0.11058,0.331783 -1.64975,0.417808 -8.10845,0.39625 -6.957412,-0.02322 -8.097512,-0.09478 -7.278151,-0.456792 z"
         id="path2252" />
      <path
         style="fill:#f8fafa;stroke-width:0.339029"
         d="m 96.334806,226.48739 c -0.615412,-0.46547 -0.570135,-0.50041 0.698016,-0.53873 4.753828,-0.14365 14.384458,-0.0356 14.709058,0.16501 1.08894,0.67301 -0.59075,0.87149 -7.37515,0.87149 -5.958679,0 -7.500124,-0.0955 -8.031924,-0.49777 z m -9.303333,-1.87544 c -0.421107,-0.27214 -0.391965,-0.32864 0.169515,-0.32864 0.372931,0 0.906902,0.14789 1.1866,0.32864 0.421108,0.27215 0.391965,0.32865 -0.169514,0.32865 -0.372932,0 -0.906902,-0.14789 -1.186601,-0.32865 z m 33.733367,0 c 0.37293,-0.16025 0.98318,-0.29975 1.35611,-0.31 0.55965,-0.0154 0.58925,0.0387 0.16952,0.31 -0.2797,0.18076 -0.88996,0.32027 -1.35612,0.31001 -0.77623,-0.0171 -0.7905,-0.0432 -0.16951,-0.31001 z m -45.247031,-3.41869 c -1.863123,-0.66111 -2.658708,-1.16852 -2.336827,-1.4904 0.190466,-0.19047 4.357686,1.74577 4.357686,2.02473 0,0.0947 -0.03814,0.16099 -0.08476,0.14736 -0.04662,-0.0136 -0.917862,-0.32038 -1.936101,-0.68169 z m 56.082421,0.38932 c 0.1669,-0.27004 3.74824,-2.05606 4.12284,-2.05606 0.0707,0 0.12855,0.16096 0.12855,0.35769 0,0.19672 -0.84345,0.73069 -1.87433,1.1866 -1.98528,0.87799 -2.69826,1.03149 -2.37706,0.51177 z m 6.28556,-2.65709 c 0,-0.33841 5.53236,-3.13339 5.75719,-2.90856 0.19528,0.19528 -0.33216,0.53569 -3.19477,2.06194 -2.14566,1.144 -2.56242,1.2817 -2.56242,0.84662 z m -69.374597,-0.89306 c -0.956099,-0.44518 -1.85244,-0.99401 -1.991872,-1.21961 -0.35532,-0.57492 0.706746,-0.20405 2.937891,1.02589 2.171496,1.19707 1.502887,1.33398 -0.946019,0.19372 z m 78.161467,-4.066 c 0.65184,-0.78582 1.72302,-1.34663 1.72302,-0.90209 0,0.18824 -0.49583,0.59859 -1.10184,0.91189 -1.0382,0.53674 -1.07408,0.53617 -0.62118,-0.01 z m 2.57059,-1.89854 c 0.11525,-0.18646 0.3621,-0.33903 0.54856,-0.33903 0.18647,0 0.24474,0.15257 0.1295,0.33903 -0.11524,0.18647 -0.36209,0.33903 -0.54856,0.33903 -0.18646,0 -0.24474,-0.15256 -0.1295,-0.33903 z m 3.72932,-2.71223 c 0.11524,-0.18646 0.36209,-0.33903 0.54856,-0.33903 0.18646,0 0.24474,0.15257 0.1295,0.33903 -0.11525,0.18647 -0.3621,0.33903 -0.54856,0.33903 -0.18647,0 -0.24474,-0.15256 -0.1295,-0.33903 z m 1.77425,-1.39818 c 0.22998,-0.2317 0.50354,-0.33587 0.60792,-0.23149 0.10438,0.10439 -0.0838,0.29396 -0.41813,0.42127 -0.48319,0.18399 -0.52213,0.14505 -0.18979,-0.18978 z M 49.589271,204.1014 c -1.480465,-1.39032 -2.582374,-2.63723 -2.448688,-2.77092 0.254499,-0.25449 4.44113,3.69177 5.007119,4.71965 0.179681,0.32632 0.283185,0.59011 0.230008,0.58621 -0.05318,-0.004 -1.307975,-1.14463 -2.788439,-2.53494 z m 107.223469,1.97439 c 0.51466,-0.96041 4.80667,-4.96822 5.0548,-4.72009 0.24215,0.24215 -3.77243,4.45133 -4.76753,4.99863 -0.53233,0.29278 -0.57254,0.25379 -0.28727,-0.27854 z M 44.991906,199.1848 c 0,-0.18647 0.152563,-0.33903 0.339028,-0.33903 0.186466,0 0.339029,0.15256 0.339029,0.33903 0,0.18646 -0.152563,0.33903 -0.339029,0.33903 -0.186465,0 -0.339028,-0.15257 -0.339028,-0.33903 z M 163.5185,199.04361 c 0.11331,-0.29528 0.35497,-0.53687 0.53703,-0.53687 0.44561,0 0.16658,0.77054 -0.34022,0.93947 -0.24774,0.0826 -0.32351,-0.0724 -0.19681,-0.4026 z m 5.23488,-6.46987 c -0.008,-0.50378 0.59686,-1.36484 0.80966,-1.15204 0.10145,0.10145 -0.038,0.47844 -0.30981,0.83776 -0.27184,0.35932 -0.49677,0.50074 -0.49985,0.31428 z m 2.59512,-4.56578 c 0.2134,-0.81604 1.11822,-1.66357 1.11822,-1.04742 0,0.58945 -0.65438,1.71437 -0.99727,1.71437 -0.16245,0 -0.21688,-0.30013 -0.12095,-0.66695 z m -134.267266,0.1019 c -0.12431,-0.12431 -0.22138,-0.46758 -0.215709,-0.76282 0.0085,-0.44084 0.07462,-0.42619 0.370105,0.0819 0.365057,0.62777 0.259224,1.0945 -0.154396,0.68088 z m 135.812726,-2.48621 c 0.50692,-1.31366 2.66561,-6.07684 3.30346,-7.28912 l 0.71353,-1.35611 -0.1806,1.10751 c -0.16685,1.0232 -0.77547,2.39973 -2.68387,6.07014 -0.74314,1.42929 -1.51896,2.41718 -1.15252,1.46758 z M 34.910382,183.85194 c -0.478317,-0.59663 -1.642447,-2.96668 -1.9594,-3.98912 -0.234524,-0.75654 -0.203613,-0.79653 0.295527,-0.38227 0.306596,0.25445 0.557447,0.65358 0.557447,0.88696 0,0.23338 0.398891,1.13802 0.886424,2.01032 0.837108,1.49775 0.973933,2.41454 0.220002,1.47411 z M 30.40361,173.06079 c -0.20512,-0.38327 -0.313562,-0.875 -0.240982,-1.09274 0.07258,-0.21774 0.303382,0.0958 0.512894,0.69685 0.430468,1.23484 0.288051,1.44219 -0.271912,0.39589 z m 147.93004,-0.32023 c 0.70391,-3.16648 1.05034,-4.04467 1.44131,-3.6537 0.23525,0.23526 -0.84491,3.70108 -1.29721,4.16224 -0.21831,0.22258 -0.2678,0.0479 -0.1441,-0.50854 z m 3.59369,-17.17746 c -0.1516,-2.92795 -0.0905,-15.36926 0.0754,-15.36928 0.84294,-10e-5 0.98277,1.29871 0.89581,8.32099 -0.0686,5.54242 -0.19734,7.42299 -0.51528,7.5288 -0.23308,0.0776 -0.43826,-0.13866 -0.45597,-0.48051 z M 26.305492,155.5349 c -0.02191,-0.13985 -0.07092,-3.30553 -0.108923,-7.03485 -0.05107,-5.01204 0.04893,-7.06796 0.38341,-7.88242 0.248876,-0.60601 0.488595,-1.10187 0.532709,-1.1019 0.06526,-5e-5 0.003,14.38253 -0.06862,15.84965 -0.02199,0.45053 -0.671214,0.59953 -0.738575,0.16952 z m 105.843578,-1.29961 c 0.0163,-0.39495 0.0966,-0.47529 0.20482,-0.20483 0.0979,0.24473 0.0859,0.53715 -0.0267,0.6498 -0.11265,0.11266 -0.19278,-0.0876 -0.17806,-0.44497 z m -0.47881,-1.7234 c -0.12431,-0.12431 -0.22602,-0.50102 -0.22602,-0.83713 0,-0.33611 -0.32396,-1.23265 -0.71992,-1.99231 -0.39595,-0.75966 -0.63699,-1.46413 -0.53563,-1.56549 0.31353,-0.31352 1.30814,1.48295 1.64084,2.96369 0.31619,1.40724 0.26617,1.85668 -0.15927,1.43124 z m 19.09862,-0.98059 c 0,-0.2907 0.15256,-0.43426 0.33903,-0.31902 0.18647,0.11524 0.33903,0.35309 0.33903,0.52855 0,0.17546 -0.15256,0.31902 -0.33903,0.31902 -0.18647,0 -0.33903,-0.23785 -0.33903,-0.52855 z m -36.95413,-1.76921 c 0,-0.44548 1.03581,-1.77058 1.38404,-1.77058 0.18068,0 0.0918,0.45769 -0.19744,1.01708 -0.4831,0.93421 -1.1866,1.38094 -1.1866,0.7535 z m 36.64187,-0.95126 c 0.0163,-0.39495 0.0966,-0.47529 0.20483,-0.20483 0.0979,0.24473 0.0859,0.53714 -0.0267,0.6498 -0.11266,0.11266 -0.19279,-0.0876 -0.17807,-0.44497 z m -22.38144,-2.52122 c -0.64096,-0.54795 -1.08997,-1.07168 -0.99781,-1.16384 0.23495,-0.23495 2.67173,1.46228 2.67173,1.86087 0,0.53874 -0.44533,0.3533 -1.67392,-0.69703 z m -8.31137,-1.32338 c -0.0977,-0.15811 0.2401,-0.36773 0.7507,-0.46582 1.21064,-0.23257 1.30347,-0.1017 0.26387,0.37198 -0.4603,0.20972 -0.91685,0.25195 -1.01457,0.0938 z m 28.08432,-4.3873 c -0.35148,-0.62729 -0.97772,-1.65709 -1.39165,-2.28844 -0.41393,-0.63135 -0.64277,-1.1479 -0.50854,-1.14789 0.29703,1e-5 1.84049,1.90855 2.41425,2.98528 0.6757,1.26805 0.18496,1.69863 -0.51406,0.45105 z m -34.71144,-2.69919 c 0,-0.40078 1.65791,-1.90449 1.86807,-1.69432 0.22908,0.22908 -1.14428,1.97425 -1.55365,1.97425 -0.17293,0 -0.31442,-0.12597 -0.31442,-0.27993 z m 30.53245,-2.65357 c -0.38908,-0.49463 -0.64206,-0.96468 -0.56219,-1.04455 0.26283,-0.26283 1.53669,0.58988 1.9026,1.27359 0.55699,1.04075 -0.48113,0.86336 -1.34041,-0.22904 z m -26.38124,-1.55863 c 0.13768,-0.41866 2.53652,-1.93304 3.07912,-1.94384 0.15413,-0.003 -0.4193,0.5284 -1.27429,1.18103 -1.67357,1.27746 -2.02259,1.42497 -1.80483,0.76281 z m 23.31012,-0.95289 -1.1866,-1.01941 1.44256,0.72462 c 1.52095,0.76398 2.11776,1.3386 1.37444,1.32332 -0.24409,-0.005 -0.97777,-0.46786 -1.6304,-1.02853 z m -18.64658,-1.66521 c 0,-0.45957 0.60248,-0.74495 0.8222,-0.38946 0.10504,0.16997 -0.037,0.39652 -0.31561,0.50344 -0.27862,0.10692 -0.50659,0.0556 -0.50659,-0.11398 z m 2.98769,-0.91902 c 0.24473,-0.0979 0.53715,-0.0859 0.6498,0.0267 0.11266,0.11265 -0.0876,0.19278 -0.44497,0.17806 -0.39495,-0.0163 -0.47529,-0.0966 -0.20483,-0.20483 z m 2.26725,-0.44647 c 0.11525,-0.18646 0.27681,-0.33902 0.35904,-0.33902 0.0822,0 0.14951,0.15256 0.14951,0.33902 0,0.18647 -0.16157,0.33903 -0.35904,0.33903 -0.19747,0 -0.26475,-0.15256 -0.14951,-0.33903 z m 52.06769,-2.23193 c 0.0163,-0.39496 0.0966,-0.47529 0.20482,-0.20483 0.0979,0.24473 0.0859,0.53714 -0.0267,0.6498 -0.11265,0.11266 -0.19278,-0.0876 -0.17806,-0.44497 z M 29.735611,126.01498 c 0,-0.71618 1.118015,-3.45068 1.410831,-3.45068 0.346077,0 0.175477,0.76418 -0.586572,2.62747 -0.42558,1.04059 -0.824259,1.43876 -0.824259,0.82321 z m 148.958849,-0.26614 c -0.12637,-0.353 -0.29153,-0.75625 -0.36702,-0.8961 -0.0755,-0.13984 0.007,-0.25427 0.18225,-0.25427 0.33817,0 0.81458,1.39216 0.56263,1.64411 -0.0814,0.0814 -0.25149,-0.14073 -0.37786,-0.49374 z M 77.045621,123.26743 c -0.08939,-0.14464 0.480797,-0.47486 1.267097,-0.73383 0.786302,-0.25896 2.230592,-1.12256 3.209538,-1.91911 1.945079,-1.58268 2.267488,-1.5304 0.833793,0.13519 -0.93022,1.08069 -5.004688,3.01245 -5.310428,2.51775 z m -7.092793,-0.52314 c -1.302925,-0.46442 -2.166893,-1.06706 -1.884363,-1.31438 0.0808,-0.0707 1.062289,0.30766 2.181084,0.84087 2.125941,1.0132 1.960047,1.27793 -0.296721,0.47351 z m -3.263081,-2.21416 c -0.199586,-0.37293 -0.235466,-0.67806 -0.07973,-0.67806 0.360466,0 1.096819,0.72835 1.096819,1.08489 0,0.52623 -0.658746,0.26273 -1.017086,-0.40683 z m 108.832693,-3.13602 c -0.62301,-1.35188 -1.193,-2.57238 -1.26666,-2.71223 -0.0737,-0.13985 0.0296,-0.25427 0.22938,-0.25427 0.3778,0 1.7629,2.86896 2.16874,4.49213 0.37459,1.49814 0.0773,1.09726 -1.13146,-1.52563 z m -110.363106,0.97261 c -0.31213,-0.47637 -0.501475,-1.06171 -0.420769,-1.30077 0.08297,-0.24577 0.402349,0.0579 0.73493,0.6987 0.711286,1.37053 0.479902,1.81397 -0.314161,0.60207 z M 32.78687,117.86601 c 0,-0.61766 1.328563,-3.434 2.222082,-4.71045 1.092016,-1.56002 0.873404,-0.64016 -0.592181,2.49172 -0.957397,2.04591 -1.629901,2.96137 -1.629901,2.21873 z m 51.299637,-0.25993 c 0.09841,-0.34966 0.278305,-0.98123 0.399759,-1.40349 0.121453,-0.42226 0.375694,-0.67202 0.564984,-0.55504 0.229326,0.14174 0.221183,0.33568 -0.02441,0.58128 -0.202712,0.20271 -0.368568,0.63417 -0.368568,0.95881 0,0.32463 -0.168908,0.69463 -0.375349,0.82222 -0.242162,0.14966 -0.311859,0.006 -0.196416,-0.40378 z m 88.945263,-5.43866 c -0.12431,-0.12431 -0.22138,-0.46758 -0.21571,-0.76282 0.008,-0.44084 0.0746,-0.42619 0.37011,0.0819 0.36506,0.62777 0.25922,1.0945 -0.1544,0.68088 z m -88.786771,-1.63136 c -0.309031,-0.92832 -0.497033,-1.7527 -0.417782,-1.83195 0.246908,-0.24691 1.213222,2.36904 1.093324,2.95979 -0.06252,0.30801 -0.36651,-0.19951 -0.675542,-1.12784 z m -19.846897,0.24699 c 1.476189,-3.08749 2.263031,-4.26927 3.217421,-4.83238 1.460173,-0.86152 1.398276,-0.5586 -0.251597,1.2313 -0.747999,0.81148 -1.61535,2.0109 -1.927453,2.66539 -0.3121,0.65448 -0.700766,1.18996 -0.8637,1.18996 -0.162934,0 -0.241537,-0.11442 -0.174671,-0.25427 z m -27.532105,-1.14509 c -0.0059,-0.30348 0.218063,-0.74171 0.497761,-0.97384 0.6518,-0.54094 0.658659,0.011 0.01078,0.86753 -0.418172,0.55288 -0.499484,0.56987 -0.508543,0.10631 z M 171.47897,109.397 c -0.23281,-0.43502 -0.3564,-0.85785 -0.27463,-0.93962 0.26616,-0.26616 0.99156,0.8497 0.8427,1.29628 -0.0916,0.27479 -0.30022,0.14381 -0.56807,-0.35666 z m -88.515842,-1.43095 c 0,-0.19747 0.152563,-0.26474 0.339029,-0.1495 0.186466,0.11524 0.339028,0.27681 0.339028,0.35904 0,0.0822 -0.152562,0.1495 -0.339028,0.1495 -0.186466,0 -0.339029,-0.16156 -0.339029,-0.35904 z M 44.652877,98.524131 c 0,-0.157782 0.228844,-0.4768 0.508543,-0.70893 0.41399,-0.343581 0.508543,-0.326526 0.508543,0.09173 0,0.282581 -0.228844,0.601599 -0.508543,0.70893 -0.279699,0.10733 -0.508543,0.06605 -0.508543,-0.09173 z M 163.48246,98.15423 c -0.11524,-0.186466 -0.048,-0.339029 0.14951,-0.339029 0.19747,0 0.35903,0.152563 0.35903,0.339029 0,0.186466 -0.0673,0.339029 -0.1495,0.339029 -0.0822,0 -0.2438,-0.152563 -0.35904,-0.339029 z m -3.13626,-3.227086 c -0.76651,-0.656103 -1.90005,-1.835823 -2.51898,-2.6216 l -1.12533,-1.428686 1.02758,0.727149 c 1.04957,0.742711 4.22736,3.999167 4.22736,4.332012 0,0.325728 -0.19182,0.205575 -1.61063,-1.008875 z M 47.365107,95.517665 c 0,-0.484323 4.723673,-4.957806 4.972422,-4.709058 0.134889,0.134889 -0.81021,1.308866 -2.10022,2.608838 -2.214117,2.231213 -2.872202,2.71242 -2.872202,2.10022 z m 6.272032,-6.178182 c 0.115243,-0.186466 0.362095,-0.339029 0.54856,-0.339029 0.186466,0 0.24474,0.152563 0.129498,0.339029 -0.115243,0.186465 -0.362094,0.339028 -0.54856,0.339028 -0.186466,0 -0.24474,-0.152563 -0.129498,-0.339028 z m 8.269475,-6.122274 c 0.445965,-0.371391 0.892517,-0.593583 0.992337,-0.493761 0.216182,0.216179 -0.97822,1.170225 -1.46415,1.169513 -0.186466,-2.73e-4 0.02587,-0.304362 0.471813,-0.675752 z M 67.19829,79.97887 c 0.849627,-0.656965 2.796754,-1.661531 3.85653,-1.989671 1.437123,-0.444978 0.453078,0.455385 -1.667872,1.526037 -2.148378,1.084497 -3.309768,1.33052 -2.188658,0.463634 z m 72.38264,-0.513328 c -1.21203,-0.582261 -2.02506,-1.1248 -1.80673,-1.205641 0.44482,-0.164709 3.67472,1.382634 4.00644,1.919358 0.2974,0.481218 0.26736,0.471469 -2.19971,-0.713717 z M 73.131294,77.521677 c 0,-0.348441 1.026877,-0.829478 1.26416,-0.592192 0.08252,0.08251 -0.168165,0.320317 -0.557065,0.528451 -0.389151,0.208266 -0.707095,0.236927 -0.707095,0.06374 z m 1.695143,-0.912348 c 0,-0.317113 2.843597,-1.495248 3.559803,-1.474868 0.419771,0.01194 0.03234,0.330302 -1.017087,0.835764 -1.648286,0.793901 -2.542716,1.018713 -2.542716,0.639104 z m 56.787323,-0.708165 c -1.55421,-0.770871 -1.59649,-0.821629 -0.50855,-0.610486 1.20026,0.23294 3.05126,1.048218 3.05126,1.343933 0,0.338653 -0.91096,0.07588 -2.54271,-0.733447 z m -44.751801,-3.17409 c 0.115242,-0.186466 0.620077,-0.328306 1.121853,-0.3152 0.814625,0.02128 0.83971,0.05503 0.234262,0.3152 -0.941897,0.404747 -1.606264,0.404747 -1.356115,0 z m 33.669791,-0.231595 c 0.24474,-0.09794 0.53715,-0.08589 0.64981,0.02677 0.11266,0.112656 -0.0876,0.192785 -0.44498,0.178065 -0.39495,-0.01627 -0.47528,-0.0966 -0.20483,-0.20483 z M 89.680135,72.15645 c 0.244735,-0.09794 0.537147,-0.08589 0.649807,0.02677 0.112656,0.112657 -0.08759,0.192786 -0.444976,0.178065 -0.394951,-0.01627 -0.475284,-0.0966 -0.204831,-0.20483 z m 6.629094,-1.269819 c 1.369192,-0.604945 15.182921,-0.550592 15.386601,0.06054 0.11058,0.331783 -1.64975,0.417808 -8.10845,0.39625 -6.957412,-0.02322 -8.097512,-0.09478 -7.278151,-0.456792 z"
         id="path2250" />
      <path
         style="fill:#f6f9fa;stroke-width:0.339029"
         d="m 97.246495,226.71735 c -0.210754,-0.0703 -0.383187,-0.26758 -0.383187,-0.4385 0,-0.43512 14.478522,-0.40738 14.747752,0.0282 0.11524,0.18646 0.0861,0.35654 -0.0647,0.37795 -0.78481,0.11137 -13.973229,0.14116 -14.299815,0.0323 z m 37.249005,-6.30698 c 0,-0.0733 0.23677,-0.2241 0.52615,-0.33515 0.30171,-0.11577 0.4378,-0.0589 0.31902,0.13324 -0.1991,0.32215 -0.84517,0.47649 -0.84517,0.20191 z m 5.08543,-2.3732 c 0,-0.0733 0.23677,-0.2241 0.52615,-0.33515 0.30171,-0.11577 0.4378,-0.0589 0.31902,0.13324 -0.19909,0.32215 -0.84517,0.47649 -0.84517,0.20191 z M 49.546496,204.00684 c -0.571662,-0.50777 -1.258195,-1.21684 -1.52563,-1.57572 -0.476355,-0.63924 -0.467104,-0.64005 0.454855,-0.04 0.777619,0.50609 2.58187,2.57884 2.218002,2.54807 -0.05931,-0.005 -0.575566,-0.42457 -1.147227,-0.93233 z m 109.221774,0.19776 c 0.98911,-1.13896 2.32386,-2.26695 2.48847,-2.10299 0.20243,0.20161 -2.41,2.84668 -2.81155,2.84668 -0.17752,0 -0.0321,-0.33466 0.32308,-0.74369 z m 16.7549,-24.07016 c -0.003,-0.31531 0.14738,-0.66758 0.33384,-0.78282 0.42908,-0.26519 0.42908,0.18362 0,0.84757 -0.28322,0.43826 -0.32936,0.42931 -0.33384,-0.0647 z m 6.66238,-24.57134 c -0.34423,-0.34423 -0.26973,-14.28519 0.0775,-14.49978 0.16693,-0.10316 0.36937,0.002 0.44987,0.23427 0.20838,0.60056 0.0927,14.09755 -0.12273,14.31292 -0.0982,0.0982 -0.28031,0.0769 -0.40462,-0.0474 z M 26.350515,153.6902 c 0.0037,-1.28715 0.09882,-1.65504 0.333837,-1.29137 0.431885,0.66829 0.431885,2.61482 0,2.88175 -0.209978,0.12977 -0.337053,-0.4756 -0.333837,-1.59038 z m 87.803255,-4.47063 c 0,-0.0704 0.23234,-0.32082 0.51631,-0.5565 0.4317,-0.35828 0.48131,-0.3373 0.30275,0.12801 -0.18236,0.47522 -0.81906,0.80832 -0.81906,0.42849 z m -87.798064,-5.805 c 0,-1.43699 0.09648,-1.88488 0.328646,-1.52563 0.180755,0.2797 0.328646,0.96623 0.328646,1.52563 0,0.5594 -0.147891,1.24593 -0.328646,1.52563 -0.232164,0.35925 -0.328646,-0.0886 -0.328646,-1.52563 z M 147.71762,140.1938 c -0.19958,-0.37294 -0.2866,-0.67806 -0.19337,-0.67806 0.0932,0 0.33282,0.30512 0.5324,0.67806 0.19959,0.37293 0.28661,0.67805 0.19337,0.67805 -0.0932,0 -0.33281,-0.30512 -0.5324,-0.67805 z m -3.89883,-5.08544 c -0.3375,-0.37293 -0.46107,-0.67805 -0.2746,-0.67805 0.18646,0 0.61516,0.30512 0.95266,0.67805 0.3375,0.37294 0.46107,0.67806 0.27461,0.67806 -0.18647,0 -0.61517,-0.30512 -0.95267,-0.67806 z m -26.27473,-1.69514 c 0,-0.18647 0.16157,-0.33903 0.35904,-0.33903 0.19747,0 0.26475,0.15256 0.14951,0.33903 -0.11525,0.18647 -0.27681,0.33903 -0.35904,0.33903 -0.0822,0 -0.14951,-0.15256 -0.14951,-0.33903 z M 80.928955,121.58723 c 0,-0.18647 0.152563,-0.43332 0.339029,-0.54856 0.186466,-0.11524 0.339029,-0.057 0.339029,0.1295 0,0.18647 -0.152563,0.43332 -0.339029,0.54856 -0.186466,0.11524 -0.339029,0.057 -0.339029,-0.1295 z m -46.897699,-6.40209 c 0.106466,-0.42245 0.327723,-0.851 0.491681,-0.95234 0.46398,-0.28675 0.350961,0.3335 -0.193575,1.06234 -0.474359,0.63491 -0.484862,0.63104 -0.298106,-0.11 z m 32.319462,-7.83562 c 0,-0.43354 0.996874,-1.19182 1.243107,-0.94559 0.246233,0.24623 -0.512056,1.24311 -0.945589,1.24311 -0.163635,0 -0.297518,-0.13389 -0.297518,-0.29752 z M 47.704136,95.292098 c 0,-0.337577 2.150539,-2.600749 2.803254,-2.950071 0.559359,-0.29936 0.51844,-0.155143 -0.236997,0.835287 -0.828827,1.086647 -2.566257,2.518418 -2.566257,2.114784 z M 159.58363,93.916371 c -0.82351,-0.839096 -1.33072,-1.52563 -1.12712,-1.52563 0.35054,0 2.82226,2.524671 2.82226,2.882722 0,0.324446 -0.20923,0.156935 -1.69514,-1.357092 z M 67.706833,80.040049 c 0,-0.09323 0.305126,-0.332813 0.678058,-0.5324 0.372931,-0.199587 0.678057,-0.286604 0.678057,-0.193371 0,0.09323 -0.305126,0.332813 -0.678057,0.5324 -0.372932,0.199587 -0.678058,0.286604 -0.678058,0.193371 z m 71.028927,-1.206574 c -0.11877,-0.192182 0.0173,-0.249019 0.31902,-0.133242 0.58734,0.225383 0.6948,0.468387 0.20713,0.468387 -0.17546,0 -0.41223,-0.150815 -0.52615,-0.335145 z M 97.594949,71.072221 c -0.650997,-0.412604 1.036092,-0.689564 2.777581,-0.455981 1.09453,0.146807 1.24473,0.240257 0.71746,0.44637 -0.91066,0.355988 -2.939733,0.361567 -3.495041,0.0096 z m 10.514941,0.0031 c -0.30932,-0.1961 -0.0786,-0.345491 0.73821,-0.478045 1.37033,-0.222374 2.67145,0.03414 2.40011,0.473181 -0.23509,0.380385 -2.54037,0.383958 -3.13832,0.0049 z"
         id="path2248" />
      <path
         style="fill:#f5f6f6;stroke-width:0.339029"
         d="m 97.244383,226.71665 c -0.211914,-0.0706 -0.299064,-0.26797 -0.193664,-0.43851 0.266673,-0.43149 14.293011,-0.40359 14.560341,0.029 0.11524,0.18646 0.0861,0.35654 -0.0647,0.37795 -0.78788,0.11181 -13.973897,0.14094 -14.301927,0.0316 z m 84.946257,-71.14846 c -0.37751,-0.37751 -0.27415,-14.29069 0.10792,-14.52682 0.41592,-0.25705 0.40479,-0.43953 0.46185,7.57574 0.0446,6.2671 -0.0538,7.46711 -0.56977,6.95108 z M 26.382398,153.75495 c 0.01519,-1.40818 0.04234,-1.45484 0.352714,-0.60608 0.226433,0.61922 0.221058,1.11751 -0.01646,1.52563 -0.280726,0.48238 -0.349356,0.29469 -0.336258,-0.91955 z m 0.01264,-10.34038 c -0.0032,-1.41884 0.05395,-1.57573 0.350588,-0.96255 0.244955,0.50635 0.246135,1.02986 0.0038,1.69515 -0.323409,0.88792 -0.350885,0.83112 -0.354408,-0.7326 z m 71.48536,-72.38264 c -0.354475,-0.22908 0.159079,-0.318066 1.695144,-0.293725 1.721238,0.02728 1.981018,0.09158 1.186598,0.293725 -1.469084,0.373819 -2.303298,0.373819 -2.881742,0 z m 10.509892,0 c -0.66431,-0.212749 -0.4584,-0.278747 0.95233,-0.305234 1.1213,-0.02105 1.72091,0.09403 1.59038,0.305234 -0.24179,0.391229 -1.3211,0.391229 -2.54271,0 z"
         id="path2246" />
    </g>
  </g>
</svg>
