<?xml version="1.0" encoding="UTF-8" standalone="no"?>
<!-- Created with Inkscape (http://www.inkscape.org/) -->

<svg
   width="210mm"
   height="297mm"
   viewBox="0 0 210 297"
   version="1.1"
   id="svg5"
   inkscape:version="1.1.1 (3bf5ae0d25, 2021-09-20)"
   sodipodi:docname="tw.svg"
   xmlns:inkscape="http://www.inkscape.org/namespaces/inkscape"
   xmlns:sodipodi="http://sodipodi.sourceforge.net/DTD/sodipodi-0.dtd"
   xmlns="http://www.w3.org/2000/svg"
   xmlns:svg="http://www.w3.org/2000/svg">
  <sodipodi:namedview
     id="namedview7"
     pagecolor="#ffffff"
     bordercolor="#111111"
     borderopacity="1"
     inkscape:pageshadow="0"
     inkscape:pageopacity="0"
     inkscape:pagecheckerboard="1"
     inkscape:document-units="mm"
     showgrid="false"
     inkscape:zoom="0.64052329"
     inkscape:cx="397.33138"
     inkscape:cy="561.25984"
     inkscape:window-width="1920"
     inkscape:window-height="1001"
     inkscape:window-x="-9"
     inkscape:window-y="-9"
     inkscape:window-maximized="1"
     inkscape:current-layer="layer1" />
  <defs
     id="defs2" />
  <g
     inkscape:label="Слой 1"
     inkscape:groupmode="layer"
     id="layer1">
    <g
       id="g2468"
       transform="translate(0.33510093,0.17012611)">
      <path
         style="fill:#fefefe;stroke-width:0.335728"
         d="m 94.256691,228.54107 c -6.018729,-0.71979 -13.787896,-2.5883 -17.961466,-4.31981 -0.553952,-0.22982 -1.913652,-0.76286 -3.021555,-1.18453 -3.936032,-1.49805 -10.584319,-5.17117 -15.611368,-8.62514 -4.359929,-2.9956 -10.314999,-8.36532 -13.739254,-12.38877 -5.314012,-6.24388 -6.466891,-7.89668 -10.780969,-15.45594 -2.014639,-3.5301 -5.175895,-11.6758 -6.392081,-16.47065 -2.4119,-9.50899 -2.66053,-11.54287 -2.66053,-21.7641 0,-10.17888 0.222373,-12.00381 2.638668,-21.65447 2.244015,-8.96259 7.34839,-19.61713 12.718283,-26.54731 6.950537,-8.970107 11.981975,-13.674785 21.324805,-19.939898 1.248278,-0.837072 2.338398,-1.521949 2.422484,-1.521949 0.08408,0 1.631086,-0.821224 3.437781,-1.824944 1.806692,-1.003719 4.569058,-2.308285 6.138588,-2.899036 1.56953,-0.590751 3.004769,-1.184562 3.18942,-1.319581 0.677828,-0.495635 6.917286,-2.406263 8.801471,-2.69516 1.068008,-0.163754 3.377074,-0.600964 5.131255,-0.971576 9.363043,-1.978167 20.891927,-1.858387 31.371857,0.325939 6.10723,1.272928 7.68879,1.729045 12.44069,3.587847 8.37088,3.27444 16.0958,7.735414 22.96937,13.264322 5.1723,4.160457 12.69885,12.680409 15.49838,17.543946 0.42515,0.73861 1.11297,1.75948 1.52849,2.2686 0.85691,1.04995 5.12043,9.67609 6.32319,12.79335 1.39075,3.60449 2.78072,8.50499 4.25054,14.98574 1.01306,4.4668 1.32138,21.63424 0.47669,26.54259 -0.63128,3.6683 -1.93577,9.22121 -2.90965,12.38573 -0.37212,1.20912 -0.89779,2.92119 -1.16817,3.80458 -0.43813,1.43148 -3.83054,8.94788 -4.91833,10.89735 -2.28983,4.10364 -5.61349,9.21619 -6.49467,9.99027 -0.21019,0.18465 -1.02423,1.22165 -1.80897,2.30443 -1.53826,2.12249 -8.92612,9.54892 -11.82531,11.88705 -4.99516,4.02846 -17.47674,11.21527 -21.16049,12.18406 -0.60324,0.15865 -2.56121,0.805 -4.35104,1.43633 -9.84939,3.47423 -23.95554,4.80416 -35.858109,3.38073 z m 4.868061,-37.72671 c 1.292558,-0.22716 4.361678,-1.02175 6.820268,-1.76578 7.88629,-2.38658 15.06457,-6.86872 21.21517,-13.24683 5.81538,-6.03049 8.18118,-9.64192 12.16681,-18.57282 1.77404,-3.97522 3.2793,-11.28804 3.5678,-17.33309 l 0.22638,-4.74329 3.44439,-3.27504 c 1.89441,-1.80127 3.39456,-3.32486 3.33366,-3.38576 -0.0609,-0.0609 -0.93463,0.10854 -1.94162,0.37652 -1.00699,0.26798 -2.54851,0.48904 -3.4256,0.49123 -1.56007,0.004 -1.59471,-0.0186 -1.59471,-1.03585 0,-0.81509 0.34467,-1.35027 1.59471,-2.47617 0.87709,-0.78999 2.11285,-2.15972 2.74613,-3.04384 1.28883,-1.79932 1.38934,-1.78497 -2.42225,-0.34585 -1.25291,0.47305 -3.3377,0.95858 -4.63288,1.07896 -2.27466,0.2114 -2.39146,0.18529 -3.42937,-0.76684 -3.30814,-3.03476 -7.03632,-4.51702 -11.45794,-4.55549 -4.95398,-0.0431 -8.33952,1.23466 -12.09024,4.56302 -2.53772,2.25195 -4.19645,4.5811 -5.44719,7.64884 -0.77096,1.89095 -0.86644,2.58268 -0.86163,6.24197 l 0.005,4.11535 -0.87489,0.21959 c -1.36612,0.34287 -7.951581,-0.46879 -11.474734,-1.41428 -6.468565,-1.73592 -14.667138,-5.84372 -20.275427,-10.15877 -1.127614,-0.86759 -3.200374,-2.72754 -4.606139,-4.13322 l -2.555933,-2.55578 -0.79612,2.38792 c -1.847643,5.54191 -0.515061,11.65253 3.590451,16.46416 1.193067,1.39827 2.315827,2.54231 2.495022,2.54231 0.179191,0 0.325804,0.52589 0.325804,1.16865 0,0.97585 -0.142721,1.20448 -0.865071,1.38578 -0.817012,0.20505 -4.649384,-0.61594 -5.933428,-1.2711 -0.732902,-0.37395 -0.739935,-0.12192 -0.06888,2.46776 0.877946,3.38811 2.059911,5.41915 4.790501,8.23179 2.065035,2.12709 3.131432,2.92259 5.338795,3.98257 2.579781,1.23882 2.759063,1.39286 2.769759,2.37976 0.01422,1.31164 -0.351635,1.46276 -3.541168,1.46276 -1.369775,0 -2.490504,0.13386 -2.490504,0.29747 0,0.70437 2.865324,4.4994 4.581087,6.06751 2.132161,1.94868 6.604257,4.24964 8.848047,4.55245 2.942706,0.39714 3.021555,0.43612 3.021555,1.49383 0,0.72858 -0.302941,1.21477 -1.168076,1.87464 -1.575419,1.20163 -8.830958,4.71629 -11.009942,5.33333 -2.240128,0.63436 -8.401666,1.53166 -10.5175,1.53166 -1.553552,0 -1.593601,0.0229 -0.895001,0.51224 1.994219,1.3968 9.430364,3.99279 14.433297,5.03872 5.16469,1.07974 13.460292,1.15329 19.061208,0.16901 z"
         id="path2486" />
      <path
         style="fill:#fcfcfc;stroke-width:0.335728"
         d="m 98.285431,228.75295 c -0.276976,-0.1553 -2.769759,-0.61979 -5.539517,-1.0322 -6.402854,-0.95338 -10.307804,-1.92372 -15.779232,-3.92097 -18.700495,-6.82631 -34.686971,-20.93451 -43.668175,-38.53753 -3.336394,-6.53928 -5.273672,-11.88033 -7.211178,-19.8811 -2.564106,-10.58828 -2.617129,-22.57851 -0.147397,-33.33184 0.888091,-3.86679 2.532282,-9.61509 3.511694,-12.27731 0.79017,-2.14784 5.088436,-11.00346 6.099457,-12.56659 0.418009,-0.64627 1.226226,-1.93044 1.796038,-2.85369 1.861661,-3.0164 6.744769,-9.026641 10.122999,-12.459607 4.930123,-5.010003 10.888003,-9.605518 17.073844,-13.169633 4.500526,-2.593084 13.468662,-6.46708 17.122914,-7.396644 4.493721,-1.143107 10.225789,-2.375234 13.764862,-2.958805 4.458117,-0.735115 13.59465,-0.74309 18.12933,-0.01583 5.31114,0.851792 14.07439,2.853231 16.95428,3.87219 24.5757,8.695329 42.90791,27.503996 50.72472,52.043039 2.76199,8.67062 3.80009,15.32104 3.78275,24.23357 -0.0179,9.20999 -1.19343,16.25884 -4.26891,25.59818 -1.51611,4.60398 -5.42239,13.04167 -7.40186,15.98826 -0.57441,0.85506 -1.39434,2.14907 -1.82207,2.87559 -0.42773,0.72651 -1.71057,2.52215 -2.85076,3.99031 -7.85016,10.10822 -16.54477,17.37068 -27.51035,22.97896 -8.58058,4.38847 -15.59445,6.56065 -25.76129,7.97818 -2.12349,0.29607 -4.12321,0.67939 -4.44385,0.85182 -0.72138,0.38793 -11.984748,0.38052 -12.678299,-0.008 z M 109.1966,226.7247 c 0.39235,-0.43353 1.03532,-0.67193 1.81461,-0.67281 2.63596,-0.003 9.80028,-1.42609 16.29588,-3.23706 4.03516,-1.125 12.40613,-4.7862 16.06776,-7.02754 1.63555,-1.00115 3.07488,-1.82393 3.19853,-1.82841 0.12363,-0.004 0.90465,-0.53099 1.73557,-1.17002 0.83093,-0.63903 2.41725,-1.79947 3.52515,-2.57875 1.1079,-0.77929 2.61868,-2.00782 3.35728,-2.73007 0.73861,-0.72225 1.72061,-1.56017 2.18224,-1.86203 0.95561,-0.62489 5.12783,-4.99423 6.45383,-6.75876 0.48567,-0.64628 1.44069,-1.77936 2.12227,-2.51796 0.68159,-0.73861 1.44575,-1.82359 1.69814,-2.41108 0.25239,-0.58748 0.62336,-1.16981 0.82438,-1.29404 0.38381,-0.23721 3.23402,-4.56325 3.61808,-5.49151 0.12277,-0.29672 0.94169,-1.84056 1.81984,-3.43076 0.87814,-1.59019 2.03852,-4.08297 2.57861,-5.53952 0.54009,-1.45654 1.42492,-3.80431 1.96627,-5.21727 1.63042,-4.25545 3.23756,-11.80131 3.66005,-17.18468 0.16073,-2.04803 0.34387,-2.71733 0.82593,-3.01838 0.54502,-0.34037 0.61941,-0.86101 0.61941,-4.33481 0,-3.38569 -0.088,-4.03595 -0.61764,-4.56562 -0.43651,-0.43651 -0.67984,-1.34727 -0.82972,-3.10549 -0.7399,-8.68014 -4.29215,-20.71614 -8.20547,-27.80246 -0.87674,-1.58761 -1.69451,-3.12934 -1.81728,-3.42606 -0.30166,-0.72912 -3.33319,-5.46086 -3.63359,-5.67148 -0.13169,-0.0923 -0.66447,-0.84772 -1.18398,-1.67864 -0.5195,-0.83093 -1.1191,-1.66186 -1.33245,-1.84651 -0.21334,-0.18465 -1.605,-1.770966 -3.09256,-3.525146 -4.57964,-5.400447 -11.27341,-10.995503 -17.95041,-15.004039 -3.46376,-2.079467 -5.39713,-3.059999 -11.08316,-5.620966 -5.01565,-2.259029 -18.53494,-5.555681 -22.80296,-5.560456 -0.77929,-8.71e-4 -1.42226,-0.23927 -1.81461,-0.672807 -0.54115,-0.597972 -1.03403,-0.671456 -4.50361,-0.671456 -3.45605,0 -3.94066,0.07161 -4.29201,0.634198 -0.32078,0.513659 -0.988338,0.681076 -3.512209,0.880833 -7.124169,0.563857 -19.146721,4.041068 -25.629471,7.412659 -1.107904,0.576206 -2.389144,1.166142 -2.847198,1.31097 -0.458054,0.144827 -1.213443,0.520006 -1.678642,0.83373 -2.385336,1.608643 -5.731433,3.699657 -5.92029,3.699657 -0.342306,0 -5.251983,3.951361 -8.620266,6.937685 -4.62966,4.10466 -8.342848,8.419301 -12.08744,14.045338 -2.681859,4.02934 -6.055524,10.25124 -7.2816,13.42913 -0.427445,1.10791 -0.964107,2.4676 -1.192582,3.02156 -0.664099,1.61015 -2.434388,7.24942 -2.848017,9.07239 -0.572147,2.52159 -1.672242,10.12187 -1.672242,11.5531 0,0.83427 -0.227098,1.46617 -0.671457,1.86831 -0.59851,0.54164 -0.671456,1.03403 -0.671456,4.53233 0,3.39626 0.08386,4.00056 0.622875,4.48836 0.45492,0.4117 0.681019,1.25154 0.838507,3.11462 0.426382,5.04409 1.633385,11.02994 3.06815,15.21576 1.979129,5.77397 3.23418,9.17972 3.529964,9.57904 0.136773,0.18465 1.044168,1.90204 2.016432,3.81642 1.92825,3.7967 5.889687,9.76452 9.009726,13.57295 7.912118,9.65782 18.610723,17.37472 31.079052,22.41733 6.250698,2.52799 15.102918,4.72871 20.998616,5.22039 1.984537,0.1655 2.825198,0.38512 3.243508,0.84735 0.48898,0.54031 1.09066,0.62394 4.48933,0.62394 3.4983,0 3.99069,-0.073 4.53233,-0.67146 z M 85.35989,194.15476 c -6.775004,-0.49524 -12.882239,-1.91404 -17.625738,-4.09473 -6.996692,-3.21653 -8.728937,-4.39852 -8.728937,-5.95616 0,-1.65105 0.647124,-1.86046 5.842949,-1.89083 6.274021,-0.0367 9.764108,-0.87289 16.40778,-3.93132 l 2.274891,-1.04725 -1.326919,-0.39179 c -5.732393,-1.69257 -12.743392,-9.18882 -12.778532,-13.66296 -0.01172,-1.49185 0.05276,-1.61617 0.929051,-1.79143 0.939374,-0.18788 0.935923,-0.19388 -1.431126,-2.48908 -4.050606,-3.92765 -6.56081,-9.19192 -6.56081,-13.75898 0,-2.58669 0.663923,-3.48925 2.395804,-3.25696 0.713463,0.0957 1.297208,0.12093 1.297208,0.0561 0,-0.0649 -0.512674,-0.99473 -1.139278,-2.06636 -1.43354,-2.45169 -2.15218,-4.86348 -2.420521,-8.12342 -0.204703,-2.48685 0.325879,-7.56472 0.863222,-8.26132 0.142433,-0.18465 0.442721,-0.90611 0.667304,-1.60324 0.573048,-1.7788 1.906111,-3.26482 2.928766,-3.26482 0.623938,0 1.827326,0.99027 4.681564,3.85245 2.112967,2.11886 4.554333,4.34108 5.425256,4.93828 0.870926,0.5972 2.263349,1.60487 3.094277,2.23926 2.274522,1.73655 9.117428,5.00335 13.093405,6.25078 3.053889,0.95814 6.499237,1.76074 9.820054,2.28761 l 0.92325,0.14648 v -2.58557 c 0,-1.43927 0.28219,-3.68889 0.63649,-5.07419 1.07153,-4.18966 2.23635,-6.2149 5.39825,-9.38578 3.00499,-3.01353 5.31314,-4.3883 9.37144,-5.58176 2.23376,-0.6569 8.07365,-0.72911 10.61277,-0.13122 2.4576,0.57869 6.4302,2.58671 8.02412,4.05594 l 1.38881,1.28015 2.34383,-0.81692 c 3.16652,-1.10367 7.30721,-2.81858 7.6987,-3.18851 0.55891,-0.52813 2.07415,-0.32435 2.69579,0.36255 0.8811,0.9736 0.49684,2.95836 -1.11015,5.73402 l -1.3418,2.31763 0.96091,-0.49691 c 1.25596,-0.64948 3.1591,-0.63422 3.82398,0.0306 1.50254,1.50254 0.19381,3.79327 -5.10429,8.93433 l -3.34177,3.24271 -0.17338,4.30706 c -0.26219,6.51339 -2.217,14.37147 -5.22588,21.00742 -1.15608,2.54968 -4.83668,8.7342 -5.80629,9.75631 -0.3847,0.40554 -1.12539,1.34165 -1.64598,2.08026 -1.93083,2.73942 -8.80528,9.20565 -11.24163,10.57406 -0.69347,0.3895 -1.8158,1.15415 -2.49406,1.69921 -1.58726,1.27556 -9.10138,4.6754 -12.78403,5.78428 -5.12565,1.54337 -14.668398,2.40012 -21.31875,1.91399 z m 13.950923,-3.03998 c 14.759477,-2.44359 27.271707,-10.87347 35.564947,-23.96121 5.27966,-8.33195 8.37367,-18.52938 8.39125,-27.65638 0.003,-1.72015 0.15662,-3.40895 0.34068,-3.75288 0.18407,-0.34392 2.00758,-2.25671 4.05225,-4.25062 2.04468,-1.99392 3.57569,-3.67261 3.40225,-3.73042 -0.17343,-0.0578 -1.42737,0.20305 -2.78652,0.57969 -5.20755,1.44308 -6.11031,0.71961 -3.0341,-2.43154 1.76979,-1.81291 4.53414,-5.60067 4.27589,-5.85892 -0.0481,-0.0481 -1.34213,0.4562 -2.87557,1.12072 -1.53344,0.66453 -3.9565,1.44983 -5.38457,1.74512 -2.91698,0.60317 -2.46884,0.75263 -5.87391,-1.95898 -4.52007,-3.59955 -12.45,-4.25078 -18.2457,-1.49842 -3.63864,1.72798 -7.06145,5.1512 -8.89427,8.89536 -1.39018,2.83989 -1.39748,2.87478 -1.50921,7.21791 -0.0669,2.60088 -0.2665,4.55005 -0.49399,4.82415 -0.53926,0.64978 -5.19278,0.26634 -9.47264,-0.78052 -10.555299,-2.58184 -18.82884,-7.15098 -26.21529,-14.47764 -1.753708,-1.7395 -3.319262,-3.16274 -3.479009,-3.16274 -0.159743,0 -0.6365,1.09531 -1.059458,2.43403 -0.587635,1.85994 -0.769194,3.22588 -0.769771,5.79131 -0.0013,5.30683 1.46248,8.82464 5.335452,12.82326 3.434632,3.54606 2.139177,4.07117 -4.77581,1.93587 -0.662848,-0.20468 -0.755388,-0.11446 -0.755388,0.73642 0,1.68638 1.203576,5.39269 2.385487,7.34591 1.793528,2.96398 5.059564,5.8917 8.267032,7.41069 2.17191,1.02857 2.760325,1.4586 2.767502,2.02255 0.01145,0.89988 -0.757117,1.1197 -3.935696,1.12569 -1.338717,0.003 -2.43403,0.13663 -2.43403,0.29803 0,0.78586 2.02934,3.75874 3.970232,5.81618 2.621659,2.7791 6.432555,4.84451 10.025816,5.43374 1.960744,0.32152 2.301746,0.48021 2.391782,1.11301 0.07696,0.54088 -0.262912,1.00453 -1.272384,1.73579 -2.073471,1.50202 -8.63546,4.6547 -10.918842,5.24592 -2.817476,0.72951 -8.205113,1.5128 -10.405369,1.5128 -1.076218,0 -1.848715,0.14842 -1.848715,0.3552 0,1.03375 10.759294,4.97706 16.468465,6.03574 5.361948,0.99429 12.667013,0.98076 18.801207,-0.0348 z"
         id="path2484" />
      <path
         style="fill:#fafcfc;stroke-width:0.335728"
         d="m 98.117567,228.5203 c -1.529964,-0.42943 -3.268124,-0.71785 -5.035925,-0.83563 -1.271635,-0.0847 -8.733248,-1.67401 -11.079035,-2.35979 -11.256666,-3.29081 -23.048479,-9.94484 -31.288007,-17.65558 -0.873631,-0.81756 -0.778448,-1.5244 0.159955,-1.18784 0.317225,0.11378 1.054156,0.67372 1.637624,1.24432 2.10543,2.05899 5.579063,4.67719 9.85032,7.42453 2.782355,1.78965 11.435592,6.20274 12.162407,6.20274 0.253539,0 0.604502,0.13866 0.77992,0.30814 0.729048,0.70436 10.109321,3.39737 15.864101,4.55448 3.798995,0.76386 6.575857,0.95321 13.663203,0.93167 7.20962,-0.0219 7.05972,-0.0152 10.23972,-0.45773 4.93026,-0.68609 14.69977,-3.17197 17.62574,-4.48492 0.55395,-0.24857 1.98919,-0.86151 3.18942,-1.36209 3.90614,-1.62914 13.02691,-6.62609 13.76486,-7.54128 0.0923,-0.1145 0.91151,-0.72918 1.82042,-1.36595 0.90891,-0.63677 2.19307,-1.64805 2.85369,-2.24728 0.66062,-0.59923 1.32459,-1.09023 1.47547,-1.09111 0.15089,-0.001 0.77304,-0.53038 1.38256,-1.17666 1.24811,-1.32338 1.86825,-1.49212 1.86825,-0.50835 0,0.40587 -0.52537,1.01436 -1.34291,1.55539 -0.7386,0.48878 -1.34292,0.99156 -1.34292,1.11728 0,0.12573 -1.32193,1.21829 -2.93762,2.42792 -7.8189,5.85384 -14.21667,9.26486 -23.08831,12.30972 -3.59641,1.23432 -12.36026,3.34641 -14.10359,3.39895 -1.53266,0.0462 -3.16289,0.30332 -5.14885,0.8121 -2.67895,0.68632 -10.50692,0.67845 -12.970493,-0.013 z M 48.674936,205.38874 c -0.408958,-0.28645 -0.90482,-0.82213 -1.101915,-1.19041 -0.318405,-0.59494 -0.290623,-0.62687 0.249198,-0.28638 0.554204,0.34956 1.960938,1.99759 1.705114,1.99759 -0.05986,0 -0.443439,-0.23436 -0.852397,-0.5208 z m 111.328004,-0.0451 c 0.47268,-0.88322 1.70018,-1.93111 1.95897,-1.67233 0.25878,0.25879 -0.78911,1.48629 -1.67233,1.95898 -0.53066,0.284 -0.57065,0.24402 -0.28664,-0.28665 z m -114.949058,-3.3789 c -0.455075,-0.50779 -1.102116,-1.22541 -1.43787,-1.59471 -1.019357,-1.12121 -3.885053,-4.9057 -5.46574,-7.21816 -4.48344,-6.55903 -8.318652,-14.65813 -10.254171,-21.65448 -0.459747,-1.66186 -1.050868,-3.77694 -1.313603,-4.7002 -0.519952,-1.82712 -1.116118,-5.16564 -1.348912,-7.55389 -0.08099,-0.83092 -0.296016,-2.33168 -0.477826,-3.33501 -0.426678,-2.35464 -0.428332,-12.78459 -0.0024,-15.15232 0.180488,-1.00332 0.402441,-2.65516 0.493227,-3.67074 0.335056,-3.74808 2.521495,-12.38971 4.332114,-17.12214 2.632502,-6.8806 8.589971,-17.42925 11.532133,-20.419479 0.240081,-0.244 0.438643,-0.546156 0.441249,-0.671456 0.0026,-0.125297 0.623587,-0.907665 1.379956,-1.738593 0.75637,-0.830928 1.602541,-1.850702 1.88038,-2.266166 0.537803,-0.8042 1.770644,-1.037889 1.771156,-0.335729 1.68e-4,0.230814 -0.4521,0.872894 -1.005039,1.426846 -1.566899,1.569768 -6.693875,8.387507 -7.912253,10.521527 -0.280484,0.49128 -0.861576,1.49755 -1.291313,2.23615 -4.284569,7.364 -7.398731,15.61348 -8.934949,23.66885 -0.404963,2.12348 -0.815869,4.08749 -0.913123,4.36447 -0.09725,0.27697 -0.241969,1.70258 -0.321589,3.168 -0.07962,1.46543 -0.2861,2.92851 -0.458845,3.25128 -0.4081,0.76255 -0.409407,9.89743 -0.0015,10.65956 0.171905,0.32121 0.390291,1.78428 0.485303,3.25128 0.503353,7.77193 4.128402,19.73095 8.491907,28.01476 1.820235,3.45559 6.284883,10.43649 7.646833,11.95655 0.379027,0.42302 0.991296,1.16634 1.360597,1.65181 0.369301,0.48547 1.162459,1.40416 1.762574,2.04155 1.077487,1.14441 1.422498,2.14369 0.740128,2.14369 -0.193044,0 -0.723322,-0.41546 -1.178396,-0.92325 z m 117.691388,0.33596 c 0,-0.32301 0.46769,-1.04063 1.0393,-1.59471 1.24234,-1.20424 6.80165,-8.5749 7.72347,-10.23995 0.3578,-0.64628 1.17771,-2.08152 1.82203,-3.18942 1.4667,-2.52198 2.9244,-5.50119 3.84709,-7.86257 0.39101,-1.0007 0.99036,-2.43594 1.33187,-3.18941 1.01373,-2.23654 2.59149,-7.81345 3.37949,-11.94541 0.40496,-2.12348 0.81114,-4.08749 0.90261,-4.36447 0.37025,-1.12106 0.59977,-6.25052 0.57084,-12.75768 -0.0241,-5.42701 -0.18297,-7.75572 -0.75112,-11.01206 -1.07592,-6.16653 -2.91228,-13.09305 -4.24567,-16.01407 -0.25286,-0.55395 -0.76122,-1.76257 -1.12968,-2.68582 -1.00207,-2.51088 -2.5946,-5.79441 -3.90793,-8.05748 -0.64294,-1.10791 -1.4667,-2.54315 -1.83056,-3.18942 -0.9346,-1.65999 -6.4981,-9.03273 -7.72693,-10.239717 -1.08902,-1.069658 -1.32546,-1.846506 -0.562,-1.846506 0.38992,0 1.85454,1.546329 4.23739,4.473778 0.27698,0.340281 0.75595,0.917368 1.06438,1.282419 0.58781,0.695706 1.84363,2.549226 4.42076,6.524766 3.30896,5.1045 6.42862,12.207 8.83597,20.11682 1.79976,5.91348 3.13676,15.21038 3.13676,21.81166 0,4.85361 -0.88931,12.75971 -2.00271,17.80429 -0.42616,1.93084 -2.43166,8.52745 -3.41928,11.2469 -2.37222,6.532 -9.80922,18.89663 -13.85721,23.03877 -0.38315,0.39205 -1.02513,1.10967 -1.42662,1.5947 -0.84206,1.01728 -1.45225,1.14105 -1.45225,0.29459 z m -78.902288,-9.2168 c -0.400034,-0.14799 -0.856805,-0.18905 -1.015041,-0.0913 -0.374162,0.23124 -6.248431,-0.99314 -9.050679,-1.88646 -5.406381,-1.72347 -12.396389,-5.12107 -13.219112,-6.42536 -0.174283,-0.2763 -0.230245,-0.72814 -0.124353,-1.00408 0.158077,-0.41194 0.805489,-0.4786 3.61808,-0.37251 4.105182,0.15485 8.676124,-0.53407 12.74694,-1.9212 3.295634,-1.12298 8.447543,-3.65443 8.641762,-4.24624 0.08032,-0.24474 -0.599869,-0.61659 -1.727504,-0.9444 -4.965297,-1.44346 -8.960666,-4.5824 -11.816475,-9.28357 -1.35925,-2.23757 -1.825312,-4.21088 -1.10634,-4.68426 0.257971,-0.16986 1.14889,-0.29239 1.979817,-0.2723 2.293901,0.0555 2.301918,0.0396 0.503593,-0.99746 -2.285007,-1.31768 -6.160306,-5.43615 -7.612664,-8.09034 -1.311687,-2.39712 -2.402076,-6.33487 -2.232137,-8.06097 0.167525,-1.70157 0.884561,-1.93806 3.363938,-1.10949 1.164017,0.389 2.179401,0.64742 2.25641,0.57427 0.07701,-0.0732 -0.332089,-0.72049 -0.909112,-1.43851 -3.020326,-3.7584 -4.562186,-8.07584 -4.56932,-12.79483 -0.0069,-4.54933 1.825828,-10.07185 3.342454,-10.07185 0.292527,0 1.998229,1.47975 3.790444,3.28833 4.747155,4.7905 10.014615,8.5426 15.663392,11.15729 5.357536,2.47988 12.570196,4.52696 16.786415,4.76427 l 1.67864,0.0945 0.22521,-3.69301 c 0.38891,-6.37742 2.09344,-10.12776 6.44806,-14.18716 2.39563,-2.23321 5.85068,-4.11895 8.78742,-4.7961 5.79766,-1.33682 12.91767,0.30566 16.98526,3.91825 0.90909,0.80741 1.79113,1.46801 1.96008,1.46801 0.72768,0 6.00781,-1.82971 8.31723,-2.88215 2.8108,-1.28092 3.69518,-1.40984 4.01177,-0.5848 0.29217,0.76138 -1.94329,5.03719 -3.64319,6.96837 -1.61062,1.82976 -1.35844,1.89654 2.43171,0.64388 2.41766,-0.79904 2.74751,-0.83786 3.20791,-0.37747 0.46039,0.4604 0.45416,0.62965 -0.0606,1.64602 -0.31556,0.62307 -2.34845,2.9024 -4.51753,5.06518 l -3.94379,3.93233 -0.17287,4.29302 c -0.44816,11.12933 -4.95771,23.13766 -12.11975,32.27327 -1.43156,1.82604 -3.21333,3.64896 -8.32831,8.52066 -1.51556,1.44348 -6.77019,4.83997 -9.98801,6.45606 -3.64723,1.83174 -8.94197,3.62344 -13.50965,4.57154 -2.75367,0.57157 -4.816267,0.73501 -9.914883,0.78565 -3.540843,0.0352 -6.765198,-0.0571 -7.165235,-0.20512 z m 15.617498,-1.82167 c 3.02751,-0.46091 7.38186,-1.55809 10.07185,-2.53784 2.31546,-0.84333 7.92742,-3.8634 10.71889,-5.76835 7.09042,-4.83863 14.07987,-13.03131 17.79552,-20.85904 3.34592,-7.04884 5.0439,-13.68229 5.41401,-21.15089 0.12811,-2.58511 0.38406,-4.99046 0.56879,-5.34523 0.18472,-0.35478 0.80769,-1.02514 1.38438,-1.4897 1.64314,-1.32366 6.24527,-6.21593 6.24898,-6.64293 0.002,-0.26386 -0.60219,-0.19718 -1.9271,0.21257 -3.81446,1.17969 -5.81728,1.51242 -6.1233,1.01726 -0.32185,-0.52076 -0.0808,-1.34897 0.39263,-1.34897 0.90264,0 6.36875,-7.11164 5.85839,-7.62201 -0.10944,-0.10944 -1.37268,0.33273 -2.80721,0.98259 -1.43453,0.64985 -3.43916,1.36904 -4.45474,1.5982 -1.01558,0.22915 -2.19375,0.5508 -2.61816,0.71477 -0.85312,0.32962 -2.28804,-0.24482 -3.11367,-1.2465 -0.86634,-1.05106 -3.79483,-2.70642 -6.18652,-3.49698 -2.88947,-0.95511 -8.08324,-1.07724 -10.76794,-0.25321 -4.76575,1.46277 -9.57368,5.48602 -11.68742,9.77996 -1.5438,3.13616 -1.86684,4.68332 -1.87674,8.98835 -0.01,4.18734 0.004,4.17379 -3.77095,3.63835 -6.185588,-0.87727 -11.142509,-2.3136 -16.314337,-4.72728 -6.474229,-3.0215 -10.71337,-5.9675 -15.662892,-10.88494 -1.789147,-1.77755 -3.435619,-3.16184 -3.658821,-3.07618 -0.81864,0.31414 -1.686985,4.01849 -1.826507,7.79185 -0.115316,3.11868 -0.02024,4.08125 0.607118,6.14669 0.895784,2.94917 2.798957,5.90224 5.102507,7.91733 1.158262,1.01322 1.635205,1.65661 1.496321,2.01854 -0.284772,0.7421 -1.458975,0.66433 -4.486778,-0.29718 -1.434829,-0.45564 -2.709052,-0.72003 -2.831607,-0.58752 -0.357933,0.38698 0.298533,4.20881 1.050729,6.11716 0.929988,2.35939 2.218262,4.16107 4.577223,6.40134 2.179532,2.06987 4.667081,3.6538 6.245105,3.97654 1.208118,0.24709 1.945834,1.15929 1.388371,1.71676 -0.199994,0.19999 -1.745147,0.45313 -3.433669,0.56252 -1.688522,0.1094 -3.070041,0.2571 -3.070041,0.32823 0,0.78789 2.189617,4.00019 4.091216,6.00208 3.056599,3.21781 6.869784,5.25786 10.317167,5.5197 1.894841,0.14391 2.221387,0.26366 2.288778,0.83932 0.05756,0.49164 -0.436927,0.99522 -1.846506,1.88046 -3.051116,1.91615 -7.096059,3.86604 -9.646865,4.65033 -3.092314,0.95078 -9.442054,2.02755 -12.03565,2.04095 -1.93865,0.01 -2.023874,0.0429 -1.393484,0.53786 2.260405,1.7747 10.969128,4.97291 15.947096,5.85645 5.671127,1.00656 13.749795,1.04643 19.975836,0.0986 z M 47.547543,92.513541 c 0.465853,-0.870454 1.691048,-1.90123 1.95093,-1.641348 0.245421,0.245422 -1.519282,2.232629 -1.982645,2.232629 -0.156601,0 -0.142329,-0.266077 0.03172,-0.591281 z M 160.58206,92.117494 c -0.53749,-0.561021 -0.89239,-1.104901 -0.78867,-1.208621 0.30458,-0.304583 2.05383,1.364969 1.90329,1.816579 -0.0856,0.256754 -0.50572,0.0276 -1.11462,-0.607958 z M 50.276279,89.77492 c 0,-0.373939 0.492835,-0.948664 1.175049,-1.370295 0.646277,-0.399421 1.175049,-0.844034 1.175049,-0.988028 0,-0.32259 3.997762,-3.374989 7.386023,-5.639425 4.059614,-2.713114 7.090089,-4.391875 11.485663,-6.362597 6.847146,-3.069866 8.086272,-3.476713 17.241809,-5.66108 3.949552,-0.9423 11.689508,-1.828299 15.971758,-1.828299 6.99273,0 17.00623,1.724746 25.1396,4.330097 3.96673,1.270654 10.6194,4.216177 14.21762,6.294963 2.27474,1.314178 8.08897,5.137945 9.41516,6.191947 2.41695,1.920883 5.56825,4.881555 5.56825,5.231403 0,0.824315 -0.97134,0.454433 -1.91613,-0.72965 -0.51566,-0.646272 -1.05316,-1.175044 -1.19444,-1.175049 -0.14128,-6e-6 -1.35436,-0.868707 -2.69572,-1.930448 -1.34136,-1.061741 -3.34086,-2.522916 -4.44332,-3.247055 -1.10246,-0.724139 -2.41945,-1.596997 -2.92664,-1.939684 -1.88979,-1.27685 -7.91689,-4.293924 -11.16405,-5.588549 -8.11704,-3.236219 -17.38858,-5.480565 -22.47334,-5.440081 -0.72735,0.0058 -1.66627,-0.21475 -2.08649,-0.49009 -1.1033,-0.722907 -9.47241,-0.714328 -10.87532,0.01115 -0.544306,0.281472 -1.556577,0.505784 -2.249494,0.498473 -7.936376,-0.08374 -25.039133,5.470678 -33.15404,10.767361 -5.736251,3.744112 -9.856081,6.793497 -11.750492,8.697397 -1.154869,1.160653 -1.846505,1.298322 -1.846505,0.367543 z"
         id="path2482" />
      <path
         style="fill:#f9fafc;stroke-width:0.335728"
         d="m 98.89557,228.60078 c -0.49535,-0.25843 -1.374851,-0.57403 -1.954445,-0.70134 -0.579592,-0.1273 -0.970668,-0.31459 -0.869057,-0.4162 0.101612,-0.10161 3.968102,-0.18475 8.592202,-0.18475 4.6241,0 8.49059,0.0831 8.5922,0.18475 0.10161,0.10161 -0.28946,0.2889 -0.86906,0.4162 -0.57959,0.12731 -1.45909,0.44291 -1.95444,0.70134 -1.27063,0.66291 -10.26677,0.66291 -11.5374,0 z m -4.638879,-1.20462 c 0,-0.18465 0.226617,-0.33573 0.503593,-0.33573 0.276976,0 0.503592,0.15108 0.503592,0.33573 0,0.18465 -0.226616,0.33573 -0.503592,0.33573 -0.276976,0 -0.503593,-0.15108 -0.503593,-0.33573 z m 19.640109,0 c -0.11412,-0.18465 0.10358,-0.33573 0.48378,-0.33573 0.3802,0 0.69127,0.15108 0.69127,0.33573 0,0.18465 -0.2177,0.33573 -0.48378,0.33573 -0.26608,0 -0.57715,-0.15108 -0.69127,-0.33573 z m -21.990207,-0.33573 c 0,-0.18465 0.226616,-0.33573 0.503592,-0.33573 0.276976,0 0.503593,0.15108 0.503593,0.33573 0,0.18465 -0.226617,0.33573 -0.503593,0.33573 -0.276976,0 -0.503592,-0.15108 -0.503592,-0.33573 z m 24.508167,0 c 0,-0.18465 0.22662,-0.33573 0.50359,-0.33573 0.27698,0 0.5036,0.15108 0.5036,0.33573 0,0.18465 -0.22662,0.33573 -0.5036,0.33573 -0.27697,0 -0.50359,-0.15108 -0.50359,-0.33573 z M 90.227951,226.7247 c 0,-0.18465 0.151078,-0.33573 0.335728,-0.33573 0.184651,0 0.335729,0.15108 0.335729,0.33573 0,0.18465 -0.151078,0.33573 -0.335729,0.33573 -0.18465,0 -0.335728,-0.15108 -0.335728,-0.33573 z m 28.201179,0 c 0,-0.18465 0.15108,-0.33573 0.33573,-0.33573 0.18465,0 0.33573,0.15108 0.33573,0.33573 0,0.18465 -0.15108,0.33573 -0.33573,0.33573 -0.18465,0 -0.33573,-0.15108 -0.33573,-0.33573 z m -30.047685,-0.16495 c -0.18465,-0.0616 -2.073122,-0.51867 -4.196604,-1.01579 -3.679361,-0.86135 -7.237192,-2.10155 -6.92486,-2.41389 0.08023,-0.0802 2.292766,0.47011 4.916748,1.22298 2.623985,0.75286 5.357878,1.4627 6.075323,1.57742 0.717445,0.11473 1.304442,0.34036 1.304442,0.50141 0,0.28905 -0.521453,0.3458 -1.175049,0.12787 z m 31.222735,-0.0822 c 0.18465,-0.17393 1.2422,-0.51715 2.3501,-0.76272 1.1079,-0.24556 3.67622,-0.94927 5.70738,-1.5638 2.03116,-0.61453 3.91963,-1.1111 4.19661,-1.10351 1.10179,0.0302 -2.29535,1.43908 -5.33508,2.21257 -5.17095,1.3158 -7.44896,1.71663 -6.91901,1.21746 z m -44.987597,-4.0108 c -2.711026,-1.07057 -6.805636,-3.06796 -7.028506,-3.42858 -0.344766,-0.55784 0.02209,-0.46249 2.28031,0.59268 4.921714,2.29969 5.900614,2.72935 6.218371,2.72935 0.185188,0 0.430075,0.15108 0.544195,0.33573 0.292661,0.47354 -0.448372,0.38922 -2.01437,-0.22918 z m 58.097787,0.28487 c 0.17542,-0.15403 2.58511,-1.30513 5.35487,-2.558 2.76976,-1.25287 5.27444,-2.48655 5.56595,-2.74151 0.29152,-0.25496 0.65495,-0.46356 0.80763,-0.46356 0.15269,0 0.7451,-0.3553 1.31648,-0.78956 0.57138,-0.43426 1.49211,-1.02547 2.04606,-1.31379 0.55395,-0.28833 2.63127,-1.7348 4.61627,-3.21437 1.98499,-1.47958 3.60598,-2.51246 3.6022,-2.29529 -0.006,0.33109 -4.24793,3.65297 -6.08207,4.76264 -0.30219,0.18282 -1.05758,0.7283 -1.67864,1.21217 -1.05907,0.82512 -3.254,2.06129 -8.85097,4.98484 -3.39758,1.77471 -7.759,3.34822 -6.69778,2.41643 z m -69.030888,-5.71518 c -1.908306,-1.10463 -4.091303,-2.83904 -3.167489,-2.5166 0.569754,0.19886 2.102002,1.11354 5.08666,3.03649 1.271561,0.81924 -0.377456,0.37253 -1.919171,-0.51989 z M 56.07563,211.8637 c -1.518949,-1.15132 -2.765341,-2.28859 -2.769759,-2.52727 -0.0044,-0.23868 1.011737,0.37868 2.258129,1.3719 1.246391,0.99323 2.606091,1.98698 3.021555,2.20835 0.717485,0.38229 1.042057,1.056 0.503593,1.04532 -0.138488,-0.003 -1.494572,-0.94699 -3.013518,-2.0983 z m -4.717465,-3.79099 c -0.818239,-0.57312 -0.986104,-1.16204 -0.326498,-1.14546 0.459021,0.0115 1.799041,1.66809 1.349357,1.66809 -0.152185,0 -0.612472,-0.23518 -1.022859,-0.52263 z m 105.878465,-0.31669 c 0.52924,-0.80773 1.4799,-1.15603 1.4799,-0.5422 0,0.28669 -1.46009,1.38152 -1.84243,1.38152 -0.10308,0 0.0601,-0.37769 0.36253,-0.83932 z M 44.714568,201.29328 c -0.331656,-0.50779 -1.030826,-1.35228 -1.553712,-1.87665 -1.105182,-1.10832 -1.775666,-2.23602 -1.329445,-2.23602 0.169231,0 0.726269,0.56654 1.237862,1.25898 0.511592,0.69244 1.466651,1.82552 2.122352,2.51796 0.827045,0.87338 1.028903,1.25898 0.659069,1.25898 -0.293214,0 -0.804471,-0.41546 -1.136126,-0.92325 z M 163.081,201.98857 c 0,-0.12537 0.491,-0.70147 1.09112,-1.28022 1.37935,-1.33025 3.05272,-3.39436 4.2677,-5.26425 0.51923,-0.7991 1.4207,-1.98168 2.00327,-2.62796 l 1.05922,-1.17505 -0.55303,1.14287 c -0.72121,1.49045 -2.17351,3.49961 -3.92347,5.4279 -0.32314,0.35606 -0.58753,0.79315 -0.58753,0.97131 0,0.17815 -0.30059,0.48478 -0.66798,0.6814 -0.36739,0.19663 -0.90004,0.80625 -1.18367,1.35473 -0.44945,0.86914 -1.50563,1.40878 -1.50563,0.76927 z M 39.877612,195.13749 c -0.765671,-0.96865 -1.630757,-2.22714 -1.922415,-2.79665 -0.291657,-0.56951 -0.622986,-1.11102 -0.736286,-1.20334 -0.428673,-0.34931 -2.416318,-3.80823 -3.586835,-6.24183 -1.302687,-2.7084 -1.436232,-3.75892 -0.176937,-1.39187 0.83042,1.56092 3.176228,5.7312 3.821878,6.79438 0.403836,0.66499 0.630062,0.9956 3.065413,4.47983 1.646328,2.35539 1.315253,2.61144 -0.464818,0.35948 z m 45.818006,-1.99582 c -4.588523,-0.35247 -7.452188,-0.85383 -11.459677,-2.00633 -4.361296,-1.25426 -9.314816,-3.39723 -11.871398,-5.13576 -1.713856,-1.16545 -2.050957,-1.54995 -1.932062,-2.20369 0.06524,-0.35874 1.148429,-0.47787 4.951573,-0.54462 5.194708,-0.0912 7.987726,-0.56479 12.152161,-2.06066 2.884252,-1.03603 6.474081,-2.79328 7.647189,-3.74337 l 0.830696,-0.67277 -2.341473,-0.71224 c -3.0914,-0.94035 -4.884629,-1.89356 -7.008698,-3.72552 -4.100499,-3.5366 -7.369224,-9.00104 -5.920016,-9.8967 0.178168,-0.11011 1.160173,-0.21019 2.182234,-0.2224 1.022065,-0.0122 1.855302,-0.11988 1.85164,-0.23927 -0.0037,-0.11939 -0.77377,-0.67031 -1.711345,-1.22426 -2.364679,-1.39713 -6.106305,-5.43259 -7.384906,-7.96485 -2.032107,-4.02457 -2.878229,-8.43716 -1.790879,-9.33958 0.430629,-0.35739 0.927856,-0.29898 2.867389,0.33688 1.290526,0.42308 2.418204,0.69746 2.505943,0.60971 0.08774,-0.0877 -0.427325,-0.89991 -1.144595,-1.80483 -2.052583,-2.58956 -3.657287,-6.03401 -4.285727,-9.19919 -0.479772,-2.41641 -0.507188,-3.26861 -0.178906,-5.56145 0.373887,-2.61139 1.630246,-6.43569 2.431368,-7.40098 0.21303,-0.25669 0.605949,-0.4667 0.873152,-0.4667 0.267206,0 1.976685,1.50447 3.798847,3.34327 1.822159,1.8388 4.826739,4.46983 6.676844,5.84672 7.126371,5.30362 18.250895,9.66195 25.553508,10.01127 l 2.15575,0.10312 -0.0918,-2.51796 c -0.33722,-9.24637 5.84044,-17.53293 14.8991,-19.98529 2.54241,-0.68828 7.43837,-0.69463 9.97864,-0.0129 2.66593,0.7154 5.73775,2.32455 7.44943,3.90232 0.78992,0.72812 1.6961,1.32386 2.01374,1.32386 0.8294,0 5.30892,-1.58474 8.20217,-2.90172 2.6975,-1.22788 3.65686,-1.38564 3.93996,-0.6479 0.35634,0.92861 -2.07195,5.38195 -4.17804,7.66229 -0.82968,0.89831 -0.83342,0.92325 -0.13845,0.92325 0.39284,0 1.79307,-0.38915 3.11163,-0.86478 2.5954,-0.93621 3.35003,-0.88976 3.35003,0.20623 0,1.14288 -1.74595,3.35659 -5.35035,6.78378 l -3.37859,3.21245 -0.006,3.13684 c -0.0128,6.84406 -2.21571,15.69085 -5.71344,22.9448 -8.31667,17.24798 -25.28461,29.30866 -42.961312,30.53657 -5.760575,0.40016 -7.28644,0.42503 -10.575443,0.17238 z m 9.064666,-1.32401 c 5.456006,-0.40355 7.964086,-0.85748 12.250666,-2.2172 7.03764,-2.23237 13.5061,-6.11568 19.24183,-11.55172 4.30759,-4.08254 7.09122,-7.65097 11.13404,-14.2731 0.22546,-0.3693 1.26269,-2.80757 2.30494,-5.41837 2.72058,-6.81485 3.48703,-10.34906 3.86289,-17.81209 l 0.23999,-4.76539 3.4268,-3.23266 c 3.34819,-3.15851 5.01526,-5.0752 4.69381,-5.39664 -0.088,-0.088 -1.4264,0.20476 -2.97425,0.65054 -4.47408,1.28854 -4.96689,1.35885 -5.20344,0.7424 -0.14019,-0.36534 0.27233,-0.95917 1.28647,-1.85184 1.48424,-1.30649 4.96357,-6.0026 4.96357,-6.69944 0,-0.54619 -0.31284,-0.46897 -3.24163,0.80024 -1.47862,0.64077 -3.92228,1.41365 -5.43035,1.71752 -3.07862,0.62033 -2.5891,0.77599 -5.93221,-1.88628 -4.88938,-3.89364 -13.5776,-4.34067 -19.30438,-0.99325 -3.37656,1.97367 -6.78985,5.71819 -8.41106,9.2273 -1.31905,2.85507 -1.34231,2.97261 -1.41699,7.15985 l -0.0759,4.25712 -2.18224,0.006 c -1.20023,0.003 -2.711,-0.10474 -3.35728,-0.23989 -5.372617,-1.12352 -6.881659,-1.50038 -9.23253,-2.30569 -1.477204,-0.50602 -3.785135,-1.46352 -5.12873,-2.12778 -1.343598,-0.66425 -2.53954,-1.20773 -2.657649,-1.20773 -0.382012,0 -5.237436,-3.10706 -7.780998,-4.97918 -1.360684,-1.00149 -3.867003,-3.22302 -5.569602,-4.93672 -1.7026,-1.71371 -3.255444,-3.0164 -3.450767,-2.89487 -0.195327,0.12153 -0.705023,1.35404 -1.132664,2.73892 -0.59391,1.92334 -0.777177,3.31079 -0.776049,5.87524 0.0023,5.29349 1.466542,8.87562 5.189427,12.69566 1.267173,1.30025 2.215498,2.5072 2.10739,2.68213 -0.26302,0.42557 -3.243065,0.0881 -5.231383,-0.59243 -0.880824,-0.30148 -1.749521,-0.45666 -1.930438,-0.34484 -0.818163,0.50565 0.160968,4.95891 1.746409,7.94296 1.349258,2.53952 5.556821,6.60164 8.238723,7.95393 1.148802,0.57926 2.303489,1.05319 2.565975,1.05319 0.262486,0 0.559971,0.21557 0.661076,0.47905 0.342906,0.8936 -0.704315,1.27051 -3.479445,1.25231 -3.146335,-0.0206 -3.407096,0.22263 -2.325355,2.16939 2.98862,5.3785 8.605415,9.46893 13.724581,9.99491 1.001441,0.1029 1.980344,0.34663 2.175342,0.54163 0.500349,0.50035 -0.999595,1.66195 -4.667595,3.61473 -5.057156,2.69233 -6.306052,3.14232 -10.911171,3.93137 -3.587314,0.61466 -5.457166,0.84465 -7.050295,0.8672 -3.501052,0.0495 -3.523197,0.38663 -0.137279,2.08982 5.049589,2.54004 9.813464,4.02045 16.587968,5.15481 0.461626,0.0773 1.91527,0.1337 3.230318,0.12534 1.315051,-0.008 2.740993,0.11426 3.168768,0.27251 0.427772,0.15824 1.164756,0.22396 1.63774,0.14603 0.472988,-0.0779 2.52183,-0.2646 4.552987,-0.41484 z m 76.727566,-0.47267 c -0.008,-0.16286 0.32604,-0.84271 0.74119,-1.51078 1.87861,-3.02305 4.37909,-7.77924 4.78642,-9.10429 0.14191,-0.46163 0.68795,-1.7816 1.21342,-2.93328 0.52547,-1.15168 1.28543,-3.11551 1.68879,-4.36405 0.40337,-1.24855 0.79752,-2.07771 0.8759,-1.84257 0.0784,0.23514 -0.11678,1.21696 -0.43369,2.18182 -0.31692,0.96486 -0.79905,2.43414 -1.07141,3.26507 -1.28264,3.91314 -7.73431,15.74695 -7.80062,14.30808 z M 31.702745,181.01084 c -0.675416,-1.06432 -2.896602,-7.10607 -3.102494,-8.43896 l -0.165977,-1.07449 0.505287,1.00718 c 0.869694,1.73356 3.576272,8.97556 3.414809,9.13702 -0.08457,0.0846 -0.377805,-0.19926 -0.651625,-0.63075 z M 181.02465,169.81875 c 0.24048,-1.3951 1.4874,-7.05532 1.72424,-7.82696 0.0744,-0.24252 0.29778,-0.34055 0.49633,-0.21784 0.19854,0.1227 0.2622,0.4722 0.14146,0.77667 -0.12074,0.30446 -0.27157,0.93126 -0.33516,1.39288 -0.18244,1.32419 -0.82662,4.08604 -1.25291,5.37166 -0.5875,1.77182 -1.04375,2.06869 -0.77396,0.50359 z m -153.018351,0.6155 c -0.123101,-0.1231 -0.223819,-0.37993 -0.223819,-0.57074 0,-0.21037 0.156372,-0.19055 0.397278,0.0504 0.218504,0.2185 0.319222,0.47534 0.223819,0.57074 -0.0954,0.0954 -0.274178,0.0727 -0.397278,-0.0504 z m -0.656171,-1.93502 c -0.400752,-0.98193 -1.607957,-6.5579 -1.749521,-8.08088 -0.06865,-0.7386 -0.172361,-1.62881 -0.230458,-1.97823 -0.0581,-0.34943 0.06115,-0.69459 0.264987,-0.76702 0.229524,-0.0816 0.448704,0.6154 0.575732,1.83073 0.112812,1.07933 0.519274,3.30977 0.903248,4.95653 0.684233,2.93449 0.834452,5.50519 0.236012,4.03887 z m 155.590712,-7.72421 c 0.0638,-0.308 0.26707,-0.55202 0.45173,-0.54226 0.49831,0.0263 0.40676,0.77742 -0.116,0.95167 -0.28239,0.0941 -0.40824,-0.0593 -0.33573,-0.40941 z m 0.28386,-2.5389 c 0,-0.43272 0.17002,-0.67074 0.41966,-0.58752 0.23081,0.0769 0.41966,0.34132 0.41966,0.58752 0,0.2462 -0.18885,0.51059 -0.41966,0.58752 -0.24964,0.0832 -0.41966,-0.1548 -0.41966,-0.58752 z m 0.3905,-9.90399 c 0,-8.39639 0.0214,-8.68417 0.56014,-7.55388 0.46215,0.96948 0.56014,2.29095 0.56014,7.55388 0,5.26294 -0.098,6.58441 -0.56014,7.55389 -0.5388,1.13028 -0.56014,0.84251 -0.56014,-7.55389 z m -158.763947,7.3021 c -0.142006,-0.50779 -0.258192,-3.79374 -0.258192,-7.3021 0,-5.95644 0.244363,-8.59648 0.748987,-8.09185 0.299523,0.29952 0.312086,16.31723 0.0128,16.31721 -0.13497,-1e-5 -0.361587,-0.41548 -0.503593,-0.92326 z m 0.385041,-16.65498 c -0.10524,-0.27425 -0.02165,-0.81572 0.185761,-1.20326 0.207408,-0.38755 0.291859,-0.84257 0.187668,-1.01115 -0.248248,-0.40167 1.425367,-8.13117 1.853228,-8.55903 0.450763,-0.45076 0.230452,1.52206 -0.647547,5.79862 -0.391361,1.90624 -0.711566,3.82356 -0.711566,4.26072 0,0.93978 -0.593483,1.42829 -0.867544,0.7141 z m 157.988406,-0.5511 c 0,-0.3693 0.13492,-0.67146 0.29981,-0.67146 0.37737,0 0.72938,0.87327 0.46042,1.14223 -0.40413,0.40414 -0.76023,0.18363 -0.76023,-0.47077 z m -0.33573,-2.3501 c 0,-0.3693 0.13492,-0.67146 0.29981,-0.67146 0.37737,0 0.72938,0.87327 0.46043,1.14223 -0.40414,0.40414 -0.76024,0.18363 -0.76024,-0.47077 z m -0.12791,-1.37071 c -0.0824,-0.26169 -0.40499,-1.68442 -0.71674,-3.16162 -0.31175,-1.47721 -0.70247,-3.12384 -0.86827,-3.65918 -0.40069,-1.29379 -0.39363,-2.44403 0.0125,-2.03142 0.38653,0.39274 2.10289,7.24659 1.87242,7.47706 -0.0914,0.0914 0.007,0.37528 0.2196,0.63091 0.28569,0.34424 0.2878,0.56271 0.008,0.84241 -0.2797,0.2797 -0.41652,0.25425 -0.52756,-0.0982 z M 27.787621,127.11713 c -0.0028,-0.40457 0.145937,-0.82895 0.330587,-0.94307 0.427445,-0.26417 0.427445,0.51363 0,1.17505 -0.264583,0.40942 -0.326408,0.36603 -0.330587,-0.23198 z m 152.292519,-3.41471 c -0.5075,-1.70892 -0.74108,-2.28894 -2.35463,-5.84681 -0.48381,-1.06679 -0.88095,-2.04879 -0.88254,-2.18224 -0.006,-0.50322 -3.27415,-6.72422 -4.48702,-8.54113 -0.33503,-0.50187 -0.54766,-1.09694 -0.47252,-1.32236 0.36646,-1.09936 6.27493,10.58427 7.96616,15.75258 0.62018,1.89523 1.03926,3.53422 0.93128,3.64219 -0.10797,0.10798 -0.4233,-0.56803 -0.70073,-1.50223 z m -151.522464,0.35824 c 0.33401,-1.67005 2.60423,-7.57621 3.118995,-8.11432 0.881711,-0.92169 0.537721,0.42874 -1.035014,4.06325 -0.82791,1.91326 -1.50776,3.73412 -1.510778,4.04636 -0.003,0.31224 -0.180146,0.67565 -0.393621,0.80759 -0.276894,0.17113 -0.328363,-0.059 -0.179582,-0.80288 z M 32.6717,113.83605 c 0.668303,-2.1549 3.971864,-7.80985 6.861272,-11.74496 0.830927,-1.13164 1.944275,-2.672265 2.474106,-3.423599 0.52983,-0.751336 1.248408,-1.637229 1.596839,-1.968654 0.348431,-0.33142 0.876545,-0.973502 1.173586,-1.426844 0.297041,-0.453341 0.749316,-0.824258 1.005055,-0.824258 0.85732,0 0.76299,0.133922 -3.203535,4.548079 -1.092589,1.215886 -4.233786,5.725106 -5.343199,7.670196 -0.432504,0.7583 -1.282815,2.20965 -1.889579,3.22523 -0.606765,1.01558 -1.426821,2.48859 -1.822348,3.27335 -0.774578,1.53684 -1.232472,1.89762 -0.852197,0.67146 z m 136.6807,-11.39907 c -0.84198,-1.1627 -1.8421,-2.43205 -2.22249,-2.820787 -0.3804,-0.388734 -0.69163,-0.825311 -0.69163,-0.970175 0,-0.14486 -0.2474,-0.444289 -0.54978,-0.6654 -0.30239,-0.221107 -0.48727,-0.589576 -0.41086,-0.818815 0.1283,-0.384902 3.7345,3.935557 5.11486,6.127927 1.16334,1.8477 0.27119,1.23421 -1.2401,-0.85275 z m -5.76967,-6.984118 c -0.33524,-0.370433 -0.51066,-0.772381 -0.38982,-0.893217 0.24482,-0.244823 1.56673,0.837723 1.56673,1.283038 0,0.490117 -0.54349,0.310102 -1.17691,-0.389821 z M 48.144079,91.920446 c 0.108254,-0.282105 0.518977,-0.680304 0.912716,-0.884885 0.658541,-0.342168 0.650688,-0.301078 -0.09802,0.512919 -0.936219,1.017859 -1.089383,1.087789 -0.814696,0.371966 z m 112.244361,0.0012 c -0.64875,-0.7817 -0.18584,-0.929012 0.50846,-0.161809 0.33524,0.370437 0.45353,0.673519 0.26287,0.673519 -0.19066,0 -0.53776,-0.230267 -0.77133,-0.511705 z M 50.612007,89.591487 c 0,-0.27048 0.339925,-0.672428 0.755389,-0.893219 0.415464,-0.220791 1.42236,-1.057034 2.237549,-1.858318 0.815188,-0.801284 1.683885,-1.45688 1.930437,-1.45688 0.246553,0 0.448278,-0.124242 0.448278,-0.276092 0,-0.151851 0.566542,-0.657785 1.258982,-1.124299 0.692439,-0.466513 2.29058,-1.550894 3.551421,-2.409734 2.229324,-1.518536 3.183796,-1.938236 2.726991,-1.199113 -0.123192,0.199329 -1.718218,1.338284 -3.544506,2.531013 -1.826285,1.192728 -3.962803,2.765152 -4.74782,3.494275 -0.785017,0.729123 -1.598218,1.327561 -1.807115,1.329863 -0.208897,0.0023 -0.783126,0.532958 -1.276067,1.179235 -0.945853,1.240077 -1.533539,1.501921 -1.533539,0.683269 z m 107.190723,0.07212 c -0.17851,-0.230813 -0.45496,-0.646277 -0.61432,-0.923252 -0.24591,-0.427389 -0.16771,-0.423041 0.51685,0.02873 0.85766,0.566016 1.28158,1.314182 0.74463,1.314182 -0.17743,0 -0.46865,-0.188847 -0.64716,-0.419661 z m -3.60232,-3.152018 c -1.76976,-1.625243 -3.93055,-3.19934 -6.47898,-4.719817 -1.84225,-1.099142 -2.56326,-1.780354 -1.88439,-1.780354 0.29432,0 4.62184,2.864155 6.66852,4.413536 3.28227,2.484755 3.52515,2.691315 3.52515,2.998022 0,0.564309 -0.48799,0.321321 -1.8303,-0.911387 z M 64.785256,79.25319 c 0.96866,-0.807017 5.596742,-3.29364 6.103088,-3.279127 0.165275,0.0047 1.373897,-0.504594 2.685826,-1.131849 2.305611,-1.102348 5.987144,-2.437337 8.764165,-3.178039 0.738602,-0.197005 1.701757,-0.455203 2.140345,-0.573774 1.40729,-0.38046 0.477393,0.388852 -1.032398,0.854109 -1.817908,0.560208 -7.237927,2.479049 -9.66902,3.42311 -1.015578,0.394377 -3.206205,1.44042 -4.868061,2.324539 -1.661855,0.884118 -3.474788,1.76799 -4.02874,1.964158 l -1.007185,0.35667 z m 75.298354,-1.7243 c -3.74472,-1.936678 -12.17121,-5.239225 -13.36794,-5.239225 -0.52304,0 -1.09389,-0.589988 -0.82806,-0.855819 0.15158,-0.151583 0.72251,0.01485 4.79561,1.398001 4.15384,1.410569 11.76628,4.90954 13.15673,6.04734 1.48924,1.218637 0.57646,0.890521 -3.75634,-1.350297 z m -15.9471,-6.24641 c 0,-0.184651 0.15108,-0.335729 0.33573,-0.335729 0.18465,0 0.33573,0.151078 0.33573,0.335729 0,0.18465 -0.15108,0.335728 -0.33573,0.335728 -0.18465,0 -0.33573,-0.151078 -0.33573,-0.335728 z M 85.863483,70.984856 c 0,-0.163692 0.453233,-0.364143 1.007185,-0.445446 1.171457,-0.171934 1.363554,0.233526 0.251796,0.531465 -1.032257,0.276634 -1.258981,0.261144 -1.258981,-0.08602 z m 36.762257,-0.0381 c 0.11412,-0.18465 0.34965,-0.335728 0.5234,-0.335728 0.17376,0 0.31592,0.151078 0.31592,0.335728 0,0.184651 -0.23554,0.335729 -0.52341,0.335729 -0.28787,0 -0.43003,-0.151078 -0.31591,-0.335729 z M 88.555913,70.615104 c -0.416776,-0.257581 -0.401407,-0.338213 0.101216,-0.531088 0.700493,-0.268804 1.15789,0.06705 0.706311,0.518623 -0.1907,0.1907 -0.511136,0.195646 -0.807527,0.01247 z m 31.430827,0.0987 c -0.37809,-0.378092 -0.23028,-0.774239 0.2889,-0.774239 0.27697,0 0.50359,0.142162 0.50359,0.315915 0,0.423346 -0.52427,0.726548 -0.79249,0.458324 z M 90.060087,69.939566 c 0.114121,-0.18465 0.425193,-0.335728 0.691271,-0.335728 0.266078,0 0.483778,0.151078 0.483778,0.335728 0,0.184651 -0.311072,0.335729 -0.691271,0.335729 -0.380199,0 -0.597899,-0.151078 -0.483778,-0.335729 z m 1.582288,-0.04765 c 0.08341,-0.250767 0.516904,-0.483221 0.963322,-0.516565 0.446421,-0.03334 2.095834,-0.318493 3.665364,-0.633664 3.243938,-0.651401 13.263909,-1.033631 13.878679,-0.529426 0.21437,0.175826 1.29624,0.422158 2.40415,0.547404 2.51282,0.28407 3.18941,0.468446 3.18941,0.869143 0,0.393599 -4.59618,0.05328 -5.56434,-0.412 -1.29291,-0.621353 -11.288382,-0.09493 -17.389183,0.915827 -1.010909,0.167483 -1.265414,0.114088 -1.147402,-0.240719 z m 24.603055,0.04528 c -0.25491,-0.412455 0.66905,-0.814853 1.16591,-0.507773 0.19651,0.121447 0.27037,0.361451 0.16413,0.533343 -0.25624,0.414607 -1.06763,0.399008 -1.33004,-0.02557 z m 1.84797,0.0024 c 0,-0.18465 0.2177,-0.335728 0.48378,-0.335728 0.26608,0 0.57715,0.151078 0.69127,0.335728 0.11412,0.184651 -0.10358,0.335729 -0.48378,0.335729 -0.38019,0 -0.69127,-0.151078 -0.69127,-0.335729 z"
         id="path2480" />
      <path
         style="fill:#fafafa;stroke-width:0.335728"
         d="m 99.208684,228.84337 c -0.323138,-0.0844 -0.587524,-0.44461 -0.587524,-0.80037 0,-0.61595 0.304774,-0.64684 6.38168,-0.64684 6.22708,0 6.37185,0.0157 5.97582,0.6499 -0.22323,0.35744 -0.71551,0.73307 -1.09396,0.83473 -0.81051,0.21773 -9.82053,0.18614 -10.676016,-0.0374 z m -2.99516,-1.52397 c 0.214252,-0.21425 0.532798,-0.21425 0.915642,0 0.495773,0.27745 0.444669,0.32855 -0.32855,0.32855 -0.597097,0 -0.80134,-0.1143 -0.587092,-0.32855 z m 15.985846,0 c 0.38285,-0.21425 0.70139,-0.21425 0.91565,0 0.21424,0.21425 0.01,0.32855 -0.5871,0.32855 -0.77322,0 -0.82432,-0.0511 -0.32855,-0.32855 z m -32.211133,-3.12448 c -0.843511,-0.40628 -0.870789,-0.45225 -0.167864,-0.28285 0.461626,0.11125 0.982844,0.33637 1.158262,0.50027 0.435158,0.40657 0.19618,0.35411 -0.990398,-0.21742 z m 47.641363,0.12781 c -0.14297,-0.23134 -0.0926,-0.29681 0.12485,-0.16239 0.20043,0.12387 0.4389,0.10468 0.52995,-0.0426 0.091,-0.14732 0.66802,-0.29777 1.28218,-0.33435 l 1.11664,-0.0665 -1.12967,0.49674 c -1.36064,0.5983 -1.61279,0.6126 -1.92395,0.10913 z m 10.6075,-3.81785 c 0,-0.16344 1.8791,-1.1662 2.18538,-1.1662 0.11239,0 0.12017,0.1362 0.0173,0.30267 -0.1977,0.31989 -2.20267,1.10592 -2.20267,0.86353 z m -69.011935,-0.64591 c -0.628731,-0.46974 -0.624894,-0.48014 0.108928,-0.29521 0.418341,0.10544 0.842721,0.32454 0.943067,0.4869 0.283966,0.45946 -0.330246,0.34754 -1.051995,-0.19169 z m 76.901095,-3.58744 c 0.23952,-0.6242 1.64489,-1.53041 1.44543,-0.93205 -0.0764,0.22912 -0.47363,0.63887 -0.88279,0.91054 -0.62056,0.41203 -0.71387,0.4156 -0.56264,0.0215 z m -83.931625,-0.29014 c -0.114121,-0.18465 -0.05641,-0.33572 0.128238,-0.33572 0.18465,0 0.429098,0.15107 0.543218,0.33572 0.114121,0.18465 0.05641,0.33573 -0.128238,0.33573 -0.18465,0 -0.429098,-0.15108 -0.543218,-0.33573 z m 88.540355,-2.87842 c 0.31874,-0.33371 0.67161,-0.51468 0.78414,-0.40215 0.11254,0.11254 -0.14825,0.38559 -0.57953,0.60676 -0.74963,0.38445 -0.75864,0.37545 -0.20461,-0.20461 z m -94.261542,-1.17265 c -0.121712,-0.19694 -0.149292,-0.43007 -0.06129,-0.51807 0.088,-0.088 0.249466,0.0731 0.358809,0.35806 0.227013,0.59159 0.03354,0.69565 -0.297522,0.16001 z m -4.518528,-3.69049 c 0,-0.19555 0.151078,-0.26217 0.335729,-0.14805 0.18465,0.11412 0.335728,0.27411 0.335728,0.35554 0,0.0814 -0.151078,0.14805 -0.335728,0.14805 -0.184651,0 -0.335729,-0.15999 -0.335729,-0.35554 z m -0.783366,-0.53974 c -0.1231,-0.12309 -0.223819,-0.37993 -0.223819,-0.57073 0,-0.21037 0.156373,-0.19055 0.397279,0.0504 0.218503,0.2185 0.319222,0.47533 0.223819,0.57073 -0.0954,0.0954 -0.274179,0.0728 -0.397279,-0.0504 z m 106.544526,-0.28788 c 0.23357,-0.28144 0.49382,-0.44257 0.57832,-0.35807 0.23283,0.23283 -0.24023,0.86977 -0.64597,0.86977 -0.22263,0 -0.19715,-0.19263 0.0677,-0.5117 z M 44.83986,201.29328 c -0.563994,-0.65673 -1.037453,-1.42685 -0.877211,-1.42685 0.05766,0 0.532615,0.45324 1.055457,1.00719 0.522842,0.55395 0.810152,1.00718 0.638468,1.00718 -0.171684,0 -0.539205,-0.26438 -0.816714,-0.58752 z m 118.79119,0.0839 c 0.10629,-0.27697 0.25262,-0.50359 0.32519,-0.50359 0.0726,0 0.13195,0.22662 0.13195,0.50359 0,0.27698 -0.14634,0.50359 -0.3252,0.50359 -0.17885,0 -0.23823,-0.22661 -0.13194,-0.50359 z m 0.80494,-0.3939 c 0.0166,-0.38096 1.66282,-2.36316 1.6649,-2.00466 0.001,0.15799 -0.37603,0.73613 -0.83765,1.28474 -0.46163,0.54861 -0.83389,0.87257 -0.82725,0.71992 z m 4.41501,-5.80908 c 0.14475,-0.68162 0.92869,-1.47869 1.1937,-1.21368 0.11944,0.11943 -0.12397,0.55288 -0.5409,0.96322 -0.49502,0.48719 -0.72153,0.5741 -0.6528,0.25046 z M 39.526238,194.6545 c -0.233573,-0.28144 -0.33985,-0.59653 -0.236173,-0.70021 0.103678,-0.10368 0.357139,0.12659 0.563246,0.51171 0.439753,0.82168 0.276504,0.91577 -0.327073,0.1885 z m 46.16938,-1.51286 c -4.588523,-0.35247 -7.452188,-0.85383 -11.459677,-2.00633 -4.361296,-1.25426 -9.314816,-3.39723 -11.871398,-5.13576 -1.713856,-1.16545 -2.050957,-1.54995 -1.932062,-2.20369 0.06524,-0.35874 1.148429,-0.47787 4.951573,-0.54462 5.194708,-0.0912 7.987726,-0.56479 12.152161,-2.06066 2.884252,-1.03603 6.474081,-2.79328 7.647189,-3.74337 l 0.830696,-0.67277 -2.341473,-0.71224 c -3.0914,-0.94035 -4.884629,-1.89356 -7.008698,-3.72552 -2.325188,-2.00543 -4.176387,-4.25141 -5.305485,-6.43693 -1.569161,-3.03731 -1.227034,-3.69088 1.932093,-3.69088 0.821651,0 1.490912,-0.10071 1.48725,-0.22381 -0.0037,-0.1231 -0.77377,-0.67706 -1.711345,-1.23101 -2.364679,-1.39713 -6.106305,-5.43259 -7.384906,-7.96485 -2.032107,-4.02457 -2.878229,-8.43716 -1.790879,-9.33958 0.430629,-0.35739 0.927856,-0.29898 2.867389,0.33688 1.290526,0.42308 2.418204,0.69746 2.505943,0.60971 0.08774,-0.0877 -0.427325,-0.89991 -1.144595,-1.80483 -2.052583,-2.58956 -3.657287,-6.03401 -4.285727,-9.19919 -0.479772,-2.41641 -0.507188,-3.26861 -0.178906,-5.56145 0.373887,-2.61139 1.630246,-6.43569 2.431368,-7.40098 0.21303,-0.25669 0.605949,-0.4667 0.873152,-0.4667 0.267206,0 1.976685,1.50447 3.798847,3.34327 1.822159,1.8388 4.826739,4.46983 6.676844,5.84672 7.035856,5.23626 17.16575,9.24257 25.586348,10.11924 l 2.21792,0.2309 -0.15913,-2.47961 c -0.58964,-9.18789 5.71851,-17.78152 14.87139,-20.25939 2.54241,-0.68828 7.43837,-0.69463 9.97864,-0.0129 2.66593,0.7154 5.73775,2.32455 7.44943,3.90232 0.78992,0.72812 1.6961,1.32386 2.01374,1.32386 0.8294,0 5.30892,-1.58474 8.20217,-2.90172 2.6975,-1.22788 3.65686,-1.38564 3.93996,-0.6479 0.35634,0.92861 -2.07195,5.38195 -4.17804,7.66229 -0.82968,0.89831 -0.83342,0.92325 -0.13845,0.92325 0.39284,0 1.79307,-0.38915 3.11163,-0.86478 2.5954,-0.93621 3.35003,-0.88976 3.35003,0.20623 0,1.14288 -1.74595,3.35659 -5.35035,6.78378 l -3.37859,3.21245 -0.006,3.13684 c -0.0128,6.84406 -2.21571,15.69085 -5.71344,22.9448 -8.31667,17.24798 -25.28461,29.30866 -42.961312,30.53657 -5.760575,0.40016 -7.28644,0.42503 -10.575443,0.17238 z m 9.064666,-1.32401 c 5.456006,-0.40355 7.964086,-0.85748 12.250666,-2.2172 7.03764,-2.23237 13.5061,-6.11568 19.24183,-11.55172 4.30759,-4.08254 7.09122,-7.65097 11.13404,-14.2731 0.22546,-0.3693 1.26269,-2.80757 2.30494,-5.41837 2.72058,-6.81485 3.48703,-10.34906 3.86289,-17.81209 l 0.23999,-4.76539 3.4268,-3.23266 c 3.34819,-3.15851 5.01526,-5.0752 4.69381,-5.39664 -0.088,-0.088 -1.48107,0.22287 -3.09574,0.69078 -2.92047,0.84632 -4.56089,1.05298 -4.98577,0.6281 -0.12246,-0.12247 0.57904,-1.0667 1.55891,-2.0983 1.84228,-1.93956 4.59495,-5.76732 4.59495,-6.38956 0,-0.53458 -0.32376,-0.45359 -3.24163,0.81088 -1.47862,0.64077 -3.92228,1.41365 -5.43035,1.71752 -3.07862,0.62033 -2.5891,0.77599 -5.93221,-1.88628 -4.88938,-3.89364 -13.5776,-4.34067 -19.30438,-0.99325 -3.35836,1.96303 -6.79079,5.72022 -8.39198,9.18601 -1.27468,2.75902 -1.32584,3.00695 -1.42972,6.92815 -0.12446,4.69839 -0.16741,4.76492 -2.93597,4.54847 -5.503508,-0.43026 -11.984753,-2.19963 -16.840342,-4.59738 -1.443719,-0.71292 -2.727138,-1.29622 -2.852042,-1.29622 -0.39243,0 -5.211804,-3.0791 -7.793353,-4.97918 -1.360684,-1.00149 -3.867003,-3.22302 -5.569602,-4.93672 -1.7026,-1.71371 -3.253973,-3.0164 -3.447504,-2.89487 -0.559602,0.3514 -1.700246,4.44941 -1.941356,6.97473 -0.255506,2.67613 0.148385,5.54277 1.160559,8.2371 0.89149,2.37308 2.044314,4.10033 4.298327,6.44011 0.969415,1.0063 1.762574,2.01817 1.762574,2.24859 0,0.54452 -2.899861,0.26113 -5.126646,-0.50101 -0.880824,-0.30148 -1.749521,-0.45666 -1.930438,-0.34484 -0.818163,0.50565 0.160968,4.95891 1.746409,7.94296 1.519271,2.85952 5.642505,6.70512 8.793735,8.20164 1.408028,0.66867 2.56005,1.41232 2.56005,1.65257 0,0.5446 -2.313454,0.99527 -4.447132,0.86632 -1.153955,-0.0697 -1.64533,0.0389 -1.781586,0.394 -0.319533,0.83269 1.46667,3.67252 4.094123,6.50913 2.143525,2.31417 7.200215,5.14833 9.185602,5.14833 1.880619,0 3.020843,0.396 3.020843,1.04915 0,0.34622 -0.210455,0.62949 -0.467673,0.62949 -0.257222,0 -0.547845,0.20892 -0.64583,0.46426 -0.09798,0.25535 -1.587156,1.2042 -3.309268,2.10857 -5.250137,2.75709 -6.422906,3.17925 -11.020733,3.96705 -3.587314,0.61466 -5.457166,0.84465 -7.050295,0.8672 -3.501052,0.0495 -3.523197,0.38663 -0.137279,2.08982 5.049589,2.54004 9.813464,4.02045 16.587968,5.15481 0.461626,0.0773 1.91527,0.1337 3.230318,0.12534 1.315051,-0.008 2.740993,0.11426 3.168768,0.27251 0.427772,0.15824 1.164756,0.22396 1.63774,0.14603 0.472988,-0.0779 2.52183,-0.2646 4.552987,-0.41484 z m 77.385386,-1.64772 c 0,-0.18465 0.15107,-0.4291 0.33572,-0.54322 0.18465,-0.11412 0.33573,-0.0564 0.33573,0.12824 0,0.18465 -0.15108,0.4291 -0.33573,0.54322 -0.18465,0.11412 -0.33572,0.0564 -0.33572,-0.12824 z m 5.03592,-9.33403 c 0,-0.40742 1.41518,-3.16719 1.55328,-3.02909 0.15668,0.15668 -1.17708,3.25883 -1.40112,3.25883 -0.0837,0 -0.15216,-0.10338 -0.15216,-0.22974 z M 30.661084,178.49154 c -0.118134,-0.30785 -0.0915,-0.68302 0.05918,-0.8337 0.150685,-0.15069 0.305024,0.10119 0.342973,0.55973 0.07969,0.96281 -0.09275,1.08028 -0.402158,0.27397 z m -0.502001,-1.65047 c 0.01611,-0.39111 0.09566,-0.47066 0.202836,-0.20284 0.09698,0.24235 0.08506,0.53192 -0.02651,0.64348 -0.11156,0.11156 -0.190909,-0.0867 -0.176331,-0.44064 z m 148.727657,0 c 0.0161,-0.39111 0.0957,-0.47066 0.20283,-0.20284 0.097,0.24235 0.0851,0.53192 -0.0265,0.64348 -0.11156,0.11156 -0.19091,-0.0867 -0.17633,-0.44064 z M 27.226875,167.11844 c -0.109341,-0.28494 -0.123787,-0.59309 -0.0321,-0.68477 0.09168,-0.0917 0.247283,0.14144 0.345773,0.51807 0.209209,0.80002 -0.02324,0.92355 -0.313671,0.1667 z m 154.681415,-0.34922 c 0.0161,-0.39111 0.0957,-0.47066 0.20284,-0.20284 0.097,0.24235 0.085,0.53192 -0.0265,0.64348 -0.11156,0.11156 -0.19091,-0.0867 -0.17633,-0.44064 z m 0.33573,-1.34292 c 0.0161,-0.3911 0.0957,-0.47065 0.20284,-0.20283 0.097,0.24235 0.0851,0.53192 -0.0265,0.64348 -0.11156,0.11156 -0.19091,-0.0867 -0.17633,-0.44065 z M 26.466071,164.08339 c 0.01611,-0.39111 0.09566,-0.47066 0.202836,-0.20284 0.09698,0.24235 0.08506,0.53192 -0.02651,0.64348 -0.111559,0.11156 -0.190908,-0.0867 -0.176331,-0.44064 z m 156.113679,0 c 0.0161,-0.39111 0.0957,-0.47066 0.20283,-0.20284 0.097,0.24235 0.0851,0.53192 -0.0265,0.64348 -0.11155,0.11156 -0.1909,-0.0867 -0.17633,-0.44064 z M 26.103838,162.62805 c 0,-0.16955 -0.0917,-0.54725 -0.203783,-0.83932 -0.112081,-0.29208 -0.06949,-0.53106 0.09464,-0.53106 0.164132,0 0.329681,0.3777 0.367887,0.83933 0.03821,0.46162 -0.0044,0.83932 -0.09464,0.83932 -0.09026,0 -0.164103,-0.13873 -0.164104,-0.30827 z m 156.811642,-0.2233 c 0.0161,-0.39111 0.0957,-0.47066 0.20283,-0.20284 0.097,0.24235 0.0851,0.53192 -0.0265,0.64348 -0.11156,0.11156 -0.19091,-0.0867 -0.17633,-0.44064 z M 25.646702,159.41117 c -0.106286,-0.27698 -0.04691,-0.50359 0.131945,-0.50359 0.178855,0 0.325191,0.22661 0.325191,0.50359 0,0.27697 -0.05937,0.50359 -0.131945,0.50359 -0.07257,0 -0.218906,-0.22662 -0.325191,-0.50359 z m -0.831241,-5.05031 c -0.6099,-1.33858 -0.522081,-10.90302 0.11126,-12.11739 l 0.501524,-0.96163 0.01586,0.83932 c 0.07465,3.95057 0.0034,12.85442 -0.103657,12.96152 -0.0741,0.0741 -0.310341,-0.25072 -0.524986,-0.72182 z m 158.995149,0.32052 c -0.27123,-0.27123 -0.32146,-10.98429 -0.0564,-12.04021 0.1752,-0.69804 0.31282,-0.79618 0.68424,-0.48792 0.66498,0.55188 0.67808,11.79502 0.0144,12.34584 -0.2478,0.20565 -0.53678,0.28769 -0.64218,0.18229 z M 25.557224,138.20569 c 0.08562,-0.52392 0.168095,-1.30143 0.183279,-1.72779 0.01518,-0.42637 0.162956,-0.69155 0.328382,-0.58932 0.16649,0.1029 0.183968,0.70381 0.03915,1.34592 -0.143896,0.63802 -0.193654,1.22801 -0.110575,1.31109 0.08308,0.0831 -0.01701,0.25492 -0.222425,0.38187 -0.252411,0.156 -0.323016,-0.078 -0.217808,-0.72177 z m 0.573119,-4.00212 c 0.01611,-0.39111 0.09566,-0.47066 0.202836,-0.20284 0.09698,0.24235 0.08506,0.53192 -0.02651,0.64348 -0.11156,0.11156 -0.190909,-0.0867 -0.176331,-0.44064 z m 0.362233,-1.4828 c 0,-0.46163 0.0762,-0.65048 0.169337,-0.41966 0.09314,0.23081 0.09314,0.6085 0,0.83932 -0.09314,0.23081 -0.169337,0.042 -0.169337,-0.41966 z m 0.339781,-1.34292 c 0.0054,-0.27697 0.130828,-0.88128 0.278666,-1.34291 0.216085,-0.67472 0.270733,-0.70765 0.278666,-0.16786 0.0054,0.3693 -0.119972,0.97361 -0.278666,1.34291 -0.176772,0.41137 -0.284712,0.47639 -0.278666,0.16786 z M 181.90829,129.8391 c 0.0161,-0.39111 0.0957,-0.47066 0.20284,-0.20284 0.097,0.24235 0.085,0.53192 -0.0265,0.64348 -0.11156,0.11156 -0.19091,-0.0867 -0.17633,-0.44064 z m -0.84424,-3.06303 c -0.18219,-0.47848 -0.14363,-0.51704 0.18794,-0.18794 0.22945,0.22774 0.3326,0.49863 0.22923,0.602 -0.10337,0.10337 -0.29109,-0.083 -0.41717,-0.41406 z M 30.714455,119.0755 c -0.27305,-0.43382 0.688052,-2.99032 1.005028,-2.67334 0.112562,0.11256 0.03596,0.54436 -0.170225,0.95954 -0.206185,0.41519 -0.423984,1.05704 -0.483997,1.42634 -0.06914,0.4255 -0.197649,0.5308 -0.350806,0.28746 z m 4.469437,-10.2202 c 0.206108,-0.38512 0.456704,-0.61825 0.55688,-0.51807 0.276728,0.27673 -0.166538,1.21828 -0.573544,1.21828 -0.248291,0 -0.243182,-0.21468 0.01666,-0.70021 z m 138.528508,0.47639 c -0.1231,-0.1231 -0.22382,-0.37993 -0.22382,-0.57074 0,-0.21036 0.15637,-0.19054 0.39728,0.0504 0.2185,0.21851 0.31922,0.47534 0.22382,0.57074 -0.0954,0.0954 -0.27418,0.0727 -0.39728,-0.0504 z M 39.197243,102.55725 c 0,-0.15603 0.314799,-0.56858 0.699552,-0.91678 0.697793,-0.6315 0.698502,-0.63078 0.281839,0.28369 -0.395758,0.8686 -0.981391,1.24639 -0.981391,0.63309 z m 129.960067,-0.47169 c -0.46239,-0.75271 -0.46149,-0.75312 0.25497,-0.11583 0.76925,0.68424 0.86884,0.87121 0.46405,0.87121 -0.14024,0 -0.46379,-0.33992 -0.71902,-0.75538 z M 42.050934,98.812204 c 0.114121,-0.184651 0.274114,-0.335729 0.355542,-0.335729 0.08143,0 0.148051,0.151078 0.148051,0.335729 0,0.18465 -0.159994,0.335728 -0.355542,0.335728 -0.195548,0 -0.262171,-0.151078 -0.148051,-0.335728 z m 0.842902,-0.768983 c -0.0068,-0.50141 1.446222,-2.226138 1.728451,-2.051711 0.155286,0.09597 0.282338,-0.05212 0.282338,-0.329098 0,-0.519401 0.597794,-1.064521 0.869463,-0.792851 0.08433,0.08433 -0.528417,0.89262 -1.361669,1.79619 -0.833251,0.903573 -1.516614,1.523435 -1.518583,1.37747 z M 164.25605,95.790649 c 0.11412,-0.184651 0.27412,-0.335729 0.35554,-0.335729 0.0814,0 0.14805,0.151078 0.14805,0.335729 0,0.18465 -0.15999,0.335728 -0.35554,0.335728 -0.19555,0 -0.26217,-0.151078 -0.14805,-0.335728 z M 48.144079,91.920446 c 0.108254,-0.282105 0.518977,-0.680304 0.912716,-0.884885 0.658541,-0.342168 0.650688,-0.301078 -0.09802,0.512919 -0.936219,1.017859 -1.089383,1.087789 -0.814696,0.371966 z m 112.244361,0.0012 c -0.64875,-0.7817 -0.18584,-0.929012 0.50846,-0.161809 0.33524,0.370437 0.45353,0.673519 0.26287,0.673519 -0.19066,0 -0.53776,-0.230267 -0.77133,-0.511705 z M 50.947735,89.472732 c 0,-0.405746 0.636944,-0.878801 0.869771,-0.645974 0.0845,0.0845 -0.07663,0.344746 -0.358065,0.578319 -0.319071,0.264805 -0.511706,0.290274 -0.511706,0.06765 z m 2.350099,-2.035664 c 0,-0.184651 0.151077,-0.4291 0.335728,-0.54322 0.184651,-0.114121 0.335728,-0.05641 0.335728,0.128236 0,0.184651 -0.151077,0.4291 -0.335728,0.54322 -0.184651,0.114121 -0.335728,0.05641 -0.335728,-0.128236 z m 1.510777,-1.382541 c 0.114121,-0.184651 0.358568,-0.335729 0.543219,-0.335729 0.18465,0 0.242359,0.151078 0.128238,0.335729 -0.114121,0.18465 -0.358568,0.335728 -0.543219,0.335728 -0.18465,0 -0.242359,-0.151078 -0.128238,-0.335728 z m 1.678642,-1.342914 c 0.114121,-0.18465 0.274115,-0.335728 0.355543,-0.335728 0.08143,0 0.148049,0.151078 0.148049,0.335728 0,0.184651 -0.159994,0.335729 -0.355543,0.335729 -0.195548,0 -0.26217,-0.151078 -0.148049,-0.335729 z m 5.539517,-3.667629 c 0,-0.1591 0.226617,-0.376233 0.503593,-0.482519 0.276976,-0.106286 0.503593,-0.06307 0.503593,0.09603 0,0.1591 -0.226617,0.376233 -0.503593,0.482519 -0.276976,0.106286 -0.503593,0.06307 -0.503593,-0.09603 z m 84.60354,-0.02538 c -0.30259,-0.195549 -0.344,-0.327499 -0.10374,-0.330588 0.21991,-0.0028 0.49321,0.145937 0.60733,0.330588 0.25761,0.416815 0.14139,0.416815 -0.50359,0 z m -81.246256,-2.01437 c 0,-0.184651 0.159995,-0.335729 0.355543,-0.335729 0.195548,0 0.26217,0.151078 0.148049,0.335729 -0.11412,0.18465 -0.274115,0.335728 -0.355543,0.335728 -0.08143,0 -0.148049,-0.151078 -0.148049,-0.335728 z M 66.974265,78.4613 c -0.116438,-0.188395 0.647586,-0.760855 1.701105,-1.274591 1.533815,-0.747947 1.779528,-0.801787 1.241016,-0.271924 -0.369301,0.363369 -0.784765,0.595535 -0.923252,0.515925 -0.138488,-0.07961 -0.251797,0.02417 -0.251797,0.23061 0,0.206446 -0.151077,0.281985 -0.335728,0.167864 -0.184651,-0.11412 -0.335728,-0.03858 -0.335728,0.167865 0,0.206445 -0.138176,0.289959 -0.307054,0.185586 -0.168878,-0.104374 -0.367838,-0.0074 -0.442128,0.215446 -0.08616,0.258485 -0.211606,0.281377 -0.346434,0.06322 z m 9.103045,-4.577232 c 0.254086,-0.254087 0.49902,-0.272537 0.717509,-0.05405 0.218489,0.218488 0.0868,0.35018 -0.385779,0.385779 -0.540398,0.04071 -0.622282,-0.04118 -0.33173,-0.331731 z m 1.414461,-0.182753 c -0.28686,-0.09896 0.121016,-0.410877 1.007185,-0.770222 1.913101,-0.775771 3.311863,-0.836759 1.657145,-0.07225 -0.646277,0.29859 -1.312282,0.511318 -1.480012,0.47273 -0.167729,-0.03859 -0.394346,0.06624 -0.503592,0.232949 -0.109246,0.16671 -0.415575,0.228269 -0.680726,0.136797 z m 53.359309,-0.264567 c -0.56448,-0.31322 -0.66039,-0.467347 -0.2929,-0.470675 0.30052,-0.0027 0.73449,0.221667 0.96436,0.498643 0.49025,0.590722 0.43974,0.588618 -0.67146,-0.02797 z m -2.18223,-0.811353 c -0.44274,-0.190251 -0.49992,-0.294821 -0.16787,-0.30699 0.27698,-0.01015 0.73021,0.127995 1.00719,0.30699 0.6137,0.396603 0.0836,0.396603 -0.83932,0 z m -36.839995,-2.74238 c 0.195092,-0.195092 0.552884,-0.288657 0.795092,-0.207921 0.251444,0.08381 0.09926,0.235997 -0.354714,0.354714 -0.558434,0.146033 -0.689512,0.10234 -0.440378,-0.146793 z m 1.420651,-0.237601 c 0,-0.184565 0.264386,-0.330494 0.587525,-0.324287 1.64894,0.03167 4.624365,-0.516746 5.035794,-0.928176 0.69201,-0.692009 10.714125,-0.674302 11.481645,0.02029 0.4409,0.399017 2.45001,0.779062 4.96917,0.939978 0.23082,0.01474 0.41966,0.138328 0.41966,0.274633 0,0.26023 -1.9756,0.08656 -4.11906,-0.362101 -2.90866,-0.608826 -11.938738,-0.340423 -17.115753,0.508735 -0.752844,0.123485 -1.258981,0.0716 -1.258981,-0.129068 z m 23.438034,0.06481 c 0.24235,-0.09698 0.53192,-0.08506 0.64348,0.02651 0.11156,0.11156 -0.0867,0.190909 -0.44064,0.176332 -0.39111,-0.01611 -0.47066,-0.09566 -0.20284,-0.202836 z"
         id="path2478" />
      <path
         style="fill:#f8fafa;stroke-width:0.335728"
         d="m 98.84498,228.51525 c -0.812547,-0.81254 0.08147,-0.95123 6.13203,-0.95123 6.03085,0 6.3275,0.03 5.82259,0.58753 -0.46616,0.51479 -1.22515,0.58752 -6.13141,0.58752 -3.07967,0 -5.700112,-0.10072 -5.82321,-0.22382 z m -18.856743,-4.32033 c -0.843511,-0.40628 -0.870789,-0.45225 -0.167864,-0.28285 0.461626,0.11125 0.982844,0.33637 1.158262,0.50027 0.435158,0.40657 0.19618,0.35411 -0.990398,-0.21742 z m 48.036433,0.18598 c 0.18119,-0.18119 0.85348,-0.4158 1.49399,-0.52136 l 1.16456,-0.19193 -1.12967,0.52136 c -1.30181,0.60081 -2.02906,0.69211 -1.52888,0.19193 z m 10.21243,-3.87602 c 0,-0.16344 1.8791,-1.1662 2.18538,-1.1662 0.11239,0 0.12017,0.1362 0.0173,0.30267 -0.1977,0.31989 -2.20267,1.10592 -2.20267,0.86353 z m -69.011935,-0.64591 c -0.628731,-0.46974 -0.624894,-0.48014 0.108928,-0.29521 0.418341,0.10544 0.842721,0.32454 0.943067,0.4869 0.283966,0.45946 -0.330246,0.34754 -1.051995,-0.19169 z m 76.733695,-3.33819 c 0,-0.0856 0.2374,-0.39311 0.52757,-0.68327 0.58057,-0.58057 1.31243,-0.72455 0.98432,-0.19365 -0.23222,0.37574 -1.51189,1.11797 -1.51189,0.87692 z m -83.764225,-0.53939 c -0.114121,-0.18465 -0.05641,-0.33572 0.128238,-0.33572 0.18465,0 0.429098,0.15107 0.543218,0.33572 0.114121,0.18465 0.05641,0.33573 -0.128238,0.33573 -0.18465,0 -0.429098,-0.15108 -0.543218,-0.33573 z m 88.540355,-2.87842 c 0.31874,-0.33371 0.67161,-0.51468 0.78414,-0.40215 0.11254,0.11254 -0.14825,0.38559 -0.57953,0.60676 -0.74963,0.38445 -0.75864,0.37545 -0.20461,-0.20461 z m -99.563436,-5.40288 c -0.1231,-0.12309 -0.223819,-0.37993 -0.223819,-0.57073 0,-0.21037 0.156373,-0.19055 0.397279,0.0504 0.218503,0.2185 0.319222,0.47533 0.223819,0.57073 -0.0954,0.0954 -0.274179,0.0728 -0.397279,-0.0504 z m 106.544526,-0.28788 c 0.23357,-0.28144 0.49382,-0.44257 0.57832,-0.35807 0.23283,0.23283 -0.24023,0.86977 -0.64597,0.86977 -0.22263,0 -0.19715,-0.19263 0.0677,-0.5117 z M 45.072489,201.54508 c -0.11412,-0.18465 -0.05641,-0.33573 0.128237,-0.33573 0.184651,0 0.4291,0.15108 0.54322,0.33573 0.11412,0.18465 0.05641,0.33572 -0.128237,0.33572 -0.18465,0 -0.429099,-0.15107 -0.54322,-0.33572 z m 118.512101,0 c 0.11412,-0.18465 0.27412,-0.33573 0.35555,-0.33573 0.0814,0 0.14805,0.15108 0.14805,0.33573 0,0.18465 -0.16,0.33572 -0.35555,0.33572 -0.19555,0 -0.26217,-0.15107 -0.14805,-0.33572 z m 1.84651,-1.97475 c 0,-0.18465 0.15108,-0.4291 0.33573,-0.54322 0.18465,-0.11412 0.33573,-0.0564 0.33573,0.12824 0,0.18465 -0.15108,0.4291 -0.33573,0.54322 -0.18465,0.11412 -0.33573,0.0564 -0.33573,-0.12824 z m 3.7188,-4.83023 c 0.22975,-0.50423 0.54455,-0.91678 0.69956,-0.91678 0.49438,0 0.3039,0.54743 -0.41771,1.20048 -0.6978,0.63149 -0.69851,0.63078 -0.28185,-0.2837 z M 39.526238,194.6545 c -0.233573,-0.28144 -0.33985,-0.59653 -0.236173,-0.70021 0.103678,-0.10368 0.357139,0.12659 0.563246,0.51171 0.439753,0.82168 0.276504,0.91577 -0.327073,0.1885 z m 49.925341,-1.38376 c -0.437823,-0.43782 -0.228795,-0.79036 0.46862,-0.79036 0.390704,0 0.640774,0.17598 0.566542,0.39868 -0.163537,0.49061 -0.72412,0.70272 -1.035162,0.39168 z m -5.418373,-0.42837 c -0.115571,-0.187 -0.657128,-0.25059 -1.203462,-0.14133 -0.546334,0.10927 -1.196459,0.0301 -1.44472,-0.17595 -0.248261,-0.20604 -0.536769,-0.28922 -0.641133,-0.18486 -0.342228,0.34223 -7.318197,-1.55018 -10.740574,-2.91365 -3.894708,-1.55164 -5.522238,-2.34916 -7.72475,-3.78526 -1.664021,-1.08499 -2.137186,-2.2256 -0.923253,-2.2256 0.433042,0 0.671456,0.22382 0.671456,0.63035 0,0.81837 0.315427,1.05565 3.525148,2.65178 6.740891,3.35211 12.397639,4.91435 19.562434,5.40261 1.711459,0.11663 3.146698,0.36313 3.189419,0.54778 0.103414,0.447 -3.999035,0.63348 -4.270565,0.19413 z m 7.211341,-0.0133 c -0.737169,-0.46619 -0.07533,-0.60288 3.851465,-0.79545 11.480038,-0.56298 22.884958,-5.6539 31.674168,-14.13871 2.72713,-2.63268 6.65685,-7.31458 7.96503,-9.4896 0.35651,-0.59275 1.28556,-2.12199 2.06456,-3.39833 1.35358,-2.21775 5.46607,-12.22874 5.46607,-13.30598 0,-0.28335 0.1473,-0.51518 0.32734,-0.51518 0.86831,0 -1.34311,6.51705 -4.04423,11.91836 -6.47452,12.9468 -17.60159,22.79118 -30.74342,27.19944 -3.72543,1.24965 -10.032158,2.64552 -10.734714,2.37593 -0.243386,-0.0934 -0.531817,-0.0254 -0.640952,0.15125 -0.254596,0.41195 -4.533447,0.41051 -5.185317,-0.002 z m 80.901123,-2.65913 c 0,-0.18465 0.15107,-0.4291 0.33572,-0.54322 0.18465,-0.11412 0.33573,-0.0564 0.33573,0.12824 0,0.18465 -0.15108,0.4291 -0.33573,0.54322 -0.18465,0.11412 -0.33572,0.0564 -0.33572,-0.12824 z M 62.362499,184.12312 c 0,-0.4778 0.926137,-0.70737 2.853691,-0.70737 1.992319,0 2.944686,0.25261 2.664085,0.70663 -0.242319,0.39208 -5.517776,0.39279 -5.517776,7.4e-4 z m 6.46277,-0.45558 c 0.07694,-0.23081 0.416864,-0.41966 0.755389,-0.41966 0.338525,0 0.67845,0.18885 0.755389,0.41966 0.0886,0.26579 -0.188381,0.41966 -0.755389,0.41966 -0.567008,0 -0.843984,-0.15387 -0.755389,-0.41966 z m 2.266167,-0.25179 c 0,-0.18466 0.311072,-0.33573 0.691271,-0.33573 0.380199,0 0.597899,0.15107 0.483778,0.33573 -0.114121,0.18465 -0.425193,0.33572 -0.691272,0.33572 -0.266078,0 -0.483777,-0.15107 -0.483777,-0.33572 z m 1.678641,-0.33573 c 0,-0.18465 0.235534,-0.33573 0.523408,-0.33573 0.287873,0 0.430034,0.15108 0.315913,0.33573 -0.114121,0.18465 -0.349654,0.33573 -0.523407,0.33573 -0.173753,0 -0.315914,-0.15108 -0.315914,-0.33573 z m 3.18942,-0.82982 c 0.369301,-0.29824 1.049151,-0.63421 1.510777,-0.74659 1.210247,-0.29463 7.409541,-3.31205 8.354291,-4.06633 l 0.8004,-0.63903 -1.052196,-0.3668 c -1.52319,-0.53099 -1.3008,-0.73746 0.794306,-0.73746 1.622686,0 1.846506,0.0814 1.846506,0.67146 0,0.3693 -0.208118,0.67146 -0.462486,0.67146 -0.254365,0 -0.630008,0.20185 -0.834762,0.44856 -0.600178,0.72318 -9.16815,4.92251 -10.453244,5.12336 -1.125459,0.17588 -1.14671,0.16075 -0.503592,-0.35863 z m 101.222093,-1.41429 c 0,-0.40742 1.41518,-3.16719 1.55328,-3.02909 0.15668,0.15668 -1.17708,3.25883 -1.40112,3.25883 -0.0837,0 -0.15216,-0.10338 -0.15216,-0.22974 z m -146.511846,-2.3218 c -0.119483,-0.31137 -0.141704,-0.64166 -0.04938,-0.73399 0.09232,-0.0923 0.265623,0.0869 0.385106,0.39826 0.119483,0.31137 0.141703,0.64167 0.04938,0.73399 -0.09232,0.0923 -0.265623,-0.0869 -0.385106,-0.39826 z m -0.510661,-1.67304 c 0.01611,-0.39111 0.09566,-0.47066 0.202836,-0.20284 0.09698,0.24235 0.08506,0.53192 -0.02651,0.64348 -0.11156,0.11156 -0.190909,-0.0867 -0.176331,-0.44064 z m 148.727657,0 c 0.0161,-0.39111 0.0957,-0.47066 0.20283,-0.20284 0.097,0.24235 0.0851,0.53192 -0.0265,0.64348 -0.11156,0.11156 -0.19091,-0.0867 -0.17633,-0.44064 z m -98.062318,-2.08706 c -2.414391,-1.18331 -3.908727,-2.2597 -5.441448,-3.91952 -2.337475,-2.53131 -2.928914,-3.34518 -3.974661,-5.46939 -1.279924,-2.59989 -1.032657,-3.17176 1.336991,-3.09216 3.381751,0.1136 3.46336,-0.0694 0.729061,-1.63449 -2.66433,-1.52508 -5.770415,-4.75655 -7.358188,-7.65523 -2.1181,-3.86686 -3.088335,-9.18597 -1.722656,-9.44413 0.436155,-0.0824 0.498701,0.24272 0.386954,2.01163 -0.164198,2.5991 0.995263,6.22381 2.748987,8.5939 2.545032,3.43951 6.33051,6.47257 9.101491,7.29244 1.946597,0.57595 1.931563,1.35031 -0.03142,1.61937 -0.865192,0.11859 -2.298457,0.21561 -3.185038,0.21561 -0.886585,0 -1.705614,0.15152 -1.82007,0.33671 -0.390855,0.63242 1.676016,3.8488 4.133698,6.43269 1.955208,2.05561 3.030741,2.86597 5.287722,3.98403 1.5583,0.77194 2.833272,1.46316 2.833272,1.53603 0,0.36831 -1.374126,0.001 -3.024691,-0.80749 z m -53.686894,-7.98479 c 0.01611,-0.39111 0.09566,-0.47066 0.202836,-0.20284 0.09698,0.24235 0.08506,0.53192 -0.02651,0.64348 -0.11156,0.11156 -0.190909,-0.0867 -0.176331,-0.44064 z m 154.770762,0 c 0.0161,-0.39111 0.0957,-0.47066 0.20284,-0.20284 0.097,0.24235 0.085,0.53192 -0.0265,0.64348 -0.11156,0.11156 -0.19091,-0.0867 -0.17633,-0.44064 z m 0.33573,-1.34292 c 0.0161,-0.3911 0.0957,-0.47065 0.20284,-0.20283 0.097,0.24235 0.0851,0.53192 -0.0265,0.64348 -0.11156,0.11156 -0.19091,-0.0867 -0.17633,-0.44065 z M 26.466071,164.08339 c 0.01611,-0.39111 0.09566,-0.47066 0.202836,-0.20284 0.09698,0.24235 0.08506,0.53192 -0.02651,0.64348 -0.111559,0.11156 -0.190908,-0.0867 -0.176331,-0.44064 z m 156.113679,0 c 0.0161,-0.39111 0.0957,-0.47066 0.20283,-0.20284 0.097,0.24235 0.0851,0.53192 -0.0265,0.64348 -0.11155,0.11156 -0.1909,-0.0867 -0.17633,-0.44064 z M 26.130343,162.40475 c 0.01611,-0.39111 0.09566,-0.47066 0.202836,-0.20284 0.09698,0.24235 0.08506,0.53192 -0.02651,0.64348 -0.11156,0.11156 -0.190909,-0.0867 -0.176331,-0.44064 z m 156.785137,0 c 0.0161,-0.39111 0.0957,-0.47066 0.20283,-0.20284 0.097,0.24235 0.0851,0.53192 -0.0265,0.64348 -0.11156,0.11156 -0.19091,-0.0867 -0.17633,-0.44064 z M 24.964708,154.68351 c -0.277271,-0.72255 -0.213837,-11.91437 0.07161,-12.6343 0.125509,-0.31655 0.228199,2.51611 0.228199,6.29481 0,3.77869 -0.0216,6.8704 -0.04801,6.87045 -0.02641,5e-5 -0.139715,-0.23888 -0.251796,-0.53096 z m 158.922232,0.0749 c -0.0873,-0.0868 -0.11209,-3.07907 -0.0552,-6.64939 0.0916,-5.74593 0.15906,-6.41665 0.58753,-5.8398 0.65664,0.88403 0.70372,11.17366 0.0552,12.06058 -0.23588,0.32258 -0.50027,0.51546 -0.58753,0.42861 z m -41.1288,-5.1188 c 0.44831,-2.34942 0.53398,-3.26514 0.71909,-7.68635 0.22476,-5.36851 0.55851,-6.45077 2.48588,-8.06104 1.85378,-1.54879 6.37458,-6.42896 6.37458,-6.88131 0,-0.45611 -0.48932,-0.4184 -1.82775,0.14083 -1.68158,0.70261 -6.14079,1.63484 -6.56524,1.37252 -0.46464,-0.28717 0.20048,-1.17519 0.88021,-1.17519 0.25437,0 0.46249,-0.19698 0.46249,-0.43773 0,-0.24075 0.53301,-0.95435 1.18448,-1.58578 1.32698,-1.28616 3.85144,-5.00711 3.85144,-5.67687 0,-0.51563 -0.2333,-0.4513 -4.02874,1.11083 -3.41106,1.40393 -4.70019,1.75535 -4.70019,1.28127 0,-0.18982 0.79316,-0.60683 1.76257,-0.92667 0.96942,-0.31985 2.87675,-1.08738 4.23852,-1.70563 2.71387,-1.2321 3.73503,-1.39809 3.73503,-0.60711 0,1.17555 -2.60878,5.46103 -4.66432,7.66214 -0.91843,0.98347 -1.04874,1.25088 -0.53947,1.10706 0.3693,-0.10429 1.12469,-0.28405 1.67864,-0.39946 0.55395,-0.11541 1.9531,-0.52881 3.10923,-0.91867 4.19173,-1.4135 3.50441,0.46729 -2.25825,6.17954 l -3.94236,3.90787 -0.17429,4.56748 c -0.0996,2.60942 -0.33522,4.76139 -0.5497,5.01982 -0.20647,0.24879 -0.28772,0.54003 -0.18055,0.6472 0.27396,0.27396 -0.58034,3.92749 -0.97546,4.17169 -0.20435,0.1263 -0.23256,-0.28519 -0.0758,-1.10644 z m -74.184667,-4.32736 c -2.280901,-0.73967 -3.290285,-1.18781 -3.10123,-1.37686 0.09972,-0.0997 0.979021,0.0556 1.954003,0.34512 2.733644,0.81181 2.830452,0.70003 1.215964,-1.404 -2.438606,-3.17804 -4.536761,-7.73995 -4.593724,-9.98792 -0.0094,-0.3693 -0.105754,-1.39113 -0.214215,-2.27073 -0.108457,-0.8796 -0.09253,-1.8616 0.03539,-2.18223 0.127922,-0.32063 0.284415,-1.26281 0.347764,-2.09374 0.182196,-2.38986 1.948174,-6.01848 2.938566,-6.03797 0.143642,-0.003 1.729958,1.46853 3.525148,3.26969 1.795193,1.80115 4.548148,4.23993 6.117678,5.41949 3.03852,2.28357 9.371706,6.07772 10.144915,6.07772 0.255254,0 0.607625,0.12665 0.783043,0.28145 0.250013,0.22062 4.548092,1.76691 8.172679,2.94024 0.257241,0.0833 0.382065,0.23705 0.277385,0.34173 -0.104683,0.10468 -1.372696,-0.11051 -2.817812,-0.4782 -3.273646,-0.83295 -10.752438,-4.36605 -14.585338,-6.89035 -3.177316,-2.09254 -8.295958,-6.50634 -9.990013,-8.61436 -1.609035,-2.00223 -2.192152,-1.81192 -3.062252,0.99942 -0.77005,2.48809 -1.334339,8.04018 -0.95741,9.42008 1.563094,5.72235 2.94378,8.21001 6.016353,10.84001 0.725039,0.62061 1.318254,1.30274 1.318254,1.51584 0,0.50249 -1.803274,0.44396 -3.525148,-0.11443 z m 35.271687,-5.1728 c -0.103,-0.16666 0.28832,-0.46881 0.86961,-0.67145 1.32093,-0.46048 1.29241,-0.46267 1.29241,0.0992 0,0.74788 -1.76478,1.21496 -2.16202,0.57221 z m -2.6843,-0.33325 c -0.24378,-0.39445 0.67822,-0.73904 1.31925,-0.49306 0.65362,0.25082 0.31051,0.79361 -0.50167,0.79361 -0.3475,0 -0.71541,-0.13525 -0.81758,-0.30055 z m -1.70038,-0.37091 c -0.11412,-0.18465 0.02803,-0.33573 0.315914,-0.33573 0.287876,0 0.523406,0.15108 0.523406,0.33573 0,0.18465 -0.14216,0.33573 -0.315912,0.33573 -0.173753,0 -0.409287,-0.15108 -0.523408,-0.33573 z m -1.678641,-0.33573 c -0.114121,-0.18465 0.103579,-0.33572 0.483778,-0.33572 0.380198,0 0.691271,0.15107 0.691271,0.33572 0,0.18466 -0.2177,0.33573 -0.483778,0.33573 -0.266078,0 -0.577151,-0.15107 -0.691271,-0.33573 z m -72.349458,-0.5234 c 0,-0.28788 0.153542,-0.42851 0.341205,-0.31253 0.187663,0.11598 0.254286,0.35151 0.148051,0.5234 -0.2878,0.46567 -0.489256,0.37884 -0.489256,-0.21087 z m 79.854629,-0.56771 c -0.2834,-2.44132 -0.1085,-4.28054 0.40707,-4.28054 0.1722,0 0.3131,1.05755 0.3131,2.3501 0,1.34291 -0.14388,2.3501 -0.33573,2.3501 -0.18465,0 -0.35765,-0.18885 -0.38444,-0.41966 z m -79.5189,-1.78239 c 0,-0.28787 0.153542,-0.42851 0.341205,-0.31253 0.187662,0.11598 0.254285,0.35151 0.14805,0.52341 -0.2878,0.46567 -0.489255,0.37884 -0.489255,-0.21088 z m 0.362233,-2.02253 c 0.01611,-0.39111 0.09566,-0.47066 0.202836,-0.20284 0.09698,0.24235 0.08506,0.53192 -0.02651,0.64348 -0.11156,0.11156 -0.190909,-0.0867 -0.176331,-0.44064 z m 0.362233,-1.4828 c 0,-0.46163 0.0762,-0.65048 0.169337,-0.41966 0.09314,0.23081 0.09314,0.6085 0,0.83932 -0.09314,0.23081 -0.169337,0.042 -0.169337,-0.41966 z m 79.178874,-0.31592 c 0,-0.3802 0.15108,-0.69127 0.33573,-0.69127 0.18465,0 0.33573,0.2177 0.33573,0.48378 0,0.26608 -0.15108,0.57715 -0.33573,0.69127 -0.18465,0.11412 -0.33573,-0.10358 -0.33573,-0.48378 z m -78.839093,-1.027 c 0.0054,-0.27697 0.130828,-0.88128 0.278666,-1.34291 0.216085,-0.67472 0.270733,-0.70765 0.278666,-0.16786 0.0054,0.3693 -0.119972,0.97361 -0.278666,1.34291 -0.176772,0.41137 -0.284712,0.47639 -0.278666,0.16786 z m 79.330293,-1.17505 c 0.59637,-3.38058 5.32052,-9.33774 8.8731,-11.18899 1.74751,-0.91062 4.73107,-2.07187 5.32382,-2.07211 0.86938,-3.3e-4 0.3756,0.62746 -0.67146,0.85371 -2.01335,0.43504 -5.06603,2.28714 -7.40227,4.49102 -2.70146,2.54842 -3.97066,4.2888 -4.94959,6.78704 -0.9308,2.37543 -1.48802,2.91163 -1.1736,1.12933 z m 75.74564,-0.3637 c 0.0161,-0.39111 0.0957,-0.47066 0.20284,-0.20284 0.097,0.24235 0.085,0.53192 -0.0265,0.64348 -0.11156,0.11156 -0.19091,-0.0867 -0.17633,-0.44064 z m -0.84424,-3.06303 c -0.18219,-0.47848 -0.14363,-0.51704 0.18794,-0.18794 0.22945,0.22774 0.3326,0.49863 0.22923,0.602 -0.10337,0.10337 -0.29109,-0.083 -0.41717,-0.41406 z m -43.19696,-4.62709 c -4.5609,-3.34107 -7.78783,-4.87172 -10.27062,-4.87172 -0.61042,0 -1.10986,-0.15108 -1.10986,-0.33573 0,-0.47764 1.22498,-0.41599 3.53854,0.17809 2.81158,0.72196 5.32427,2.01264 7.25293,3.72556 0.90909,0.8074 1.88338,1.46801 2.16509,1.46801 0.28171,0 0.41883,0.15108 0.30471,0.33573 -0.31053,0.50244 -0.62742,0.41821 -1.88079,-0.49994 z m -107.398783,-3.3199 c 0,-0.57226 1.137878,-2.62796 1.26081,-2.27779 0.0867,0.24697 -0.01043,0.61711 -0.215856,0.82253 -0.205424,0.20543 -0.373498,0.64544 -0.373498,0.97781 0,0.33237 -0.151078,0.60431 -0.335728,0.60431 -0.184651,0 -0.335728,-0.0571 -0.335728,-0.12686 z m 90.814513,-1.88751 c 0.11412,-0.18465 0.56736,-0.33572 1.00719,-0.33572 0.43983,0 0.89306,0.15107 1.00718,0.33572 0.12373,0.20019 -0.28289,0.33573 -1.00718,0.33573 -0.7243,0 -1.13091,-0.13554 -1.00719,-0.33573 z m 2.93553,0.11269 c -0.65322,-0.26335 -0.13698,-0.78414 0.7773,-0.78414 0.9214,0 1.09828,0.49264 0.28845,0.8034 -0.29207,0.11208 -0.55646,0.19185 -0.58752,0.17728 -0.0311,-0.0146 -0.24626,-0.10302 -0.47823,-0.19654 z M 35.183892,108.8553 c 0.206108,-0.38512 0.456704,-0.61825 0.55688,-0.51807 0.276728,0.27673 -0.166538,1.21828 -0.573544,1.21828 -0.248291,0 -0.243182,-0.21468 0.01666,-0.70021 z m 138.528508,0.47639 c -0.1231,-0.1231 -0.22382,-0.37993 -0.22382,-0.57074 0,-0.21036 0.15637,-0.19054 0.39728,0.0504 0.2185,0.21851 0.31922,0.47534 0.22382,0.57074 -0.0954,0.0954 -0.27418,0.0727 -0.39728,-0.0504 z M 39.197243,102.55725 c 0,-0.15603 0.314799,-0.56858 0.699552,-0.91678 0.697793,-0.6315 0.698502,-0.63078 0.281839,0.28369 -0.395758,0.8686 -0.981391,1.24639 -0.981391,0.63309 z m 129.960067,-0.47169 c -0.46239,-0.75271 -0.46149,-0.75312 0.25497,-0.11583 0.76925,0.68424 0.86884,0.87121 0.46405,0.87121 -0.14024,0 -0.46379,-0.33992 -0.71902,-0.75538 z M 42.050934,98.812204 c 0.114121,-0.184651 0.274114,-0.335729 0.355542,-0.335729 0.08143,0 0.148051,0.151078 0.148051,0.335729 0,0.18465 -0.159994,0.335728 -0.355542,0.335728 -0.195548,0 -0.262171,-0.151078 -0.148051,-0.335728 z m 0.839321,-0.924969 c 0,-0.18465 0.226617,-0.523803 0.503593,-0.753673 0.280917,-0.23314 0.503592,-0.269496 0.503592,-0.08222 0,0.184651 -0.226616,0.523804 -0.503592,0.753674 -0.280918,0.23314 -0.503593,0.269496 -0.503593,0.08222 z m 2.01437,-2.371393 c 0,-0.405746 0.636944,-0.878801 0.869771,-0.645974 0.0845,0.0845 -0.07663,0.344746 -0.358065,0.578319 -0.319071,0.264805 -0.511706,0.290274 -0.511706,0.06766 z m 6.04311,-6.04311 c 0,-0.405746 0.636944,-0.878801 0.869771,-0.645974 0.0845,0.0845 -0.07663,0.344746 -0.358065,0.578319 -0.319071,0.264805 -0.511706,0.290274 -0.511706,0.06765 z m 2.350099,-2.035664 c 0,-0.184651 0.151077,-0.4291 0.335728,-0.54322 0.184651,-0.114121 0.335728,-0.05641 0.335728,0.128236 0,0.184651 -0.151077,0.4291 -0.335728,0.54322 -0.184651,0.114121 -0.335728,0.05641 -0.335728,-0.128236 z m 1.510777,-1.382541 c 0.114121,-0.184651 0.358568,-0.335729 0.543219,-0.335729 0.18465,0 0.242359,0.151078 0.128238,0.335729 -0.114121,0.18465 -0.358568,0.335728 -0.543219,0.335728 -0.18465,0 -0.242359,-0.151078 -0.128238,-0.335728 z m 1.678642,-1.342914 c 0.114121,-0.18465 0.274115,-0.335728 0.355543,-0.335728 0.08143,0 0.148049,0.151078 0.148049,0.335728 0,0.184651 -0.159994,0.335729 -0.355543,0.335729 -0.195548,0 -0.26217,-0.151078 -0.148049,-0.335729 z m 5.539517,-3.667629 c 0,-0.1591 0.226617,-0.376233 0.503593,-0.482519 0.276976,-0.106286 0.503593,-0.06307 0.503593,0.09603 0,0.1591 -0.226617,0.376233 -0.503593,0.482519 -0.276976,0.106286 -0.503593,0.06307 -0.503593,-0.09603 z m 84.60354,-0.02538 c -0.30259,-0.195549 -0.344,-0.327499 -0.10374,-0.330588 0.21991,-0.0028 0.49321,0.145937 0.60733,0.330588 0.25761,0.416815 0.14139,0.416815 -0.50359,0 z m -81.246256,-2.01437 c 0,-0.184651 0.159995,-0.335729 0.355543,-0.335729 0.195548,0 0.26217,0.151078 0.148049,0.335729 -0.11412,0.18465 -0.274115,0.335728 -0.355543,0.335728 -0.08143,0 -0.148049,-0.151078 -0.148049,-0.335728 z m 1.37089,-0.798933 c 0.342476,-0.31209 3.665035,-1.880742 3.665035,-1.730341 0,0.189295 -3.206196,1.857817 -3.56994,1.857817 -0.129239,0 -0.172031,-0.05736 -0.0951,-0.127476 z m 9.204553,-4.236992 c 0.11412,-0.184651 0.358568,-0.335729 0.543218,-0.335729 0.184651,0 0.242359,0.151078 0.128238,0.335729 -0.11412,0.18465 -0.358568,0.335728 -0.543218,0.335728 -0.184651,0 -0.242359,-0.151078 -0.128238,-0.335728 z m 2.517962,-0.984032 c 0.830928,-0.361402 1.812933,-0.659622 2.182234,-0.662711 0.908743,-0.0076 -1.005264,0.825197 -2.549769,1.109421 -1.043565,0.192041 -1.011519,0.153093 0.367535,-0.44671 z m 52.205761,0.312575 c -0.54738,-0.235215 -0.56655,-0.292896 -0.10375,-0.312132 0.31224,-0.01298 0.66108,0.127481 0.7752,0.312132 0.23859,0.386047 0.22692,0.386047 -0.67145,0 z m -2.01437,-0.671457 c -0.44274,-0.190251 -0.49992,-0.294821 -0.16787,-0.30699 0.27698,-0.01015 0.73021,0.127995 1.00719,0.30699 0.6137,0.396603 0.0836,0.396603 -0.83932,0 z M 92.179372,69.710226 c 0.242352,-0.09698 0.531918,-0.08506 0.64348,0.02651 0.11156,0.11156 -0.08673,0.190909 -0.440643,0.176332 -0.391107,-0.01611 -0.470658,-0.09566 -0.202837,-0.202836 z m 2.236122,-0.12105 c -0.109139,-0.176587 0.11264,-0.321066 0.492839,-0.321066 0.81064,0 0.89242,0.186702 0.198432,0.45301 -0.271063,0.104017 -0.582136,0.04464 -0.691271,-0.131944 z m 22.272046,0.12105 c 0.24235,-0.09698 0.53192,-0.08506 0.64348,0.02651 0.11156,0.11156 -0.0867,0.190909 -0.44064,0.176332 -0.39111,-0.01611 -0.47066,-0.09566 -0.20284,-0.202836 z m -2.70681,-0.328734 c 0.23081,-0.09313 0.60851,-0.09313 0.83932,0 0.23082,0.09314 0.042,0.169336 -0.41966,0.169336 -0.46162,0 -0.65047,-0.0762 -0.41966,-0.169336 z M 97.613975,68.912001 c 1.496408,-0.355163 3.406375,-0.687833 2.517965,-0.438567 -0.369304,0.103617 -0.814983,0.324807 -0.990402,0.491535 -0.175418,0.166727 -0.855267,0.285767 -1.510777,0.264532 l -1.191836,-0.03861 z m 12.963085,0.08113 c -0.0935,-0.151239 0.27531,-0.20963 0.81951,-0.129759 0.5442,0.07987 0.98945,0.203613 0.98945,0.27498 0,0.255819 -1.6426,0.123953 -1.80896,-0.145221 z"
         id="path2476" />
      <path
         style="fill:#f8f8f8;stroke-width:0.335728"
         d="m 98.956888,228.25012 c 0,-0.40635 1.020903,-0.50559 6.043512,-0.58752 3.32393,-0.0542 6.04333,-0.05 6.04311,0.009 -2.2e-4,0.0593 -0.21623,0.32374 -0.48001,0.58753 -0.71427,0.71427 -11.606612,0.7055 -11.606612,-0.009 z m -14.385251,-35.361 c -0.212738,-0.0709 -0.386796,-0.27463 -0.386796,-0.45271 0,-0.184 0.905818,-0.28062 2.098302,-0.22382 2.423438,0.11544 2.603013,0.76214 0.218932,0.78843 -0.849003,0.009 -1.7177,-0.041 -1.930438,-0.1119 z m 4.816993,-0.073 c 0.114121,-0.18465 0.349655,-0.33573 0.523407,-0.33573 0.173753,0 0.315914,0.15108 0.315914,0.33573 0,0.18465 -0.235534,0.33573 -0.523407,0.33573 -0.287874,0 -0.430035,-0.15108 -0.315914,-0.33573 z m 1.928347,0.11995 c -0.976094,-0.41034 0.116098,-0.79141 2.268257,-0.79141 2.119007,0 3.279996,0.38545 2.26424,0.75173 -0.605335,0.21829 -4.03619,0.24832 -4.532497,0.0397 z m -9.472824,-0.44276 c -0.425321,-0.26898 -0.415863,-0.34258 0.06785,-0.5282 0.663436,-0.25458 1.359713,0.0915 1.083446,0.53848 -0.241389,0.39058 -0.5214,0.38808 -1.1513,-0.0103 z m 15.278909,0.008 c -0.247119,-0.39985 0.07261,-0.54251 1.891578,-0.84398 0.711808,-0.11798 1.32318,-0.0581 1.44666,0.1417 0.22487,0.36386 0.1735,0.38628 -1.168684,0.50996 -0.461626,0.0425 -1.088424,0.18444 -1.392886,0.31532 -0.304462,0.13089 -0.653962,0.0755 -0.776668,-0.123 z m -17.218757,-0.26166 c -0.576641,-0.20684 -0.529833,-0.76603 0.06412,-0.76603 0.55609,0 0.996213,0.5536 0.612815,0.77081 -0.141499,0.0802 -0.446119,0.078 -0.676932,-0.005 z m 21.247495,-0.40979 c -0.0972,-0.15724 0.0442,-0.37066 0.31423,-0.47427 0.27,-0.10361 0.57042,-0.0597 0.6676,0.0975 0.0972,0.15724 -0.0442,0.37066 -0.31423,0.47427 -0.27,0.1036 -0.57042,0.0597 -0.6676,-0.0975 z m -24.017254,-0.37534 c -0.375962,-0.25722 -0.219036,-0.30462 0.61918,-0.18702 0.617525,0.0866 1.209247,0.24399 1.314937,0.34968 0.34111,0.34111 -1.413473,0.19355 -1.934117,-0.16266 z m 25.788134,-0.21024 c 0.24235,-0.097 0.53192,-0.0851 0.64348,0.0265 0.11156,0.11155 -0.0867,0.1909 -0.44064,0.17633 -0.39111,-0.0161 -0.47066,-0.0957 -0.20284,-0.20284 z m 1.40586,-0.44212 c 0.66143,-0.42745 1.43923,-0.42745 1.17505,0 -0.11412,0.18465 -0.5385,0.33341 -0.94307,0.33059 -0.59801,-0.004 -0.64139,-0.066 -0.23198,-0.33059 z m -30.887006,-0.33573 c -0.447637,-0.28929 -0.447637,-0.32544 0,-0.32544 0.276976,0 0.730209,0.14644 1.007185,0.32544 0.447637,0.28929 0.447637,0.32545 0,0.32545 -0.276976,0 -0.730209,-0.14645 -1.007185,-0.32545 z m 33.237106,-0.30063 c 0.27698,-0.15412 0.95683,-0.36993 1.51078,-0.47959 l 1.00718,-0.19937 -1.00718,0.47465 c -1.13313,0.53401 -2.4148,0.70733 -1.51078,0.20431 z m 5.5563,-2.0129 c 0.17542,-0.16454 1.62564,-0.97707 3.22271,-1.80564 1.59706,-0.82856 4.08985,-2.40573 5.53951,-3.5048 1.44967,-1.09908 2.8697,-2.13725 3.15562,-2.30703 0.28593,-0.1698 2.30569,-2.19719 4.48836,-4.50532 3.67086,-3.88186 4.66446,-5.17457 7.66447,-9.97178 0.6007,-0.96055 1.19352,-1.7537 1.31738,-1.76258 0.30551,-0.0219 -1.26777,2.91837 -2.26983,4.24201 -0.44499,0.58779 -0.80907,1.15866 -0.80907,1.26859 0,0.10994 -1.05453,1.53673 -2.3434,3.17064 -4.65408,5.90005 -10.65433,10.79155 -17.67943,14.41256 -2.04367,1.05339 -2.90054,1.33948 -2.28632,0.76335 z m -45.675837,-0.3723 c -0.2626,-0.42489 0.181841,-0.42489 0.839321,0 0.433993,0.28047 0.425129,0.32616 -0.06412,0.33059 -0.312241,0.003 -0.661083,-0.14594 -0.775204,-0.33059 z m -2.43403,-1.08121 c -0.415464,-0.20037 -0.755389,-0.49761 -0.755389,-0.66054 0,-0.28105 0.558695,-0.042 1.678642,0.71819 0.658336,0.44686 0.0432,0.40846 -0.923253,-0.0576 z m -3.273352,-2.27607 c -0.244813,-0.39612 0.07274,-1.00718 0.523408,-1.00718 0.173752,0 0.315913,0.30215 0.315913,0.67145 0,0.70808 -0.488444,0.90346 -0.839321,0.33573 z m 1.678642,-0.33573 c -0.13182,-0.21329 0.786484,-0.33573 2.517963,-0.33573 1.731478,0 2.649782,0.12244 2.517962,0.33573 -0.114121,0.18465 -1.247204,0.33573 -2.517962,0.33573 -1.270759,0 -2.403842,-0.15108 -2.517963,-0.33573 z m 6.714567,-0.33573 c -0.114121,-0.18465 0.03696,-0.33572 0.335728,-0.33572 0.298772,0 0.449849,0.15107 0.335728,0.33572 -0.11412,0.18465 -0.265198,0.33573 -0.335728,0.33573 -0.07053,0 -0.221607,-0.15108 -0.335728,-0.33573 z m 6.882431,-1.33003 c 0,-0.16119 0.717619,-0.5441 1.594709,-0.85091 1.326359,-0.46397 2.669064,-1.02899 4.196605,-1.76595 0.138488,-0.0668 0.251796,-0.0396 0.251796,0.0606 0,0.24266 -3.149719,1.82853 -4.760208,2.39674 -0.705597,0.24895 -1.282902,0.32075 -1.282902,0.15957 z m 8.728937,-3.98403 c 0,-0.29747 1.444998,-1.4005 1.834695,-1.4005 0.50282,0 0.06372,0.59518 -0.82751,1.12164 -0.553952,0.32723 -1.007185,0.45272 -1.007185,0.27886 z m 1.426845,-1.85706 c -1.137998,-0.56361 -0.909099,-0.93964 0.500799,-0.82269 0.877913,0.0728 1.289718,0.28112 1.367533,0.69172 0.127311,0.67181 -0.664266,0.7273 -1.868332,0.13097 z m -5.063451,-1.76101 c -3.541286,-1.62754 -7.027258,-4.76605 -8.963601,-8.07017 -0.481173,-0.82106 -0.80699,-1.67491 -0.724045,-1.89745 0.08295,-0.22255 0.317246,0.0137 0.520667,0.52499 1.160677,2.91731 5.110319,6.85594 8.642584,8.61849 2.655877,1.32524 2.641132,1.3162 2.453006,1.50433 -0.07769,0.0777 -0.945569,-0.22839 -1.928611,-0.68019 z m -10.463985,-11.5409 c 0,-0.80542 1.197483,-1.17857 2.810829,-0.87591 1.112097,0.20863 2.225855,-0.004 2.224297,-0.42539 -3.35e-4,-0.11873 -0.850305,-0.65977 -1.888592,-1.20232 -2.231452,-1.16602 -5.245034,-3.83213 -6.4005,-5.66251 -0.452783,-0.71725 -0.774569,-1.34922 -0.715078,-1.40438 0.05949,-0.0551 1.165713,1.08973 2.458267,2.54419 2.513511,2.82836 5.604179,5.01262 7.537329,5.32685 1.529518,0.24861 1.913189,1.37797 0.462245,1.36064 -2.020162,-0.0241 -5.324182,0.37644 -5.630356,0.68262 -0.512862,0.51286 -0.858441,0.37446 -0.858441,-0.34379 z m 67.817123,-1.1747 c 0,-0.38873 2.76794,-7.08877 3.04719,-7.37598 0.43598,-0.44841 0.39771,-0.22672 -0.3584,2.07652 -0.915,2.78722 -2.68879,6.28327 -2.68879,5.29946 z m 45.32333,-13.77161 c 0,-5.55588 0.059,-6.24422 0.50359,-5.87524 0.40984,0.34014 0.50359,1.43388 0.50359,5.87524 0,4.44137 -0.0937,5.53511 -0.50359,5.87525 -0.44459,0.36898 -0.50359,-0.31937 -0.50359,-5.87525 z M 24.897597,148.5 c 0,-3.04674 0.0509,-4.29313 0.113106,-2.76976 0.06221,1.52337 0.06221,4.01615 0,5.53952 -0.06221,1.52336 -0.113106,0.27697 -0.113106,-2.76976 z m 117.703973,1.67864 c 0,-0.18465 0.16,-0.33573 0.35555,-0.33573 0.19554,0 0.26217,0.15108 0.14804,0.33573 -0.11412,0.18465 -0.27411,0.33573 -0.35554,0.33573 -0.0814,0 -0.14805,-0.15108 -0.14805,-0.33573 z m -78.198195,-2.21021 c 0.01611,-0.39111 0.09566,-0.47066 0.202833,-0.20284 0.09698,0.24235 0.08506,0.53192 -0.02649,0.64348 -0.111562,0.11156 -0.190908,-0.0867 -0.176331,-0.44064 z m 78.869655,-0.79153 c 0,-0.3802 0.15108,-0.69127 0.33573,-0.69127 0.18465,0 0.33573,0.2177 0.33573,0.48378 0,0.26607 -0.15108,0.57715 -0.33573,0.69127 -0.18465,0.11412 -0.33573,-0.10358 -0.33573,-0.48378 z m -79.399697,-0.73938 c -0.336359,-1.34017 -0.07397,-2.80558 0.502347,-2.80558 0.381411,0 0.474821,0.32341 0.387864,1.34291 -0.160586,1.88275 -0.602528,2.60889 -0.890211,1.46267 z m 6.649141,-0.86028 c -0.460677,-0.0879 -0.669899,-0.31503 -0.558256,-0.60597 0.09821,-0.25594 -0.589992,-1.41519 -1.52934,-2.57612 -0.939351,-1.16093 -1.707911,-2.25145 -1.707911,-2.42339 0,-0.17193 0.05081,-0.24966 0.112909,-0.17272 1.307669,1.6201 4.20998,4.56662 4.684377,4.75573 0.346831,0.13826 0.570735,0.43097 0.49757,0.65048 -0.158212,0.47463 -0.507514,0.5613 -1.499349,0.37199 z m 72.994056,-0.19061 c -0.0998,-0.25997 -0.0524,-0.68135 0.10523,-0.93641 0.23179,-0.37504 0.33069,-0.34885 0.51711,0.13694 0.12678,0.33038 0.0794,0.75176 -0.10523,0.93641 -0.22382,0.22382 -0.39618,0.17818 -0.51711,-0.13694 z m 0.42759,-1.75469 c -0.006,-0.18465 -0.0594,-1.61989 -0.11891,-3.18942 -0.11629,-3.06569 0.0204,-4.12946 0.49317,-3.83729 0.4033,0.24925 0.37003,6.2272 -0.0382,6.85884 -0.17899,0.27698 -0.33024,0.35252 -0.33609,0.16787 z m -42.46927,-3.86088 c -0.11412,-0.18465 0.028,-0.33573 0.31591,-0.33573 0.28788,0 0.52341,0.15108 0.52341,0.33573 0,0.18465 -0.14216,0.33573 -0.31591,0.33573 -0.17376,0 -0.40929,-0.15108 -0.52341,-0.33573 z m 2.21021,0.21609 c 0.37191,-0.31808 2.3364,-0.5108 2.15113,-0.21103 -0.1124,0.18187 -0.67386,0.33067 -1.24769,0.33067 -0.57383,0 -0.98037,-0.0538 -0.90344,-0.11964 z m -12.38951,-2.53352 c -1.865763,-0.64438 -3.371374,-1.68566 -1.739056,-1.20273 0.461627,0.13658 1.745788,0.59627 2.853691,1.02153 2.392115,0.91821 1.458673,1.06995 -1.114635,0.1812 z m 14.04018,-1.37558 c 0,-1.11909 0.14921,-2.01437 0.33572,-2.01437 0.18652,0 0.33573,0.89528 0.33573,2.01437 0,1.11909 -0.14921,2.01437 -0.33573,2.01437 -0.18651,0 -0.33572,-0.89528 -0.33572,-2.01437 z m -40.280945,0.52316 c -0.217905,-0.66026 -0.329007,-1.388 -0.246895,-1.61721 0.08212,-0.2292 0.330814,0.2406 0.552663,1.04401 0.492114,1.78214 0.245679,2.24411 -0.305768,0.5732 z m 79.225425,-0.67966 c 0,-0.0861 1.82737,-1.95715 4.06081,-4.15795 2.86821,-2.82628 4.02316,-4.18534 3.93263,-4.62762 -0.0814,-0.39795 -0.36846,-0.59324 -0.78745,-0.5358 -0.53562,0.0734 -0.50185,-0.003 0.18004,-0.40777 1.12415,-0.6672 1.67992,-0.6454 1.67253,0.0656 -0.0111,1.06184 -1.97402,3.55874 -5.27877,6.71456 -2.90434,2.77346 -3.77979,3.45648 -3.77979,2.94899 z M 64.190926,133.6987 c -0.124065,-0.20074 -0.05744,-0.53311 0.148049,-0.7386 0.274344,-0.27435 0.373622,-0.17737 0.373622,0.36498 0,0.81062 -0.174397,0.93552 -0.521671,0.37362 z m 17.696455,-0.67002 c -0.986625,-0.56578 -1.720698,-1.10186 -1.63127,-1.19129 0.163809,-0.16381 3.593002,1.82825 3.593002,2.08722 0,0.22072 -0.07117,0.18822 -1.961732,-0.89593 z m -17.953106,-1.19814 c -0.338656,-0.33866 -0.277956,-3.40427 0.07169,-3.62036 0.396448,-0.24502 0.70788,0.61455 0.701494,1.93615 -0.0056,1.16266 -0.411217,2.04617 -0.773182,1.68421 z m 12.075457,-2.66714 c -1.634229,-1.20692 -4.307885,-3.55796 -5.941459,-5.22453 -1.633573,-1.66657 -3.129186,-2.93183 -3.323586,-2.81168 -0.194397,0.12014 -0.353448,0.0585 -0.353448,-0.1371 0,-0.9603 1.434671,-0.10851 3.701415,2.1976 1.380256,1.40423 4.073969,3.82148 5.98603,5.37166 1.912056,1.55017 3.347295,2.81399 3.189419,2.80848 -0.15788,-0.006 -1.624147,-0.99751 -3.258371,-2.20443 z m 30.637368,-0.13393 c 1.08563,-2.85714 2.25404,-4.51213 5.02761,-7.1213 2.50022,-2.35203 4.88899,-3.92242 5.31638,-3.49503 0.10234,0.10234 -0.31081,0.45517 -0.9181,0.78408 -1.8229,0.98725 -6.1299,5.0596 -7.29185,6.89458 -0.59781,0.94406 -1.33595,2.36856 -1.64032,3.16554 -0.30437,0.79698 -0.68334,1.44906 -0.84215,1.44906 -0.15881,0 -0.002,-0.75462 0.34843,-1.67693 z m 37.12805,-0.67554 c -0.2765,-0.44739 0.68709,-0.79991 1.41891,-0.51908 0.49524,0.19004 0.50727,0.26664 0.0839,0.53437 -0.64886,0.41035 -1.24351,0.40429 -1.50284,-0.0153 z m 2.85516,-0.66909 c 0.46163,-0.14784 1.06594,-0.28154 1.34292,-0.29712 0.44763,-0.0252 0.44763,0.008 0,0.29712 -0.27698,0.179 -0.88129,0.3127 -1.34292,0.29712 l -0.83932,-0.0283 z m -82.447824,-0.45163 c -0.126778,-0.33038 -0.07943,-0.75176 0.105224,-0.93641 0.45003,-0.45003 0.796068,0.45173 0.411884,1.07335 -0.231786,0.37504 -0.330692,0.34885 -0.517108,-0.13694 z m 81.104914,-0.0932 c 0,-0.18994 0.39452,-0.7116 0.87672,-1.15925 0.48219,-0.44765 1.46346,-1.67324 2.1806,-2.72353 1.37427,-2.01269 2.12757,-2.75159 1.75037,-1.7169 -0.58561,1.60638 -4.80769,6.52398 -4.80769,5.59968 z m 4.02874,-0.12666 c 0.27697,-0.17899 0.73021,-0.32544 1.00718,-0.32544 0.44764,0 0.44764,0.0362 0,0.32544 -0.27697,0.179 -0.73021,0.32545 -1.00718,0.32545 -0.44764,0 -0.44764,-0.0362 0,-0.32545 z M 64.598782,125.4222 c -0.113701,-0.18398 0.09682,-0.921 0.467821,-1.63782 l 0.674555,-1.30333 -0.217082,1.17505 c -0.274498,1.48584 -0.652545,2.20741 -0.925294,1.7661 z m 72.682838,-3.72877 c -0.34087,-0.34087 -1.32288,-1.10352 -2.18224,-1.69477 -1.64437,-1.13136 -1.95232,-1.49474 -0.97495,-1.15045 0.64656,0.22776 4.0281,2.7208 4.31071,3.17807 0.33261,0.53818 -0.53197,0.2887 -1.15352,-0.33285 z m 5.65568,-0.12639 c 0.46163,-0.20073 2.33846,-1.02144 4.17073,-1.82378 3.55891,-1.55843 4.22248,-1.71734 4.22248,-1.01118 0,0.68452 -0.39443,0.92878 -0.86678,0.53676 -0.3052,-0.25329 -0.79482,-0.164 -1.73732,0.31683 -0.7218,0.36823 -2.42151,1.05703 -3.77713,1.53065 -2.52251,0.88132 -3.51192,1.10296 -2.01198,0.45072 z m -10.74331,-3.28259 c -0.43399,-0.28047 -0.42513,-0.32616 0.0641,-0.33059 0.31224,-0.003 0.66108,0.14594 0.7752,0.33059 0.2626,0.4249 -0.18184,0.4249 -0.83932,0 z m -12.75767,-1.00719 c 0.66142,-0.42744 1.43922,-0.42744 1.17505,0 -0.11412,0.18465 -0.53851,0.33342 -0.94307,0.33059 -0.59801,-0.004 -0.6414,-0.066 -0.23198,-0.33059 z m 2.18223,-0.33573 c 0.11412,-0.18465 0.50073,-0.33572 0.85914,-0.33572 0.3584,0 0.65164,0.15107 0.65164,0.33572 0,0.18465 -0.38661,0.33573 -0.85914,0.33573 -0.48726,0 -0.76932,-0.14531 -0.65164,-0.33573 z m 4.86806,0 c 0,-0.18465 0.3777,-0.33572 0.83932,-0.33572 0.46163,0 0.83932,0.15107 0.83932,0.33572 0,0.18465 -0.37769,0.33573 -0.83932,0.33573 -0.46162,0 -0.83932,-0.15108 -0.83932,-0.33573 z m -2.01437,-0.33572 c 0,-0.18465 0.22662,-0.33573 0.50359,-0.33573 0.27698,0 0.5036,0.15108 0.5036,0.33573 0,0.18465 -0.22662,0.33572 -0.5036,0.33572 -0.27697,0 -0.50359,-0.15107 -0.50359,-0.33572 z M 99.901124,68.367312 c 0.242356,-0.09698 0.531916,-0.08505 0.643476,0.02651 0.11156,0.11156 -0.0867,0.190909 -0.44064,0.176331 -0.391106,-0.01611 -0.470657,-0.09566 -0.202836,-0.202836 z"
         id="path2474" />
      <path
         style="fill:#f6f8f9;stroke-width:0.335728"
         d="m 99.142317,228.08362 c 0.3537,-0.3537 11.901913,-0.64841 11.901223,-0.30372 -10e-4,0.49642 -1.35416,0.62344 -6.64174,0.62344 -3.53325,0 -5.461957,-0.11724 -5.259483,-0.31972 z M 64.802918,183.85455 c 0.326654,-0.0851 0.779887,-0.0795 1.007185,0.0125 0.227298,0.092 -0.03996,0.16161 -0.593913,0.15477 -0.553952,-0.007 -0.739925,-0.0821 -0.413272,-0.16721 z m 22.06775,-7.51372 c 0,-0.48046 0.180796,-0.66125 0.58367,-0.58367 0.875153,0.16854 0.972756,1.27975 0.112402,1.27975 -0.480458,0 -0.696072,-0.21562 -0.696072,-0.69608 z M 70.755707,163.13216 c 0,-0.29237 0.239207,-0.53157 0.531569,-0.53157 0.292366,0 0.471769,0.1794 0.398677,0.39868 -0.207503,0.62251 -0.930246,0.72576 -0.930246,0.13289 z m 5.710679,-0.69546 c -0.335802,-0.40462 -0.3117,-0.53913 0.126758,-0.70738 0.745615,-0.28612 1.548587,0.0731 1.548587,0.69287 0,0.65808 -1.133083,0.66789 -1.675345,0.0145 z M 184.06402,148.33213 c 0,-3.38077 0.11331,-6.07682 0.2518,-5.99123 0.3252,0.20098 0.32037,11.23897 -0.005,11.75049 -0.13566,0.21318 -0.24666,-2.37849 -0.24666,-5.75926 z M 70.894121,145.55692 c -0.200846,-0.13549 -0.445484,-0.56484 -0.543638,-0.95411 -0.170741,-0.67714 -0.13605,-0.6866 0.801797,-0.21874 0.539146,0.26896 0.925418,0.65355 0.858387,0.85464 -0.160603,0.48181 -0.662134,0.62474 -1.116546,0.31821 z m 34.273739,-5.78586 c 0.11412,-0.18465 0.35857,-0.33573 0.54322,-0.33573 0.18465,0 0.24236,0.15108 0.12824,0.33573 -0.11412,0.18465 -0.35857,0.33573 -0.54322,0.33573 -0.18465,0 -0.24236,-0.15108 -0.12824,-0.33573 z m 38.68545,-11.28212 c -0.36567,-0.36566 0.0762,-0.8041 0.81042,-0.8041 0.3944,0 0.62098,0.17612 0.53989,0.41966 -0.15962,0.47942 -1.01251,0.72224 -1.35031,0.38444 z m -19.2132,-11.88313 c 0.11412,-0.18465 0.27411,-0.33573 0.35554,-0.33573 0.0814,0 0.14805,0.15108 0.14805,0.33573 0,0.18465 -0.16,0.33572 -0.35554,0.33572 -0.19555,0 -0.26217,-0.15107 -0.14805,-0.33572 z"
         id="path2472" />
      <path
         style="fill:#f5f6f6;stroke-width:0.335728"
         d="m 99.124752,228.06761 c 0.124236,-0.20101 2.346978,-0.33572 5.539518,-0.33572 3.19254,0 5.41528,0.13471 5.53952,0.33572 0.13524,0.21883 -1.79367,0.33573 -5.53952,0.33573 -3.74585,0 -5.674759,-0.1169 -5.539518,-0.33573 z M 87.206396,176.36545 c 0,-0.18465 0.151078,-0.33573 0.335728,-0.33573 0.184651,0 0.335729,0.15108 0.335729,0.33573 0,0.18465 -0.151078,0.33573 -0.335729,0.33573 -0.18465,0 -0.335728,-0.15108 -0.335728,-0.33573 z M 76.798817,162.43272 c -0.349181,-0.42073 -0.300705,-0.50359 0.294622,-0.50359 0.409572,0 0.712563,0.21414 0.712563,0.50359 0,0.27698 -0.132579,0.5036 -0.294621,0.5036 -0.16204,0 -0.482694,-0.22662 -0.712564,-0.5036 z M 184.36926,148.33213 c -3.4e-4,-3.13906 0.0501,-4.46841 0.11214,-2.9541 0.0621,1.5143 0.0624,4.08262 6.7e-4,5.70738 -0.0617,1.62476 -0.11245,0.38578 -0.11284,-2.75328 z M 70.979527,145.25462 c -0.407795,-0.40779 -0.231971,-0.76542 0.279773,-0.56904 0.276976,0.10629 0.503592,0.32816 0.503592,0.49305 0,0.35198 -0.462512,0.39685 -0.783365,0.076 z m 73.237733,-17.12766 c 0.24236,-0.097 0.53193,-0.0851 0.64349,0.0265 0.11155,0.11156 -0.0867,0.19091 -0.44065,0.17633 -0.39111,-0.0161 -0.47066,-0.0957 -0.20284,-0.20284 z"
         id="path2470" />
    </g>
  </g>
</svg>
